<?xml version="1.0" encoding="UTF-8" standalone="no"?>
<!DOCTYPE svg PUBLIC "-//W3C//DTD SVG 1.1//EN"
 "http://www.w3.org/Graphics/SVG/1.1/DTD/svg11.dtd">
<!-- Generated by graphviz version 2.43.0 (0)
 -->
<!-- Pages: 1 -->
<svg width="1847pt" height="1693pt"
 viewBox="0.00 0.00 1846.90 1693.24" xmlns="http://www.w3.org/2000/svg" xmlns:xlink="http://www.w3.org/1999/xlink">
<g id="graph0" class="graph" transform="scale(1 1) rotate(0) translate(4 1689.24)">
<polygon fill="white" stroke="transparent" points="-4,4 -4,-1689.24 1842.9,-1689.24 1842.9,4 -4,4"/>
<!-- 110 -->
<g id="node1" class="node">
<title>110</title>
<ellipse fill="none" stroke="black" cx="103.79" cy="-1005.27" rx="28.7" ry="18"/>
<text text-anchor="middle" x="103.79" y="-1001.57" font-family="Times,serif" font-size="14.00">110</text>
</g>
<!-- 100 -->
<g id="node2" class="node">
<title>100</title>
<ellipse fill="none" stroke="black" cx="28.6" cy="-1032.24" rx="28.7" ry="18"/>
<text text-anchor="middle" x="28.6" y="-1028.54" font-family="Times,serif" font-size="14.00">100</text>
</g>
<!-- 110&#45;&gt;100 -->
<g id="edge1" class="edge">
<title>110&#45;&gt;100</title>
<path fill="none" stroke="black" d="M78.83,-1014.14C73.95,-1015.94 68.73,-1017.84 63.58,-1019.74"/>
<polygon fill="black" stroke="black" points="62.03,-1016.59 53.87,-1023.34 64.46,-1023.15 62.03,-1016.59"/>
</g>
<!-- 103 -->
<g id="node3" class="node">
<title>103</title>
<ellipse fill="none" stroke="black" cx="28.6" cy="-978.27" rx="28.7" ry="18"/>
<text text-anchor="middle" x="28.6" y="-974.57" font-family="Times,serif" font-size="14.00">103</text>
</g>
<!-- 110&#45;&gt;103 -->
<g id="edge2" class="edge">
<title>110&#45;&gt;103</title>
<path fill="none" stroke="black" d="M78.83,-996.43C73.95,-994.63 68.73,-992.71 63.58,-990.81"/>
<polygon fill="black" stroke="black" points="64.46,-987.41 53.87,-987.23 62.04,-993.98 64.46,-987.41"/>
</g>
<!-- 112 -->
<g id="node4" class="node">
<title>112</title>
<ellipse fill="none" stroke="black" cx="1081.3" cy="-547.27" rx="28.7" ry="18"/>
<text text-anchor="middle" x="1081.3" y="-543.57" font-family="Times,serif" font-size="14.00">112</text>
</g>
<!-- 112&#45;&gt;110 -->
<g id="edge3" class="edge">
<title>112&#45;&gt;110</title>
<path fill="none" stroke="black" d="M1073.4,-564.82C1054.3,-614.18 1000.6,-758.83 977.53,-884.27 972.15,-913.63 979.38,-1129.94 959.53,-1152.24 928.64,-1186.94 903.2,-1171.24 856.74,-1171.24 856.74,-1171.24 856.74,-1171.24 253.18,-1171.24 179.72,-1171.24 133.55,-1079.74 114.63,-1032.64"/>
<polygon fill="black" stroke="black" points="117.79,-1031.1 110.91,-1023.04 111.26,-1033.63 117.79,-1031.1"/>
</g>
<!-- 102 -->
<g id="node5" class="node">
<title>102</title>
<ellipse fill="none" stroke="black" cx="1006.1" cy="-335.27" rx="28.7" ry="18"/>
<text text-anchor="middle" x="1006.1" y="-331.57" font-family="Times,serif" font-size="14.00">102</text>
</g>
<!-- 112&#45;&gt;102 -->
<g id="edge4" class="edge">
<title>112&#45;&gt;102</title>
<path fill="none" stroke="black" d="M1077,-529.42C1070.9,-498.59 1056.5,-433.73 1034.7,-382.27 1031.6,-374.96 1027.6,-367.4 1023.6,-360.53"/>
<polygon fill="black" stroke="black" points="1026.4,-358.4 1018.2,-351.68 1020.42,-362.04 1026.4,-358.4"/>
</g>
<!-- 113 -->
<g id="node6" class="node">
<title>113</title>
<ellipse fill="none" stroke="black" cx="178.99" cy="-852.27" rx="28.7" ry="18"/>
<text text-anchor="middle" x="178.99" y="-848.57" font-family="Times,serif" font-size="14.00">113</text>
</g>
<!-- 113&#45;&gt;110 -->
<g id="edge5" class="edge">
<title>113&#45;&gt;110</title>
<path fill="none" stroke="black" d="M169.73,-869.53C156.99,-896.16 132.45,-947.47 117.45,-978.81"/>
<polygon fill="black" stroke="black" points="114.28,-977.32 113.13,-987.85 120.6,-980.34 114.28,-977.32"/>
</g>
<!-- 115 -->
<g id="node7" class="node">
<title>115</title>
<ellipse fill="none" stroke="black" cx="254.18" cy="-852.27" rx="28.7" ry="18"/>
<text text-anchor="middle" x="254.18" y="-848.57" font-family="Times,serif" font-size="14.00">115</text>
</g>
<!-- 115&#45;&gt;113 -->
<g id="edge6" class="edge">
<title>115&#45;&gt;113</title>
<path fill="none" stroke="black" d="M225.51,-852.27C222.96,-852.27 220.35,-852.27 217.73,-852.27"/>
<polygon fill="black" stroke="black" points="217.7,-848.77 207.7,-852.27 217.7,-855.77 217.7,-848.77"/>
</g>
<!-- 120 -->
<g id="node8" class="node">
<title>120</title>
<ellipse fill="none" stroke="black" cx="329.38" cy="-936.27" rx="28.7" ry="18"/>
<text text-anchor="middle" x="329.38" y="-932.57" font-family="Times,serif" font-size="14.00">120</text>
</g>
<!-- 120&#45;&gt;115 -->
<g id="edge7" class="edge">
<title>120&#45;&gt;115</title>
<path fill="none" stroke="black" d="M314.61,-920.47C303.67,-907.92 288.2,-890.16 275.79,-875.92"/>
<polygon fill="black" stroke="black" points="278.1,-873.25 268.89,-868 272.82,-877.84 278.1,-873.25"/>
</g>
<!-- 125 -->
<g id="node9" class="node">
<title>125</title>
<ellipse fill="none" stroke="black" cx="404.57" cy="-936.27" rx="28.7" ry="18"/>
<text text-anchor="middle" x="404.57" y="-932.57" font-family="Times,serif" font-size="14.00">125</text>
</g>
<!-- 125&#45;&gt;120 -->
<g id="edge8" class="edge">
<title>125&#45;&gt;120</title>
<path fill="none" stroke="black" d="M375.9,-936.27C373.35,-936.27 370.74,-936.27 368.12,-936.27"/>
<polygon fill="black" stroke="black" points="368.09,-932.77 358.09,-936.27 368.09,-939.77 368.09,-932.77"/>
</g>
<!-- 130 -->
<g id="node10" class="node">
<title>130</title>
<ellipse fill="none" stroke="black" cx="479.77" cy="-1030.24" rx="28.7" ry="18"/>
<text text-anchor="middle" x="479.77" y="-1026.54" font-family="Times,serif" font-size="14.00">130</text>
</g>
<!-- 130&#45;&gt;125 -->
<g id="edge9" class="edge">
<title>130&#45;&gt;125</title>
<path fill="none" stroke="black" d="M466.35,-1014.34C454.89,-999.61 437.7,-977.53 424.52,-960.61"/>
<polygon fill="black" stroke="black" points="426.96,-958.05 418.05,-952.3 421.43,-962.35 426.96,-958.05"/>
</g>
<!-- 133 -->
<g id="node11" class="node">
<title>133</title>
<ellipse fill="none" stroke="black" cx="554.96" cy="-1079.24" rx="28.7" ry="18"/>
<text text-anchor="middle" x="554.96" y="-1075.54" font-family="Times,serif" font-size="14.00">133</text>
</g>
<!-- 133&#45;&gt;130 -->
<g id="edge10" class="edge">
<title>133&#45;&gt;130</title>
<path fill="none" stroke="black" d="M534.73,-1066.44C526.73,-1061.04 517.28,-1054.74 508.54,-1048.84"/>
<polygon fill="black" stroke="black" points="510.39,-1045.87 500.12,-1043.24 506.51,-1051.7 510.39,-1045.87"/>
</g>
<!-- 135 -->
<g id="node12" class="node">
<title>135</title>
<ellipse fill="none" stroke="black" cx="630.16" cy="-1125.24" rx="28.7" ry="18"/>
<text text-anchor="middle" x="630.16" y="-1121.54" font-family="Times,serif" font-size="14.00">135</text>
</g>
<!-- 135&#45;&gt;133 -->
<g id="edge11" class="edge">
<title>135&#45;&gt;133</title>
<path fill="none" stroke="black" d="M609.16,-1112.74C601.57,-1107.94 592.78,-1102.44 584.56,-1097.24"/>
<polygon fill="black" stroke="black" points="586.27,-1094.19 575.94,-1091.84 582.56,-1100.12 586.27,-1094.19"/>
</g>
<!-- 140 -->
<g id="node13" class="node">
<title>140</title>
<ellipse fill="none" stroke="black" cx="705.35" cy="-1125.24" rx="28.7" ry="18"/>
<text text-anchor="middle" x="705.35" y="-1121.54" font-family="Times,serif" font-size="14.00">140</text>
</g>
<!-- 140&#45;&gt;135 -->
<g id="edge12" class="edge">
<title>140&#45;&gt;135</title>
<path fill="none" stroke="black" d="M676.68,-1125.24C674.13,-1125.24 671.52,-1125.24 668.9,-1125.24"/>
<polygon fill="black" stroke="black" points="668.87,-1121.74 658.87,-1125.24 668.87,-1128.74 668.87,-1121.74"/>
</g>
<!-- 145 -->
<g id="node14" class="node">
<title>145</title>
<ellipse fill="none" stroke="black" cx="780.55" cy="-1125.24" rx="28.7" ry="18"/>
<text text-anchor="middle" x="780.55" y="-1121.54" font-family="Times,serif" font-size="14.00">145</text>
</g>
<!-- 145&#45;&gt;140 -->
<g id="edge13" class="edge">
<title>145&#45;&gt;140</title>
<path fill="none" stroke="black" d="M751.87,-1125.24C749.32,-1125.24 746.71,-1125.24 744.09,-1125.24"/>
<polygon fill="black" stroke="black" points="744.06,-1121.74 734.06,-1125.24 744.06,-1128.74 744.06,-1121.74"/>
</g>
<!-- 150 -->
<g id="node15" class="node">
<title>150</title>
<ellipse fill="none" stroke="black" cx="855.74" cy="-1217.24" rx="28.7" ry="18"/>
<text text-anchor="middle" x="855.74" y="-1213.54" font-family="Times,serif" font-size="14.00">150</text>
</g>
<!-- 150&#45;&gt;145 -->
<g id="edge14" class="edge">
<title>150&#45;&gt;145</title>
<path fill="none" stroke="black" d="M841.99,-1201.24C830.55,-1186.84 813.6,-1165.54 800.56,-1149.14"/>
<polygon fill="black" stroke="black" points="803.13,-1146.76 794.15,-1141.14 797.67,-1151.14 803.13,-1146.76"/>
</g>
<!-- 153 -->
<g id="node16" class="node">
<title>153</title>
<ellipse fill="none" stroke="black" cx="855.74" cy="-1125.24" rx="28.7" ry="18"/>
<text text-anchor="middle" x="855.74" y="-1121.54" font-family="Times,serif" font-size="14.00">153</text>
</g>
<!-- 153&#45;&gt;145 -->
<g id="edge15" class="edge">
<title>153&#45;&gt;145</title>
<path fill="none" stroke="black" d="M827.07,-1125.24C824.52,-1125.24 821.91,-1125.24 819.29,-1125.24"/>
<polygon fill="black" stroke="black" points="819.26,-1121.74 809.26,-1125.24 819.26,-1128.74 819.26,-1121.74"/>
</g>
<!-- 155 -->
<g id="node17" class="node">
<title>155</title>
<ellipse fill="none" stroke="black" cx="930.94" cy="-1293.24" rx="28.7" ry="18"/>
<text text-anchor="middle" x="930.94" y="-1289.54" font-family="Times,serif" font-size="14.00">155</text>
</g>
<!-- 155&#45;&gt;150 -->
<g id="edge16" class="edge">
<title>155&#45;&gt;150</title>
<path fill="none" stroke="black" d="M915.12,-1277.94C904.61,-1266.94 890.32,-1252.14 878.51,-1239.84"/>
<polygon fill="black" stroke="black" points="881,-1237.39 871.53,-1232.64 875.98,-1242.26 881,-1237.39"/>
</g>
<!-- 156 -->
<g id="node18" class="node">
<title>156</title>
<ellipse fill="none" stroke="black" cx="780.55" cy="-1278.24" rx="28.7" ry="18"/>
<text text-anchor="middle" x="780.55" y="-1274.54" font-family="Times,serif" font-size="14.00">156</text>
</g>
<!-- 156&#45;&gt;133 -->
<g id="edge17" class="edge">
<title>156&#45;&gt;133</title>
<path fill="none" stroke="black" d="M764.22,-1263.34C742.12,-1241.04 701.25,-1196.84 676.75,-1152.24 664.56,-1130.14 677.84,-1114.84 658.75,-1098.24 641.1,-1082.94 615.17,-1078.24 593.76,-1077.34"/>
<polygon fill="black" stroke="black" points="593.74,-1073.84 583.67,-1077.14 593.6,-1080.84 593.74,-1073.84"/>
</g>
<!-- 160 -->
<g id="node19" class="node">
<title>160</title>
<ellipse fill="none" stroke="black" cx="630.16" cy="-913.27" rx="28.7" ry="18"/>
<text text-anchor="middle" x="630.16" y="-909.57" font-family="Times,serif" font-size="14.00">160</text>
</g>
<!-- 160&#45;&gt;125 -->
<g id="edge18" class="edge">
<title>160&#45;&gt;125</title>
<path fill="none" stroke="black" d="M601.74,-916.09C561.91,-920.19 487.9,-927.8 443.05,-932.42"/>
<polygon fill="black" stroke="black" points="442.45,-928.97 432.86,-933.46 443.16,-935.93 442.45,-928.97"/>
</g>
<!-- 163 -->
<g id="node20" class="node">
<title>163</title>
<ellipse fill="none" stroke="black" cx="855.74" cy="-1071.24" rx="28.7" ry="18"/>
<text text-anchor="middle" x="855.74" y="-1067.54" font-family="Times,serif" font-size="14.00">163</text>
</g>
<!-- 163&#45;&gt;145 -->
<g id="edge19" class="edge">
<title>163&#45;&gt;145</title>
<path fill="none" stroke="black" d="M836.27,-1084.94C827.71,-1091.24 817.38,-1098.84 808.01,-1105.74"/>
<polygon fill="black" stroke="black" points="805.72,-1103.09 799.76,-1111.84 809.88,-1108.71 805.72,-1103.09"/>
</g>
<!-- 165 -->
<g id="node21" class="node">
<title>165</title>
<ellipse fill="none" stroke="black" cx="1006.1" cy="-1258.24" rx="28.7" ry="18"/>
<text text-anchor="middle" x="1006.1" y="-1254.54" font-family="Times,serif" font-size="14.00">165</text>
</g>
<!-- 165&#45;&gt;155 -->
<g id="edge20" class="edge">
<title>165&#45;&gt;155</title>
<path fill="none" stroke="black" d="M982.77,-1268.94C976.67,-1271.84 969.94,-1275.14 963.44,-1278.24"/>
<polygon fill="black" stroke="black" points="961.7,-1275.2 954.16,-1282.64 964.7,-1281.52 961.7,-1275.2"/>
</g>
<!-- 170 -->
<g id="node22" class="node">
<title>170</title>
<ellipse fill="none" stroke="black" cx="1006.1" cy="-911.27" rx="28.7" ry="18"/>
<text text-anchor="middle" x="1006.1" y="-907.57" font-family="Times,serif" font-size="14.00">170</text>
</g>
<!-- 170&#45;&gt;135 -->
<g id="edge21" class="edge">
<title>170&#45;&gt;135</title>
<path fill="none" stroke="black" d="M984.31,-922.96C932.29,-952.22 792.49,-1031.04 676.75,-1098.24 671.45,-1101.34 665.82,-1104.64 660.39,-1107.84"/>
<polygon fill="black" stroke="black" points="658.32,-1105 651.54,-1113.14 661.92,-1111.01 658.32,-1105"/>
</g>
<!-- 175 -->
<g id="node23" class="node">
<title>175</title>
<ellipse fill="none" stroke="black" cx="554.96" cy="-985.27" rx="28.7" ry="18"/>
<text text-anchor="middle" x="554.96" y="-981.57" font-family="Times,serif" font-size="14.00">175</text>
</g>
<!-- 175&#45;&gt;115 -->
<g id="edge22" class="edge">
<title>175&#45;&gt;115</title>
<path fill="none" stroke="black" d="M535.56,-971.61C512.57,-955.06 471.58,-927.16 433.17,-909.27 426.5,-906.16 339.82,-878.81 289.94,-863.16"/>
<polygon fill="black" stroke="black" points="290.78,-859.76 280.19,-860.1 288.68,-866.44 290.78,-859.76"/>
</g>
<!-- 180 -->
<g id="node24" class="node">
<title>180</title>
<ellipse fill="none" stroke="black" cx="1081.3" cy="-1231.24" rx="28.7" ry="18"/>
<text text-anchor="middle" x="1081.3" y="-1227.54" font-family="Times,serif" font-size="14.00">180</text>
</g>
<!-- 180&#45;&gt;165 -->
<g id="edge23" class="edge">
<title>180&#45;&gt;165</title>
<path fill="none" stroke="black" d="M1056.4,-1240.14C1051.5,-1241.94 1046.3,-1243.84 1041.1,-1245.74"/>
<polygon fill="black" stroke="black" points="1039.56,-1242.58 1031.4,-1249.34 1041.99,-1249.15 1039.56,-1242.58"/>
</g>
<!-- 180&#45;&gt;175 -->
<g id="edge24" class="edge">
<title>180&#45;&gt;175</title>
<path fill="none" stroke="black" d="M1073.1,-1213.84C1067.4,-1199.74 1059.3,-1179.34 1052.7,-1161.24 1044.1,-1137.54 1047.9,-1128.84 1034.7,-1107.24 1009.8,-1066.44 1002.5,-1051.24 959.53,-1030.24 836.5,-970.21 667.89,-975.38 593.65,-981.37"/>
<polygon fill="black" stroke="black" points="593.06,-977.91 583.4,-982.26 593.67,-984.89 593.06,-977.91"/>
</g>
<!-- 183 -->
<g id="node25" class="node">
<title>183</title>
<ellipse fill="none" stroke="black" cx="1006.1" cy="-1134.24" rx="28.7" ry="18"/>
<text text-anchor="middle" x="1006.1" y="-1130.54" font-family="Times,serif" font-size="14.00">183</text>
</g>
<!-- 183&#45;&gt;150 -->
<g id="edge25" class="edge">
<title>183&#45;&gt;150</title>
<path fill="none" stroke="black" d="M1001.8,-1152.04C996.7,-1173.24 984.86,-1207.74 959.53,-1223.24 939.22,-1235.74 912.21,-1233.54 890.98,-1228.64"/>
<polygon fill="black" stroke="black" points="891.64,-1225.2 881.08,-1226.04 889.86,-1231.97 891.64,-1225.2"/>
</g>
<!-- 184 -->
<g id="node26" class="node">
<title>184</title>
<ellipse fill="none" stroke="black" cx="1006.1" cy="-1339.24" rx="28.7" ry="18"/>
<text text-anchor="middle" x="1006.1" y="-1335.54" font-family="Times,serif" font-size="14.00">184</text>
</g>
<!-- 184&#45;&gt;156 -->
<g id="edge26" class="edge">
<title>184&#45;&gt;156</title>
<path fill="none" stroke="black" d="M977.83,-1335.34C956.97,-1332.14 927.6,-1326.94 902.34,-1320.24 872.16,-1312.24 838.68,-1300.44 814.64,-1291.34"/>
<polygon fill="black" stroke="black" points="815.87,-1288.07 805.28,-1287.74 813.36,-1294.6 815.87,-1288.07"/>
</g>
<!-- 185 -->
<g id="node27" class="node">
<title>185</title>
<ellipse fill="none" stroke="black" cx="1081.3" cy="-957.27" rx="28.7" ry="18"/>
<text text-anchor="middle" x="1081.3" y="-953.57" font-family="Times,serif" font-size="14.00">185</text>
</g>
<!-- 185&#45;&gt;160 -->
<g id="edge27" class="edge">
<title>185&#45;&gt;160</title>
<path fill="none" stroke="black" d="M1052.9,-954.59C975.76,-947.03 756.73,-925.57 668.59,-916.94"/>
<polygon fill="black" stroke="black" points="668.79,-913.45 658.5,-915.95 668.11,-920.41 668.79,-913.45"/>
</g>
<!-- 185&#45;&gt;170 -->
<g id="edge28" class="edge">
<title>185&#45;&gt;170</title>
<path fill="none" stroke="black" d="M1060.3,-944.7C1052.7,-939.94 1043.9,-934.41 1035.7,-929.24"/>
<polygon fill="black" stroke="black" points="1037.43,-926.2 1027.1,-923.83 1033.7,-932.12 1037.43,-926.2"/>
</g>
<!-- 190 -->
<g id="node28" class="node">
<title>190</title>
<ellipse fill="none" stroke="black" cx="1081.3" cy="-699.27" rx="28.7" ry="18"/>
<text text-anchor="middle" x="1081.3" y="-695.57" font-family="Times,serif" font-size="14.00">190</text>
</g>
<!-- 190&#45;&gt;170 -->
<g id="edge29" class="edge">
<title>190&#45;&gt;170</title>
<path fill="none" stroke="black" d="M1070.1,-716.01C1064.2,-726.61 1057,-740.82 1052.7,-754.27 1035.9,-807.83 1058,-828.19 1034.7,-879.27 1033.3,-882.51 1031.4,-885.67 1029.2,-888.66"/>
<polygon fill="black" stroke="black" points="1026.38,-886.59 1022.9,-896.59 1031.86,-890.94 1026.38,-886.59"/>
</g>
<!-- 192 -->
<g id="node29" class="node">
<title>192</title>
<ellipse fill="none" stroke="black" cx="1156.5" cy="-1093.24" rx="28.7" ry="18"/>
<text text-anchor="middle" x="1156.5" y="-1089.54" font-family="Times,serif" font-size="14.00">192</text>
</g>
<!-- 192&#45;&gt;190 -->
<g id="edge30" class="edge">
<title>192&#45;&gt;190</title>
<path fill="none" stroke="black" d="M1137.5,-1079.44C1133.7,-1075.64 1130.1,-1071.14 1127.9,-1066.24 1099.2,-1003.06 1127.9,-821.36 1109.9,-754.27 1107.2,-744.16 1102.5,-733.73 1097.8,-724.71"/>
<polygon fill="black" stroke="black" points="1100.82,-722.94 1092.9,-715.89 1094.7,-726.34 1100.82,-722.94"/>
</g>
<!-- 195 -->
<g id="node30" class="node">
<title>195</title>
<ellipse fill="none" stroke="black" cx="780.55" cy="-150.27" rx="28.7" ry="18"/>
<text text-anchor="middle" x="780.55" y="-146.57" font-family="Times,serif" font-size="14.00">195</text>
</g>
<!-- 195&#45;&gt;113 -->
<g id="edge31" class="edge">
<title>195&#45;&gt;113</title>
<path fill="none" stroke="black" d="M763.08,-164.89C737.03,-186.46 683.84,-224.27 631.16,-224.27 631.16,-224.27 631.16,-224.27 328.38,-224.27 203.32,-224.27 183.53,-701.92 180.51,-824.09"/>
<polygon fill="black" stroke="black" points="177.01,-824.08 180.28,-834.15 184.01,-824.24 177.01,-824.08"/>
</g>
<!-- 201 -->
<g id="node31" class="node">
<title>201</title>
<ellipse fill="none" stroke="black" cx="1081.3" cy="-781.27" rx="28.7" ry="18"/>
<text text-anchor="middle" x="1081.3" y="-777.57" font-family="Times,serif" font-size="14.00">201</text>
</g>
<!-- 201&#45;&gt;115 -->
<g id="edge32" class="edge">
<title>201&#45;&gt;115</title>
<path fill="none" stroke="black" d="M1056.8,-790.85C1006.9,-810.23 886.58,-852.27 781.55,-852.27 781.55,-852.27 781.55,-852.27 403.57,-852.27 365.89,-852.27 322.83,-852.27 292.84,-852.27"/>
<polygon fill="black" stroke="black" points="292.8,-848.77 282.8,-852.27 292.8,-855.77 292.8,-848.77"/>
</g>
<!-- 200 -->
<g id="node32" class="node">
<title>200</title>
<ellipse fill="none" stroke="black" cx="1006.1" cy="-409.27" rx="28.7" ry="18"/>
<text text-anchor="middle" x="1006.1" y="-405.57" font-family="Times,serif" font-size="14.00">200</text>
</g>
<!-- 201&#45;&gt;200 -->
<g id="edge33" class="edge">
<title>201&#45;&gt;200</title>
<path fill="none" stroke="black" d="M1070.1,-764.53C1064.2,-753.93 1056.9,-739.73 1052.7,-726.27 1020.4,-623.32 1010.9,-494.29 1008.2,-437.88"/>
<polygon fill="black" stroke="black" points="1011.68,-437.42 1007.7,-427.6 1004.69,-437.76 1011.68,-437.42"/>
</g>
<!-- 205 -->
<g id="node33" class="node">
<title>205</title>
<ellipse fill="none" stroke="black" cx="1156.5" cy="-1255.24" rx="28.7" ry="18"/>
<text text-anchor="middle" x="1156.5" y="-1251.54" font-family="Times,serif" font-size="14.00">205</text>
</g>
<!-- 205&#45;&gt;201 -->
<g id="edge34" class="edge">
<title>205&#45;&gt;201</title>
<path fill="none" stroke="black" d="M1137.5,-1241.44C1133.7,-1237.64 1130.2,-1233.14 1127.9,-1228.24 1100.4,-1167.94 1118,-996.12 1109.9,-930.27 1104.7,-887.71 1095,-838.95 1088.5,-809.13"/>
<polygon fill="black" stroke="black" points="1091.87,-808.13 1086.4,-799.05 1085.01,-809.56 1091.87,-808.13"/>
</g>
<!-- 210 -->
<g id="node34" class="node">
<title>210</title>
<ellipse fill="none" stroke="black" cx="1156.5" cy="-1201.24" rx="28.7" ry="18"/>
<text text-anchor="middle" x="1156.5" y="-1197.54" font-family="Times,serif" font-size="14.00">210</text>
</g>
<!-- 210&#45;&gt;201 -->
<g id="edge35" class="edge">
<title>210&#45;&gt;201</title>
<path fill="none" stroke="black" d="M1137.5,-1187.44C1133.7,-1183.64 1130.2,-1179.14 1127.9,-1174.24 1105,-1124.94 1116.9,-984.19 1109.9,-930.27 1104.4,-887.75 1094.7,-838.98 1088.4,-809.15"/>
<polygon fill="black" stroke="black" points="1091.76,-808.14 1086.3,-799.06 1084.91,-809.57 1091.76,-808.14"/>
</g>
<!-- 215 -->
<g id="node35" class="node">
<title>215</title>
<ellipse fill="none" stroke="black" cx="1156.5" cy="-1147.24" rx="28.7" ry="18"/>
<text text-anchor="middle" x="1156.5" y="-1143.54" font-family="Times,serif" font-size="14.00">215</text>
</g>
<!-- 215&#45;&gt;115 -->
<g id="edge36" class="edge">
<title>215&#45;&gt;115</title>
<path fill="none" stroke="black" d="M1137.6,-1133.44C1133.8,-1129.54 1130.2,-1125.14 1127.9,-1120.24 1091.4,-1043.74 1154.8,-1002.22 1109.9,-930.27 1055.3,-842.84 839.09,-814.27 781.55,-814.27 781.55,-814.27 781.55,-814.27 403.57,-814.27 362.72,-814.27 317.45,-827.96 287.79,-838.9"/>
<polygon fill="black" stroke="black" points="286.46,-835.67 278.36,-842.49 288.95,-842.21 286.46,-835.67"/>
</g>
<!-- 215&#45;&gt;201 -->
<g id="edge37" class="edge">
<title>215&#45;&gt;201</title>
<path fill="none" stroke="black" d="M1137.5,-1133.44C1133.7,-1129.64 1130.1,-1125.14 1127.9,-1120.24 1099.6,-1058.04 1135.6,-876.61 1109.9,-813.27 1108.6,-809.98 1106.8,-806.78 1104.7,-803.77"/>
<polygon fill="black" stroke="black" points="1107.35,-801.49 1098.4,-795.82 1101.87,-805.84 1107.35,-801.49"/>
</g>
<!-- 217 -->
<g id="node36" class="node">
<title>217</title>
<ellipse fill="none" stroke="black" cx="1252.5" cy="-1147.24" rx="28.7" ry="18"/>
<text text-anchor="middle" x="1252.5" y="-1143.54" font-family="Times,serif" font-size="14.00">217</text>
</g>
<!-- 217&#45;&gt;192 -->
<g id="edge38" class="edge">
<title>217&#45;&gt;192</title>
<path fill="none" stroke="black" d="M1230.2,-1135.54C1221.8,-1130.84 1212,-1125.34 1203.1,-1120.24 1197.8,-1117.24 1192.2,-1113.94 1186.7,-1110.74"/>
<polygon fill="black" stroke="black" points="1188.27,-1107.61 1177.9,-1105.44 1184.66,-1113.6 1188.27,-1107.61"/>
</g>
<!-- 217&#45;&gt;215 -->
<g id="edge39" class="edge">
<title>217&#45;&gt;215</title>
<path fill="none" stroke="black" d="M1223.8,-1147.24C1214.9,-1147.24 1204.9,-1147.24 1195.4,-1147.24"/>
<polygon fill="black" stroke="black" points="1195.3,-1143.74 1185.3,-1147.24 1195.3,-1150.74 1195.3,-1143.74"/>
</g>
<!-- 220 -->
<g id="node37" class="node">
<title>220</title>
<ellipse fill="none" stroke="black" cx="1156.5" cy="-1039.24" rx="28.7" ry="18"/>
<text text-anchor="middle" x="1156.5" y="-1035.54" font-family="Times,serif" font-size="14.00">220</text>
</g>
<!-- 220&#45;&gt;201 -->
<g id="edge40" class="edge">
<title>220&#45;&gt;201</title>
<path fill="none" stroke="black" d="M1137.6,-1025.44C1133.8,-1021.54 1130.2,-1017.14 1127.9,-1012.24 1089.8,-932.05 1144.6,-895.04 1109.9,-813.27 1108.5,-810 1106.7,-806.82 1104.6,-803.81"/>
<polygon fill="black" stroke="black" points="1107.26,-801.53 1098.3,-795.87 1101.77,-805.88 1107.26,-801.53"/>
</g>
<!-- 222 -->
<g id="node38" class="node">
<title>222</title>
<ellipse fill="none" stroke="black" cx="1156.5" cy="-985.27" rx="28.7" ry="18"/>
<text text-anchor="middle" x="1156.5" y="-981.57" font-family="Times,serif" font-size="14.00">222</text>
</g>
<!-- 222&#45;&gt;150 -->
<g id="edge41" class="edge">
<title>222&#45;&gt;150</title>
<path fill="none" stroke="black" d="M1132,-994.6C1093.4,-1011.14 1016.9,-1049.54 977.53,-1107.24 957.49,-1136.64 983.73,-1159.14 959.53,-1185.24 942.85,-1203.24 916.27,-1211.24 894.31,-1214.74"/>
<polygon fill="black" stroke="black" points="893.76,-1211.29 884.29,-1216.04 894.66,-1218.23 893.76,-1211.29"/>
</g>
<!-- 225 -->
<g id="node39" class="node">
<title>225</title>
<ellipse fill="none" stroke="black" cx="1156.5" cy="-839.27" rx="28.7" ry="18"/>
<text text-anchor="middle" x="1156.5" y="-835.57" font-family="Times,serif" font-size="14.00">225</text>
</g>
<!-- 225&#45;&gt;201 -->
<g id="edge42" class="edge">
<title>225&#45;&gt;201</title>
<path fill="none" stroke="black" d="M1137.8,-825.23C1128.8,-818.11 1117.7,-809.32 1107.8,-801.49"/>
<polygon fill="black" stroke="black" points="1109.9,-798.69 1099.9,-795.18 1105.53,-804.16 1109.9,-798.69"/>
</g>
<!-- 230 -->
<g id="node40" class="node">
<title>230</title>
<ellipse fill="none" stroke="black" cx="1156.5" cy="-655.27" rx="28.7" ry="18"/>
<text text-anchor="middle" x="1156.5" y="-651.57" font-family="Times,serif" font-size="14.00">230</text>
</g>
<!-- 230&#45;&gt;201 -->
<g id="edge43" class="edge">
<title>230&#45;&gt;201</title>
<path fill="none" stroke="black" d="M1140.8,-670.53C1136.4,-675.62 1131.7,-681.47 1127.9,-687.27 1117.6,-703.32 1118.2,-709.07 1109.9,-726.27 1105.4,-735.7 1100.3,-745.97 1095.7,-755.05"/>
<polygon fill="black" stroke="black" points="1092.57,-753.5 1091.2,-764 1098.82,-756.64 1092.57,-753.5"/>
</g>
<!-- 233 -->
<g id="node41" class="node">
<title>233</title>
<ellipse fill="none" stroke="black" cx="1081.3" cy="-1339.24" rx="28.7" ry="18"/>
<text text-anchor="middle" x="1081.3" y="-1335.54" font-family="Times,serif" font-size="14.00">233</text>
</g>
<!-- 233&#45;&gt;183 -->
<g id="edge44" class="edge">
<title>233&#45;&gt;183</title>
<path fill="none" stroke="black" d="M1062.8,-1325.14C1059,-1321.34 1055.3,-1316.94 1052.7,-1312.24 1034.8,-1280.04 1043.8,-1267.04 1034.7,-1231.24 1028.8,-1207.64 1021.1,-1181.14 1015.4,-1161.74"/>
<polygon fill="black" stroke="black" points="1018.72,-1160.62 1012.5,-1152.04 1012.01,-1162.63 1018.72,-1160.62"/>
</g>
<!-- 233&#45;&gt;184 -->
<g id="edge45" class="edge">
<title>233&#45;&gt;184</title>
<path fill="none" stroke="black" d="M1052.7,-1339.24C1050.1,-1339.24 1047.5,-1339.24 1044.9,-1339.24"/>
<polygon fill="black" stroke="black" points="1044.8,-1335.74 1034.8,-1339.24 1044.8,-1342.74 1044.8,-1335.74"/>
</g>
<!-- 234 -->
<g id="node42" class="node">
<title>234</title>
<ellipse fill="none" stroke="black" cx="930.94" cy="-1125.24" rx="28.7" ry="18"/>
<text text-anchor="middle" x="930.94" y="-1121.54" font-family="Times,serif" font-size="14.00">234</text>
</g>
<!-- 234&#45;&gt;163 -->
<g id="edge46" class="edge">
<title>234&#45;&gt;163</title>
<path fill="none" stroke="black" d="M911.47,-1111.64C902.91,-1105.34 892.58,-1097.74 883.21,-1090.84"/>
<polygon fill="black" stroke="black" points="885.07,-1087.87 874.95,-1084.74 880.92,-1093.5 885.07,-1087.87"/>
</g>
<!-- 235 -->
<g id="node43" class="node">
<title>235</title>
<ellipse fill="none" stroke="black" cx="1156.5" cy="-601.27" rx="28.7" ry="18"/>
<text text-anchor="middle" x="1156.5" y="-597.57" font-family="Times,serif" font-size="14.00">235</text>
</g>
<!-- 235&#45;&gt;201 -->
<g id="edge47" class="edge">
<title>235&#45;&gt;201</title>
<path fill="none" stroke="black" d="M1137.9,-615.3C1134.1,-619.13 1130.4,-623.54 1127.9,-628.27 1107.1,-667.37 1124,-684.28 1109.9,-726.27 1106.6,-736.2 1101.8,-746.58 1097.1,-755.62"/>
<polygon fill="black" stroke="black" points="1093.99,-754.02 1092.3,-764.47 1100.14,-757.35 1093.99,-754.02"/>
</g>
<!-- 236 -->
<g id="node44" class="node">
<title>236</title>
<ellipse fill="none" stroke="black" cx="930.94" cy="-1071.24" rx="28.7" ry="18"/>
<text text-anchor="middle" x="930.94" y="-1067.54" font-family="Times,serif" font-size="14.00">236</text>
</g>
<!-- 236&#45;&gt;150 -->
<g id="edge48" class="edge">
<title>236&#45;&gt;150</title>
<path fill="none" stroke="black" d="M912.77,-1085.54C908.94,-1089.34 905.18,-1093.74 902.34,-1098.24 888.92,-1119.74 893.29,-1128.64 884.34,-1152.24 879.49,-1165.04 873.62,-1179.14 868.54,-1190.84"/>
<polygon fill="black" stroke="black" points="865.32,-1189.48 864.5,-1200.04 871.73,-1192.3 865.32,-1189.48"/>
</g>
<!-- 236&#45;&gt;163 -->
<g id="edge49" class="edge">
<title>236&#45;&gt;163</title>
<path fill="none" stroke="black" d="M902.26,-1071.24C899.71,-1071.24 897.1,-1071.24 894.48,-1071.24"/>
<polygon fill="black" stroke="black" points="894.45,-1067.74 884.45,-1071.24 894.45,-1074.74 894.45,-1067.74"/>
</g>
<!-- 240 -->
<g id="node45" class="node">
<title>240</title>
<ellipse fill="none" stroke="black" cx="1156.5" cy="-547.27" rx="28.7" ry="18"/>
<text text-anchor="middle" x="1156.5" y="-543.57" font-family="Times,serif" font-size="14.00">240</text>
</g>
<!-- 240&#45;&gt;112 -->
<g id="edge50" class="edge">
<title>240&#45;&gt;112</title>
<path fill="none" stroke="black" d="M1127.8,-547.27C1125.3,-547.27 1122.7,-547.27 1120.1,-547.27"/>
<polygon fill="black" stroke="black" points="1120,-543.77 1110,-547.27 1120,-550.77 1120,-543.77"/>
</g>
<!-- 240&#45;&gt;201 -->
<g id="edge51" class="edge">
<title>240&#45;&gt;201</title>
<path fill="none" stroke="black" d="M1137.7,-561.19C1133.9,-565.02 1130.3,-569.46 1127.9,-574.27 1097.9,-635.32 1129.5,-661.11 1109.9,-726.27 1106.9,-736.3 1102.2,-746.7 1097.5,-755.73"/>
<polygon fill="black" stroke="black" points="1094.39,-754.13 1092.6,-764.57 1100.51,-757.53 1094.39,-754.13"/>
</g>
<!-- 245 -->
<g id="node46" class="node">
<title>245</title>
<ellipse fill="none" stroke="black" cx="1156.5" cy="-493.27" rx="28.7" ry="18"/>
<text text-anchor="middle" x="1156.5" y="-489.57" font-family="Times,serif" font-size="14.00">245</text>
</g>
<!-- 245&#45;&gt;201 -->
<g id="edge52" class="edge">
<title>245&#45;&gt;201</title>
<path fill="none" stroke="black" d="M1137.6,-507.14C1133.8,-510.97 1130.2,-515.42 1127.9,-520.27 1088.6,-603.35 1135,-637.85 1109.9,-726.27 1107.1,-736.34 1102.4,-746.76 1097.6,-755.78"/>
<polygon fill="black" stroke="black" points="1094.5,-754.16 1092.8,-764.61 1100.65,-757.5 1094.5,-754.16"/>
</g>
<!-- 250 -->
<g id="node47" class="node">
<title>250</title>
<ellipse fill="none" stroke="black" cx="705.35" cy="-418.27" rx="28.7" ry="18"/>
<text text-anchor="middle" x="705.35" y="-414.57" font-family="Times,serif" font-size="14.00">250</text>
</g>
<!-- 250&#45;&gt;115 -->
<g id="edge53" class="edge">
<title>250&#45;&gt;115</title>
<path fill="none" stroke="black" d="M685.72,-431.73C658.58,-449.96 605.94,-480.27 555.96,-480.27 555.96,-480.27 555.96,-480.27 403.57,-480.27 329.48,-480.27 275.91,-738.07 260.04,-824.45"/>
<polygon fill="black" stroke="black" points="256.59,-823.87 258.26,-834.33 263.48,-825.11 256.59,-823.87"/>
</g>
<!-- 255 -->
<g id="node48" class="node">
<title>255</title>
<ellipse fill="none" stroke="black" cx="1252.5" cy="-1293.24" rx="28.7" ry="18"/>
<text text-anchor="middle" x="1252.5" y="-1289.54" font-family="Times,serif" font-size="14.00">255</text>
</g>
<!-- 255&#45;&gt;180 -->
<g id="edge54" class="edge">
<title>255&#45;&gt;180</title>
<path fill="none" stroke="black" d="M1250.2,-1311.44C1244,-1386.14 1215.2,-1661.74 1127.9,-1579.24 1102,-1554.74 1124.7,-1290.84 1109.9,-1258.24 1109.1,-1256.44 1108.1,-1254.64 1106.9,-1252.94"/>
<polygon fill="black" stroke="black" points="1109.46,-1250.54 1100.4,-1245.04 1104.05,-1254.99 1109.46,-1250.54"/>
</g>
<!-- 255&#45;&gt;205 -->
<g id="edge55" class="edge">
<title>255&#45;&gt;205</title>
<path fill="none" stroke="black" d="M1227.8,-1283.64C1216.5,-1279.14 1202.7,-1273.54 1190.4,-1268.54"/>
<polygon fill="black" stroke="black" points="1191.49,-1265.21 1180.9,-1264.74 1188.89,-1271.71 1191.49,-1265.21"/>
</g>
<!-- 255&#45;&gt;222 -->
<g id="edge56" class="edge">
<title>255&#45;&gt;222</title>
<path fill="none" stroke="black" d="M1226.8,-1285.24C1217.8,-1280.94 1208.6,-1274.84 1203.1,-1266.24 1172.8,-1218.54 1208.9,-1063.64 1185.1,-1012.24 1184.3,-1010.44 1183.2,-1008.64 1182.1,-1006.98"/>
<polygon fill="black" stroke="black" points="1184.61,-1004.53 1175.5,-999.11 1179.24,-1009.03 1184.61,-1004.53"/>
</g>
<!-- 260 -->
<g id="node49" class="node">
<title>260</title>
<ellipse fill="none" stroke="black" cx="1252.5" cy="-1239.24" rx="28.7" ry="18"/>
<text text-anchor="middle" x="1252.5" y="-1235.54" font-family="Times,serif" font-size="14.00">260</text>
</g>
<!-- 260&#45;&gt;180 -->
<g id="edge57" class="edge">
<title>260&#45;&gt;180</title>
<path fill="none" stroke="black" d="M1226.7,-1247.34C1217.8,-1251.54 1208.6,-1257.64 1203.1,-1266.24 1185.7,-1293.84 1208.9,-1536.94 1185.1,-1559.24 1166.6,-1576.64 1146.4,-1576.74 1127.9,-1559.24 1103.5,-1536.34 1123.8,-1288.74 1109.9,-1258.24 1109.1,-1256.44 1108.1,-1254.64 1106.9,-1252.94"/>
<polygon fill="black" stroke="black" points="1109.49,-1250.59 1100.4,-1245.14 1104.11,-1255.07 1109.49,-1250.59"/>
</g>
<!-- 260&#45;&gt;210 -->
<g id="edge58" class="edge">
<title>260&#45;&gt;210</title>
<path fill="none" stroke="black" d="M1227.8,-1229.64C1216.5,-1225.14 1202.7,-1219.54 1190.4,-1214.54"/>
<polygon fill="black" stroke="black" points="1191.49,-1211.21 1180.9,-1210.74 1188.89,-1217.71 1191.49,-1211.21"/>
</g>
<!-- 260&#45;&gt;222 -->
<g id="edge59" class="edge">
<title>260&#45;&gt;222</title>
<path fill="none" stroke="black" d="M1236.6,-1224.14C1225.3,-1211.84 1210.6,-1193.34 1203.1,-1174.24 1176.6,-1106.84 1216.9,-1077.44 1185.1,-1012.24 1184.2,-1010.44 1183.2,-1008.74 1182,-1007.02"/>
<polygon fill="black" stroke="black" points="1184.51,-1004.58 1175.4,-999.17 1179.16,-1009.08 1184.51,-1004.58"/>
</g>
<!-- 263 -->
<g id="node50" class="node">
<title>263</title>
<ellipse fill="none" stroke="black" cx="1081.3" cy="-1285.24" rx="28.7" ry="18"/>
<text text-anchor="middle" x="1081.3" y="-1281.54" font-family="Times,serif" font-size="14.00">263</text>
</g>
<!-- 263&#45;&gt;163 -->
<g id="edge60" class="edge">
<title>263&#45;&gt;163</title>
<path fill="none" stroke="black" d="M1064.3,-1270.64C1060.3,-1266.84 1056.2,-1262.54 1052.7,-1258.24 1043.5,-1247.14 1043.3,-1242.84 1034.7,-1231.24 1010.8,-1198.94 993.87,-1197.94 977.53,-1161.24 956.14,-1113.24 999.46,-1078.54 959.53,-1044.24 938.27,-1026.04 906.07,-1038.94 883.38,-1052.44"/>
<polygon fill="black" stroke="black" points="881.53,-1049.48 874.9,-1057.74 885.24,-1055.41 881.53,-1049.48"/>
</g>
<!-- 263&#45;&gt;183 -->
<g id="edge61" class="edge">
<title>263&#45;&gt;183</title>
<path fill="none" stroke="black" d="M1062.7,-1271.24C1058.9,-1267.44 1055.3,-1263.04 1052.7,-1258.24 1032.9,-1221.64 1052.9,-1203.74 1034.7,-1166.24 1033.2,-1163.04 1031.2,-1159.94 1029.1,-1156.94"/>
<polygon fill="black" stroke="black" points="1031.71,-1154.61 1022.7,-1149.04 1026.28,-1159.02 1031.71,-1154.61"/>
</g>
<!-- 265 -->
<g id="node51" class="node">
<title>265</title>
<ellipse fill="none" stroke="black" cx="1252.5" cy="-1093.24" rx="28.7" ry="18"/>
<text text-anchor="middle" x="1252.5" y="-1089.54" font-family="Times,serif" font-size="14.00">265</text>
</g>
<!-- 265&#45;&gt;180 -->
<g id="edge62" class="edge">
<title>265&#45;&gt;180</title>
<path fill="none" stroke="black" d="M1226.7,-1101.24C1217.7,-1105.44 1208.5,-1111.64 1203.1,-1120.24 1179.7,-1158.24 1217.4,-1490.44 1185.1,-1521.24 1166.7,-1538.84 1146.5,-1538.64 1127.9,-1521.24 1106.5,-1501.24 1122.2,-1284.84 1109.9,-1258.24 1109.1,-1256.44 1108.1,-1254.64 1106.9,-1252.94"/>
<polygon fill="black" stroke="black" points="1109.43,-1250.52 1100.3,-1245.14 1104.09,-1255.04 1109.43,-1250.52"/>
</g>
<!-- 265&#45;&gt;215 -->
<g id="edge63" class="edge">
<title>265&#45;&gt;215</title>
<path fill="none" stroke="black" d="M1230.2,-1104.94C1221.8,-1109.64 1212,-1115.14 1203.1,-1120.24 1197.8,-1123.34 1192.2,-1126.64 1186.7,-1129.84"/>
<polygon fill="black" stroke="black" points="1184.73,-1126.94 1177.9,-1135.04 1188.29,-1132.97 1184.73,-1126.94"/>
</g>
<!-- 265&#45;&gt;222 -->
<g id="edge64" class="edge">
<title>265&#45;&gt;222</title>
<path fill="none" stroke="black" d="M1227.3,-1084.14C1218.7,-1079.84 1209.5,-1073.94 1203.1,-1066.24 1187,-1046.84 1198.5,-1033.74 1185.1,-1012.24 1184.1,-1010.54 1182.9,-1008.94 1181.6,-1007.26"/>
<polygon fill="black" stroke="black" points="1183.98,-1004.68 1174.7,-999.56 1178.77,-1009.35 1183.98,-1004.68"/>
</g>
<!-- 270 -->
<g id="node52" class="node">
<title>270</title>
<ellipse fill="none" stroke="black" cx="1252.5" cy="-1039.24" rx="28.7" ry="18"/>
<text text-anchor="middle" x="1252.5" y="-1035.54" font-family="Times,serif" font-size="14.00">270</text>
</g>
<!-- 270&#45;&gt;180 -->
<g id="edge65" class="edge">
<title>270&#45;&gt;180</title>
<path fill="none" stroke="black" d="M1226.7,-1047.24C1217.7,-1051.44 1208.5,-1057.64 1203.1,-1066.24 1178.8,-1105.74 1218.6,-1451.24 1185.1,-1483.24 1166.8,-1500.84 1146.6,-1500.54 1127.9,-1483.24 1091.1,-1449.24 1131.2,-1303.74 1109.9,-1258.24 1109.1,-1256.44 1108,-1254.64 1106.9,-1252.94"/>
<polygon fill="black" stroke="black" points="1109.43,-1250.52 1100.3,-1245.14 1104.09,-1255.04 1109.43,-1250.52"/>
</g>
<!-- 270&#45;&gt;220 -->
<g id="edge66" class="edge">
<title>270&#45;&gt;220</title>
<path fill="none" stroke="black" d="M1223.8,-1039.24C1214.9,-1039.24 1204.9,-1039.24 1195.4,-1039.24"/>
<polygon fill="black" stroke="black" points="1195.3,-1035.74 1185.3,-1039.24 1195.3,-1042.74 1195.3,-1035.74"/>
</g>
<!-- 270&#45;&gt;222 -->
<g id="edge67" class="edge">
<title>270&#45;&gt;222</title>
<path fill="none" stroke="black" d="M1230.2,-1027.54C1221.8,-1022.84 1212,-1017.34 1203.1,-1012.24 1197.8,-1009.24 1192.2,-1005.92 1186.7,-1002.72"/>
<polygon fill="black" stroke="black" points="1188.28,-999.59 1177.9,-997.48 1184.7,-1005.61 1188.28,-999.59"/>
</g>
<!-- 275 -->
<g id="node53" class="node">
<title>275</title>
<ellipse fill="none" stroke="black" cx="1252.5" cy="-985.27" rx="28.7" ry="18"/>
<text text-anchor="middle" x="1252.5" y="-981.57" font-family="Times,serif" font-size="14.00">275</text>
</g>
<!-- 275&#45;&gt;180 -->
<g id="edge68" class="edge">
<title>275&#45;&gt;180</title>
<path fill="none" stroke="black" d="M1226.6,-993.27C1217.7,-997.47 1208.5,-1003.59 1203.1,-1012.24 1177.9,-1053.24 1219.9,-1411.94 1185.1,-1445.24 1166.8,-1462.84 1146.7,-1462.34 1127.9,-1445.24 1097,-1417.24 1127.9,-1295.94 1109.9,-1258.24 1109.1,-1256.44 1108,-1254.74 1106.8,-1253.04"/>
<polygon fill="black" stroke="black" points="1109.3,-1250.58 1100.2,-1245.14 1103.93,-1255.06 1109.3,-1250.58"/>
</g>
<!-- 275&#45;&gt;222 -->
<g id="edge69" class="edge">
<title>275&#45;&gt;222</title>
<path fill="none" stroke="black" d="M1223.8,-985.27C1214.9,-985.27 1204.9,-985.27 1195.4,-985.27"/>
<polygon fill="black" stroke="black" points="1195.3,-981.77 1185.3,-985.27 1195.3,-988.77 1195.3,-981.77"/>
</g>
<!-- 275&#45;&gt;225 -->
<g id="edge70" class="edge">
<title>275&#45;&gt;225</title>
<path fill="none" stroke="black" d="M1228.4,-975.13C1219.5,-970.23 1209.8,-963.59 1203.1,-955.27 1188,-936.55 1193.8,-926.68 1185.1,-904.27 1180.2,-891.5 1174.3,-877.5 1169.2,-865.77"/>
<polygon fill="black" stroke="black" points="1172.39,-864.32 1165.2,-856.53 1165.96,-867.1 1172.39,-864.32"/>
</g>
<!-- 275&#45;&gt;235 -->
<g id="edge71" class="edge">
<title>275&#45;&gt;235</title>
<path fill="none" stroke="black" d="M1227.7,-976.25C1218.4,-971.48 1208.7,-964.62 1203.1,-955.27 1166,-892.68 1215.2,-694.55 1185.1,-628.27 1184.3,-626.44 1183.3,-624.67 1182.1,-622.96"/>
<polygon fill="black" stroke="black" points="1184.66,-620.57 1175.6,-615.08 1179.26,-625.03 1184.66,-620.57"/>
</g>
<!-- 280 -->
<g id="node54" class="node">
<title>280</title>
<ellipse fill="none" stroke="black" cx="1252.5" cy="-928.27" rx="28.7" ry="18"/>
<text text-anchor="middle" x="1252.5" y="-924.57" font-family="Times,serif" font-size="14.00">280</text>
</g>
<!-- 280&#45;&gt;180 -->
<g id="edge72" class="edge">
<title>280&#45;&gt;180</title>
<path fill="none" stroke="black" d="M1227.6,-937.25C1218.3,-942.02 1208.6,-948.88 1203.1,-958.27 1178,-1001.4 1221.1,-1372.64 1185.1,-1407.24 1166.8,-1424.84 1146.9,-1424.14 1127.9,-1407.24 1103,-1385.14 1124.7,-1288.14 1109.9,-1258.24 1109,-1256.44 1108,-1254.74 1106.8,-1253.04"/>
<polygon fill="black" stroke="black" points="1109.33,-1250.62 1100.2,-1245.24 1103.99,-1255.14 1109.33,-1250.62"/>
</g>
<!-- 280&#45;&gt;222 -->
<g id="edge73" class="edge">
<title>280&#45;&gt;222</title>
<path fill="none" stroke="black" d="M1231.1,-940.64C1218.1,-948.56 1200.9,-958.95 1186.5,-967.72"/>
<polygon fill="black" stroke="black" points="1184.64,-964.76 1177.9,-972.93 1188.27,-970.75 1184.64,-964.76"/>
</g>
<!-- 280&#45;&gt;230 -->
<g id="edge74" class="edge">
<title>280&#45;&gt;230</title>
<path fill="none" stroke="black" d="M1227,-920.03C1218.1,-915.81 1208.8,-909.73 1203.1,-901.27 1185.2,-874.72 1191.3,-789.7 1185.1,-758.27 1180,-732.32 1172,-703.25 1165.9,-682.63"/>
<polygon fill="black" stroke="black" points="1169.24,-681.6 1163.1,-672.96 1162.52,-683.54 1169.24,-681.6"/>
</g>
<!-- 282 -->
<g id="node55" class="node">
<title>282</title>
<ellipse fill="none" stroke="black" cx="1252.5" cy="-372.27" rx="28.7" ry="18"/>
<text text-anchor="middle" x="1252.5" y="-368.57" font-family="Times,serif" font-size="14.00">282</text>
</g>
<!-- 282&#45;&gt;180 -->
<g id="edge75" class="edge">
<title>282&#45;&gt;180</title>
<path fill="none" stroke="black" d="M1226.5,-380.21C1217.6,-384.39 1208.4,-390.53 1203.1,-399.27 1175.3,-445.73 1223.8,-1336.34 1185.1,-1374.24 1167,-1392.04 1147.2,-1390.84 1127.9,-1374.24 1088.3,-1340.34 1133.8,-1304.64 1109.9,-1258.24 1109,-1256.44 1107.9,-1254.74 1106.7,-1253.04"/>
<polygon fill="black" stroke="black" points="1109.17,-1250.55 1100,-1245.24 1103.86,-1255.11 1109.17,-1250.55"/>
</g>
<!-- 282&#45;&gt;230 -->
<g id="edge76" class="edge">
<title>282&#45;&gt;230</title>
<path fill="none" stroke="black" d="M1226.8,-380.38C1217.9,-384.58 1208.6,-390.69 1203.1,-399.27 1175.6,-442.24 1206.7,-582.03 1185.1,-628.27 1184.3,-630.09 1183.2,-631.86 1182.1,-633.56"/>
<polygon fill="black" stroke="black" points="1179.25,-631.52 1175.5,-641.42 1184.61,-636.02 1179.25,-631.52"/>
</g>
<!-- 283 -->
<g id="node56" class="node">
<title>283</title>
<ellipse fill="none" stroke="black" cx="1156.5" cy="-1347.24" rx="28.7" ry="18"/>
<text text-anchor="middle" x="1156.5" y="-1343.54" font-family="Times,serif" font-size="14.00">283</text>
</g>
<!-- 283&#45;&gt;180 -->
<g id="edge77" class="edge">
<title>283&#45;&gt;180</title>
<path fill="none" stroke="black" d="M1140.4,-1332.24C1135.9,-1327.24 1131.3,-1321.34 1127.9,-1315.24 1115,-1292.04 1123.8,-1280.94 1109.9,-1258.24 1108.9,-1256.54 1107.7,-1254.84 1106.4,-1253.24"/>
<polygon fill="black" stroke="black" points="1108.78,-1250.66 1099.5,-1245.54 1103.57,-1255.33 1108.78,-1250.66"/>
</g>
<!-- 283&#45;&gt;183 -->
<g id="edge78" class="edge">
<title>283&#45;&gt;183</title>
<path fill="none" stroke="black" d="M1139.9,-1332.54C1135.3,-1327.54 1130.8,-1321.54 1127.9,-1315.24 1106.8,-1269.94 1136.8,-1246.44 1109.9,-1204.24 1105.2,-1196.84 1064.3,-1170.14 1035.6,-1152.04"/>
<polygon fill="black" stroke="black" points="1037.42,-1149.05 1027.1,-1146.64 1033.66,-1154.96 1037.42,-1149.05"/>
</g>
<!-- 284 -->
<g id="node57" class="node">
<title>284</title>
<ellipse fill="none" stroke="black" cx="1156.5" cy="-931.27" rx="28.7" ry="18"/>
<text text-anchor="middle" x="1156.5" y="-927.57" font-family="Times,serif" font-size="14.00">284</text>
</g>
<!-- 284&#45;&gt;180 -->
<g id="edge79" class="edge">
<title>284&#45;&gt;180</title>
<path fill="none" stroke="black" d="M1137.6,-945.14C1133.8,-948.97 1130.2,-953.43 1127.9,-958.27 1089.1,-1040.14 1130.7,-1073.14 1109.9,-1161.24 1106.4,-1176.14 1100.3,-1192.04 1094.8,-1204.94"/>
<polygon fill="black" stroke="black" points="1091.57,-1203.59 1090.7,-1214.14 1097.97,-1206.44 1091.57,-1203.59"/>
</g>
<!-- 284&#45;&gt;183 -->
<g id="edge80" class="edge">
<title>284&#45;&gt;183</title>
<path fill="none" stroke="black" d="M1139.5,-945.9C1135.6,-949.78 1131.5,-954.06 1127.9,-958.27 1126.5,-960 1056.9,-1061.54 1024,-1109.64"/>
<polygon fill="black" stroke="black" points="1021.08,-1107.72 1018.3,-1117.94 1026.85,-1111.68 1021.08,-1107.72"/>
</g>
<!-- 285 -->
<g id="node58" class="node">
<title>285</title>
<ellipse fill="none" stroke="black" cx="1252.5" cy="-874.27" rx="28.7" ry="18"/>
<text text-anchor="middle" x="1252.5" y="-870.57" font-family="Times,serif" font-size="14.00">285</text>
</g>
<!-- 285&#45;&gt;180 -->
<g id="edge81" class="edge">
<title>285&#45;&gt;180</title>
<path fill="none" stroke="black" d="M1223.9,-872.39C1195.2,-872.1 1151.2,-876.69 1127.9,-904.27 1109.5,-926.14 1116.2,-1133.34 1109.9,-1161.24 1106.5,-1176.24 1100.5,-1192.14 1094.9,-1205.04"/>
<polygon fill="black" stroke="black" points="1091.67,-1203.69 1090.8,-1214.24 1098.07,-1206.54 1091.67,-1203.69"/>
</g>
<!-- 285&#45;&gt;222 -->
<g id="edge82" class="edge">
<title>285&#45;&gt;222</title>
<path fill="none" stroke="black" d="M1227.3,-883.32C1218.6,-887.61 1209.4,-893.52 1203.1,-901.27 1186.3,-921.86 1199,-935.64 1185.1,-958.27 1184.1,-959.99 1182.9,-961.67 1181.6,-963.3"/>
<polygon fill="black" stroke="black" points="1178.76,-961.23 1174.7,-971.01 1183.98,-965.9 1178.76,-961.23"/>
</g>
<!-- 285&#45;&gt;225 -->
<g id="edge83" class="edge">
<title>285&#45;&gt;225</title>
<path fill="none" stroke="black" d="M1227.3,-865.26C1216.3,-861.18 1203.2,-856.28 1191.3,-851.84"/>
<polygon fill="black" stroke="black" points="1192.19,-848.44 1181.6,-848.25 1189.76,-855.01 1192.19,-848.44"/>
</g>
<!-- 285&#45;&gt;235 -->
<g id="edge84" class="edge">
<title>285&#45;&gt;235</title>
<path fill="none" stroke="black" d="M1229.5,-863.42C1219.7,-857.41 1209.1,-848.97 1203.1,-838.27 1157.5,-756.44 1225.1,-712.99 1185.1,-628.27 1184.3,-626.45 1183.2,-624.69 1182.1,-622.99"/>
<polygon fill="black" stroke="black" points="1184.61,-620.54 1175.5,-615.13 1179.25,-625.04 1184.61,-620.54"/>
</g>
<!-- 288 -->
<g id="node59" class="node">
<title>288</title>
<ellipse fill="none" stroke="black" cx="1156.5" cy="-785.27" rx="28.7" ry="18"/>
<text text-anchor="middle" x="1156.5" y="-781.57" font-family="Times,serif" font-size="14.00">288</text>
</g>
<!-- 288&#45;&gt;180 -->
<g id="edge85" class="edge">
<title>288&#45;&gt;180</title>
<path fill="none" stroke="black" d="M1137.5,-799.08C1133.7,-802.91 1130.1,-807.38 1127.9,-812.27 1096,-883.06 1126.4,-1085.34 1109.9,-1161.24 1106.7,-1176.24 1100.6,-1192.14 1095,-1205.04"/>
<polygon fill="black" stroke="black" points="1091.77,-1203.69 1090.9,-1214.24 1098.17,-1206.54 1091.77,-1203.69"/>
</g>
<!-- 288&#45;&gt;233 -->
<g id="edge86" class="edge">
<title>288&#45;&gt;233</title>
<path fill="none" stroke="black" d="M1137.4,-799.06C1133.6,-802.89 1130.1,-807.37 1127.9,-812.27 1083,-913.97 1154.9,-1210.54 1109.9,-1312.24 1109.1,-1314.14 1108.1,-1315.94 1107,-1317.64"/>
<polygon fill="black" stroke="black" points="1104.19,-1315.55 1100.4,-1325.44 1109.53,-1320.07 1104.19,-1315.55"/>
</g>
<!-- 290 -->
<g id="node60" class="node">
<title>290</title>
<ellipse fill="none" stroke="black" cx="1252.5" cy="-811.27" rx="28.7" ry="18"/>
<text text-anchor="middle" x="1252.5" y="-807.57" font-family="Times,serif" font-size="14.00">290</text>
</g>
<!-- 290&#45;&gt;180 -->
<g id="edge87" class="edge">
<title>290&#45;&gt;180</title>
<path fill="none" stroke="black" d="M1237.1,-796.01C1212,-771.2 1159.8,-727.78 1127.9,-758.27 1095.5,-789.25 1119.3,-1117.44 1109.9,-1161.24 1106.7,-1176.24 1100.7,-1192.14 1095.1,-1205.04"/>
<polygon fill="black" stroke="black" points="1091.87,-1203.69 1090.9,-1214.24 1098.24,-1206.6 1091.87,-1203.69"/>
</g>
<!-- 290&#45;&gt;222 -->
<g id="edge88" class="edge">
<title>290&#45;&gt;222</title>
<path fill="none" stroke="black" d="M1229.6,-822.48C1220,-828.53 1209.4,-836.89 1203.1,-847.27 1177.2,-889.98 1208.1,-913.91 1185.1,-958.27 1184.2,-960.06 1183.1,-961.79 1181.9,-963.47"/>
<polygon fill="black" stroke="black" points="1179.06,-961.42 1175.2,-971.28 1184.37,-965.97 1179.06,-961.42"/>
</g>
<!-- 290&#45;&gt;240 -->
<g id="edge89" class="edge">
<title>290&#45;&gt;240</title>
<path fill="none" stroke="black" d="M1231.7,-798.28C1221.3,-790.34 1209.5,-779.24 1203.1,-766.27 1165.3,-689.38 1222,-651.64 1185.1,-574.27 1184.3,-572.46 1183.2,-570.7 1182,-569"/>
<polygon fill="black" stroke="black" points="1184.51,-566.56 1175.4,-561.15 1179.16,-571.06 1184.51,-566.56"/>
</g>
<!-- 290&#45;&gt;284 -->
<g id="edge90" class="edge">
<title>290&#45;&gt;284</title>
<path fill="none" stroke="black" d="M1231.1,-823.56C1221.8,-829.84 1211.1,-838.09 1203.1,-847.27 1188.4,-864.25 1176.5,-886.77 1168.5,-904.22"/>
<polygon fill="black" stroke="black" points="1165.1,-903.27 1164.3,-913.83 1171.51,-906.07 1165.1,-903.27"/>
</g>
<!-- 295 -->
<g id="node61" class="node">
<title>295</title>
<ellipse fill="none" stroke="black" cx="1252.5" cy="-739.27" rx="28.7" ry="18"/>
<text text-anchor="middle" x="1252.5" y="-735.57" font-family="Times,serif" font-size="14.00">295</text>
</g>
<!-- 295&#45;&gt;180 -->
<g id="edge91" class="edge">
<title>295&#45;&gt;180</title>
<path fill="none" stroke="black" d="M1226.6,-731.31C1198.5,-724.07 1153.5,-717.98 1127.9,-743.27 1094.9,-775.97 1119.6,-1115.84 1109.9,-1161.24 1106.7,-1176.24 1100.7,-1192.14 1095.1,-1205.04"/>
<polygon fill="black" stroke="black" points="1091.87,-1203.69 1090.9,-1214.24 1098.24,-1206.6 1091.87,-1203.69"/>
</g>
<!-- 295&#45;&gt;222 -->
<g id="edge92" class="edge">
<title>295&#45;&gt;222</title>
<path fill="none" stroke="black" d="M1231.7,-752.29C1221.4,-760.23 1209.6,-771.33 1203.1,-784.27 1168.4,-853.85 1218.9,-888.26 1185.1,-958.27 1184.2,-960.08 1183.2,-961.84 1182,-963.53"/>
<polygon fill="black" stroke="black" points="1179.16,-961.48 1175.4,-971.38 1184.51,-965.98 1179.16,-961.48"/>
</g>
<!-- 295&#45;&gt;245 -->
<g id="edge93" class="edge">
<title>295&#45;&gt;245</title>
<path fill="none" stroke="black" d="M1232.7,-726.28C1222.1,-717.87 1209.8,-705.97 1203.1,-692.27 1169.5,-623.13 1218.6,-589.47 1185.1,-520.27 1184.2,-518.46 1183.2,-516.7 1182,-515.01"/>
<polygon fill="black" stroke="black" points="1184.51,-512.57 1175.4,-507.16 1179.16,-517.07 1184.51,-512.57"/>
</g>
<!-- 299 -->
<g id="node62" class="node">
<title>299</title>
<ellipse fill="none" stroke="black" cx="1252.5" cy="-632.27" rx="28.7" ry="18"/>
<text text-anchor="middle" x="1252.5" y="-628.57" font-family="Times,serif" font-size="14.00">299</text>
</g>
<!-- 299&#45;&gt;222 -->
<g id="edge94" class="edge">
<title>299&#45;&gt;222</title>
<path fill="none" stroke="black" d="M1238.6,-648.31C1227.1,-663.72 1210.8,-688.15 1203.1,-712.27 1169.8,-816.72 1231.3,-858.84 1185.1,-958.27 1184.3,-960.1 1183.2,-961.86 1182.1,-963.56"/>
<polygon fill="black" stroke="black" points="1179.24,-961.52 1175.5,-971.43 1184.61,-966.02 1179.24,-961.52"/>
</g>
<!-- 299&#45;&gt;288 -->
<g id="edge95" class="edge">
<title>299&#45;&gt;288</title>
<path fill="none" stroke="black" d="M1241.3,-648.94C1224.8,-675.72 1192.4,-728.53 1173.1,-759.98"/>
<polygon fill="black" stroke="black" points="1170.03,-758.3 1167.7,-768.63 1175.97,-762.01 1170.03,-758.3"/>
</g>
<!-- 300 -->
<g id="node63" class="node">
<title>300</title>
<ellipse fill="none" stroke="black" cx="1391.4" cy="-708.27" rx="28.7" ry="18"/>
<text text-anchor="middle" x="1391.4" y="-704.57" font-family="Times,serif" font-size="14.00">300</text>
</g>
<!-- 300&#45;&gt;200 -->
<g id="edge96" class="edge">
<title>300&#45;&gt;200</title>
<path fill="none" stroke="black" d="M1362.8,-710.04C1321.1,-711.02 1242.8,-706.03 1203.1,-659.27 1175.2,-626.44 1212.1,-499.85 1185.1,-466.27 1151.4,-424.28 1086.5,-412.78 1045.1,-409.88"/>
<polygon fill="black" stroke="black" points="1045.08,-406.38 1034.9,-409.31 1044.69,-413.37 1045.08,-406.38"/>
</g>
<!-- 300&#45;&gt;299 -->
<g id="edge97" class="edge">
<title>300&#45;&gt;299</title>
<path fill="none" stroke="black" d="M1366.8,-698.68C1352.8,-692.75 1335.1,-684.69 1319.9,-676.27 1311.5,-671.6 1309.9,-669.59 1301.9,-664.27 1295.3,-659.91 1288.2,-655.21 1281.6,-650.8"/>
<polygon fill="black" stroke="black" points="1283.08,-647.59 1272.8,-645.02 1279.24,-653.44 1283.08,-647.59"/>
</g>
<!-- 301 -->
<g id="node64" class="node">
<title>301</title>
<ellipse fill="none" stroke="black" cx="1509.5" cy="-854.27" rx="28.7" ry="18"/>
<text text-anchor="middle" x="1509.5" y="-850.57" font-family="Times,serif" font-size="14.00">301</text>
</g>
<!-- 301&#45;&gt;195 -->
<g id="edge98" class="edge">
<title>301&#45;&gt;195</title>
<path fill="none" stroke="black" d="M1496.3,-838.13C1490.6,-829.69 1484.3,-818.92 1480.9,-808.27 1465.1,-758.8 1492.4,-618 1462.9,-575.27 1390.4,-470.32 1286,-550.24 1203.1,-453.27 1184.5,-431.46 1201.5,-414.8 1185.1,-391.27 1128.9,-310.73 1105.4,-260.27 1007.1,-260.27 1007.1,-260.27 1007.1,-260.27 929.94,-260.27 873.12,-260.27 823.87,-207.59 798.93,-175.14"/>
<polygon fill="black" stroke="black" points="801.63,-172.91 792.84,-166.98 796.02,-177.09 801.63,-172.91"/>
</g>
<!-- 301&#45;&gt;200 -->
<g id="edge99" class="edge">
<title>301&#45;&gt;200</title>
<path fill="none" stroke="black" d="M1496.4,-838.09C1490.7,-829.64 1484.4,-818.87 1480.9,-808.27 1468.8,-772.25 1485.3,-668.94 1462.9,-638.27 1388.5,-536.49 1281.1,-623.35 1203.1,-524.27 1174.9,-488.44 1216.6,-456.25 1185.1,-423.27 1149,-385.43 1083.1,-391.41 1042.4,-399.87"/>
<polygon fill="black" stroke="black" points="1041.39,-396.51 1032.4,-402.11 1042.92,-403.34 1041.39,-396.51"/>
</g>
<!-- 301&#45;&gt;255 -->
<g id="edge100" class="edge">
<title>301&#45;&gt;255</title>
<path fill="none" stroke="black" d="M1506.3,-872.24C1501.6,-911.09 1490.1,-1005.83 1480.9,-1085.24 1476.8,-1121.04 1486.9,-1219.44 1462.9,-1246.24 1419.7,-1294.54 1338.6,-1298.94 1291,-1296.74"/>
<polygon fill="black" stroke="black" points="1290.99,-1293.24 1280.8,-1296.14 1290.58,-1300.23 1290.99,-1293.24"/>
</g>
<!-- 301&#45;&gt;260 -->
<g id="edge101" class="edge">
<title>301&#45;&gt;260</title>
<path fill="none" stroke="black" d="M1506.3,-872.45C1497.7,-945.14 1466,-1211.24 1462.9,-1214.24 1417.5,-1259.34 1336.5,-1254.54 1289.7,-1246.94"/>
<polygon fill="black" stroke="black" points="1290.06,-1243.45 1279.6,-1245.14 1288.83,-1250.35 1290.06,-1243.45"/>
</g>
<!-- 301&#45;&gt;265 -->
<g id="edge102" class="edge">
<title>301&#45;&gt;265</title>
<path fill="none" stroke="black" d="M1506.3,-872.22C1498.1,-940.44 1468.9,-1180.04 1462.9,-1185.24 1415,-1227.04 1370.5,-1223.74 1319.9,-1185.24 1296.1,-1167.14 1320.4,-1143.84 1301.9,-1120.24 1297.9,-1115.14 1292.5,-1110.74 1286.9,-1107.24"/>
<polygon fill="black" stroke="black" points="1288.34,-1104.04 1277.9,-1102.24 1284.94,-1110.16 1288.34,-1104.04"/>
</g>
<!-- 301&#45;&gt;270 -->
<g id="edge103" class="edge">
<title>301&#45;&gt;270</title>
<path fill="none" stroke="black" d="M1504.6,-872.17C1499,-894.23 1486.6,-931.56 1462.9,-954.27 1414.2,-1001 1336.3,-1023.34 1290.5,-1032.94"/>
<polygon fill="black" stroke="black" points="1289.62,-1029.55 1280.5,-1034.94 1290.99,-1036.42 1289.62,-1029.55"/>
</g>
<!-- 301&#45;&gt;275 -->
<g id="edge104" class="edge">
<title>301&#45;&gt;275</title>
<path fill="none" stroke="black" d="M1498.7,-871.12C1490.5,-883.75 1477.9,-900.63 1462.9,-911.27 1409.5,-949.22 1334.8,-969.39 1290.5,-978.67"/>
<polygon fill="black" stroke="black" points="1289.61,-975.28 1280.5,-980.69 1291,-982.15 1289.61,-975.28"/>
</g>
<!-- 301&#45;&gt;280 -->
<g id="edge105" class="edge">
<title>301&#45;&gt;280</title>
<path fill="none" stroke="black" d="M1488.6,-866.7C1480.8,-871.16 1471.7,-875.91 1462.9,-879.27 1404.6,-901.6 1333.1,-915.66 1290.6,-922.73"/>
<polygon fill="black" stroke="black" points="1289.92,-919.3 1280.6,-924.34 1291.03,-926.21 1289.92,-919.3"/>
</g>
<!-- 301&#45;&gt;285 -->
<g id="edge106" class="edge">
<title>301&#45;&gt;285</title>
<path fill="none" stroke="black" d="M1481.5,-858.11C1475.4,-858.9 1468.9,-859.67 1462.9,-860.27 1403.1,-866.2 1333.4,-870.3 1291.4,-872.47"/>
<polygon fill="black" stroke="black" points="1291.11,-868.98 1281.3,-872.98 1291.46,-875.98 1291.11,-868.98"/>
</g>
<!-- 301&#45;&gt;290 -->
<g id="edge107" class="edge">
<title>301&#45;&gt;290</title>
<path fill="none" stroke="black" d="M1481.7,-849.75C1435.9,-842.03 1342.4,-826.27 1290.5,-817.5"/>
<polygon fill="black" stroke="black" points="1290.74,-814 1280.3,-815.8 1289.59,-820.9 1290.74,-814"/>
</g>
<!-- 301&#45;&gt;295 -->
<g id="edge108" class="edge">
<title>301&#45;&gt;295</title>
<path fill="none" stroke="black" d="M1491.7,-840.13C1483.5,-833.84 1473.1,-826.84 1462.9,-822.27 1403.3,-795.72 1379,-816.82 1319.9,-789.27 1304.4,-782.04 1289,-770.78 1276.9,-760.77"/>
<polygon fill="black" stroke="black" points="1279.05,-758.01 1269.2,-754.1 1274.47,-763.3 1279.05,-758.01"/>
</g>
<!-- 301&#45;&gt;299 -->
<g id="edge109" class="edge">
<title>301&#45;&gt;299</title>
<path fill="none" stroke="black" d="M1496.6,-838.04C1490.9,-829.57 1484.6,-818.81 1480.9,-808.27 1461.9,-754.54 1501.4,-723.34 1462.9,-681.27 1440.1,-656.35 1344.9,-642.18 1291.1,-636.01"/>
<polygon fill="black" stroke="black" points="1291.23,-632.51 1280.9,-634.88 1290.45,-639.46 1291.23,-632.51"/>
</g>
<!-- 301&#45;&gt;300 -->
<g id="edge110" class="edge">
<title>301&#45;&gt;300</title>
<path fill="none" stroke="black" d="M1497,-837.87C1491.5,-829.36 1485.2,-818.6 1480.9,-808.27 1468.2,-777.38 1485,-760.32 1462.9,-735.27 1454.1,-725.35 1441.3,-719.05 1429,-715.07"/>
<polygon fill="black" stroke="black" points="1429.87,-711.69 1419.3,-712.34 1427.98,-718.42 1429.87,-711.69"/>
</g>
<!-- 302 -->
<g id="node65" class="node">
<title>302</title>
<ellipse fill="none" stroke="black" cx="1391.4" cy="-156.27" rx="28.7" ry="18"/>
<text text-anchor="middle" x="1391.4" y="-152.57" font-family="Times,serif" font-size="14.00">302</text>
</g>
<!-- 302&#45;&gt;102 -->
<g id="edge111" class="edge">
<title>302&#45;&gt;102</title>
<path fill="none" stroke="black" d="M1366.1,-165.01C1352.4,-170.06 1335.1,-176.7 1319.9,-183.27 1214.7,-228.9 1093.3,-290.53 1037.8,-319.27"/>
<polygon fill="black" stroke="black" points="1036.08,-316.23 1028.8,-323.92 1039.29,-322.44 1036.08,-316.23"/>
</g>
<!-- 302&#45;&gt;290 -->
<g id="edge112" class="edge">
<title>302&#45;&gt;290</title>
<path fill="none" stroke="black" d="M1363.2,-159.36C1347.8,-162.64 1329.8,-169.39 1319.9,-183.27 1282.4,-236.1 1328.7,-707.26 1301.9,-766.27 1297.3,-776.4 1289.2,-785.32 1281,-792.48"/>
<polygon fill="black" stroke="black" points="1278.77,-789.79 1273.2,-798.8 1283.17,-795.23 1278.77,-789.79"/>
</g>
<!-- 303 -->
<g id="node66" class="node">
<title>303</title>
<ellipse fill="none" stroke="black" cx="1509.5" cy="-727.27" rx="28.7" ry="18"/>
<text text-anchor="middle" x="1509.5" y="-723.57" font-family="Times,serif" font-size="14.00">303</text>
</g>
<!-- 303&#45;&gt;185 -->
<g id="edge113" class="edge">
<title>303&#45;&gt;185</title>
<path fill="none" stroke="black" d="M1491.6,-741.73C1487.8,-745.55 1483.9,-749.85 1480.9,-754.27 1468,-773.07 1328.8,-1110.34 1319.9,-1131.24 1311.8,-1150.34 1316.8,-1159.84 1301.9,-1174.24 1268.2,-1207.04 1234.4,-1177.14 1203.1,-1212.24 1181.8,-1236.24 1210.5,-1262.54 1185.1,-1282.24 1165,-1297.84 1146.8,-1299.34 1127.9,-1282.24 1098.9,-1256.04 1115.5,-1145.94 1109.9,-1107.24 1103.8,-1064.54 1094.3,-1015.44 1088.2,-985.37"/>
<polygon fill="black" stroke="black" points="1091.55,-984.3 1086.1,-975.21 1084.7,-985.72 1091.55,-984.3"/>
</g>
<!-- 303&#45;&gt;190 -->
<g id="edge114" class="edge">
<title>303&#45;&gt;190</title>
<path fill="none" stroke="black" d="M1509.1,-709.04C1509.3,-674.03 1504.6,-597 1462.9,-553.27 1373.6,-459.66 1313,-485.83 1185.1,-466.27 1160,-462.43 1147.3,-449.84 1127.9,-466.27 1109.4,-482 1114.5,-550.38 1109.9,-574.27 1103.4,-607.87 1094.8,-646.28 1088.9,-671.56"/>
<polygon fill="black" stroke="black" points="1085.44,-670.99 1086.5,-681.53 1092.24,-672.63 1085.44,-670.99"/>
</g>
<!-- 303&#45;&gt;288 -->
<g id="edge115" class="edge">
<title>303&#45;&gt;288</title>
<path fill="none" stroke="black" d="M1506.8,-709.11C1503.4,-683.66 1493.1,-638.08 1462.9,-616.27 1369.2,-548.69 1293.7,-533.46 1203.1,-605.27 1175.6,-627.11 1193.7,-648.18 1185.1,-682.27 1178.7,-707.93 1170.8,-737.02 1165.2,-757.73"/>
<polygon fill="black" stroke="black" points="1161.8,-756.88 1162.5,-767.45 1168.55,-758.76 1161.8,-756.88"/>
</g>
<!-- 303&#45;&gt;299 -->
<g id="edge116" class="edge">
<title>303&#45;&gt;299</title>
<path fill="none" stroke="black" d="M1503.6,-709.36C1497.4,-690.64 1484.9,-662.11 1462.9,-648.27 1410.2,-615.1 1334.6,-619.07 1290.1,-625.39"/>
<polygon fill="black" stroke="black" points="1289.45,-621.95 1280.1,-626.93 1290.52,-628.87 1289.45,-621.95"/>
</g>
<!-- 303&#45;&gt;300 -->
<g id="edge117" class="edge">
<title>303&#45;&gt;300</title>
<path fill="none" stroke="black" d="M1481.6,-722.87C1466,-720.32 1446.3,-717.09 1429.3,-714.31"/>
<polygon fill="black" stroke="black" points="1429.64,-710.82 1419.2,-712.65 1428.5,-717.73 1429.64,-710.82"/>
</g>
<!-- 304 -->
<g id="node67" class="node">
<title>304</title>
<ellipse fill="none" stroke="black" cx="1584.7" cy="-854.27" rx="28.7" ry="18"/>
<text text-anchor="middle" x="1584.7" y="-850.57" font-family="Times,serif" font-size="14.00">304</text>
</g>
<!-- 304&#45;&gt;301 -->
<g id="edge118" class="edge">
<title>304&#45;&gt;301</title>
<path fill="none" stroke="black" d="M1556,-854.27C1553.5,-854.27 1550.9,-854.27 1548.2,-854.27"/>
<polygon fill="black" stroke="black" points="1548.2,-850.77 1538.2,-854.27 1548.2,-857.77 1548.2,-850.77"/>
</g>
<!-- 314 -->
<g id="node68" class="node">
<title>314</title>
<ellipse fill="none" stroke="black" cx="1391.4" cy="-1158.24" rx="28.7" ry="18"/>
<text text-anchor="middle" x="1391.4" y="-1154.54" font-family="Times,serif" font-size="14.00">314</text>
</g>
<!-- 314&#45;&gt;265 -->
<g id="edge119" class="edge">
<title>314&#45;&gt;265</title>
<path fill="none" stroke="black" d="M1367.5,-1148.14C1353.6,-1141.94 1335.7,-1133.74 1319.9,-1126.24 1308.2,-1120.74 1295.4,-1114.44 1284.2,-1108.84"/>
<polygon fill="black" stroke="black" points="1285.8,-1105.73 1275.3,-1104.34 1282.65,-1111.98 1285.8,-1105.73"/>
</g>
<!-- 315 -->
<g id="node69" class="node">
<title>315</title>
<ellipse fill="none" stroke="black" cx="1509.5" cy="-1112.24" rx="28.7" ry="18"/>
<text text-anchor="middle" x="1509.5" y="-1108.54" font-family="Times,serif" font-size="14.00">315</text>
</g>
<!-- 315&#45;&gt;265 -->
<g id="edge120" class="edge">
<title>315&#45;&gt;265</title>
<path fill="none" stroke="black" d="M1480.7,-1110.24C1434.8,-1106.74 1343.1,-1099.94 1291.4,-1096.14"/>
<polygon fill="black" stroke="black" points="1291.55,-1092.65 1281.3,-1095.34 1290.99,-1099.62 1291.55,-1092.65"/>
</g>
<!-- 315&#45;&gt;314 -->
<g id="edge121" class="edge">
<title>315&#45;&gt;314</title>
<path fill="none" stroke="black" d="M1485,-1121.54C1468,-1128.34 1444.7,-1137.54 1425.7,-1145.04"/>
<polygon fill="black" stroke="black" points="1424.26,-1141.85 1416.3,-1148.84 1426.88,-1148.34 1424.26,-1141.85"/>
</g>
<!-- 320 -->
<g id="node70" class="node">
<title>320</title>
<ellipse fill="none" stroke="black" cx="1391.4" cy="-426.27" rx="28.7" ry="18"/>
<text text-anchor="middle" x="1391.4" y="-422.57" font-family="Times,serif" font-size="14.00">320</text>
</g>
<!-- 320&#45;&gt;270 -->
<g id="edge122" class="edge">
<title>320&#45;&gt;270</title>
<path fill="none" stroke="black" d="M1384.1,-443.91C1369.8,-484.92 1334.8,-590.16 1319.9,-681.27 1314,-717.62 1321.4,-981.03 1301.9,-1012.24 1298.4,-1017.94 1293.2,-1022.54 1287.5,-1026.24"/>
<polygon fill="black" stroke="black" points="1285.42,-1023.39 1278.3,-1031.24 1288.76,-1029.54 1285.42,-1023.39"/>
</g>
<!-- 330 -->
<g id="node71" class="node">
<title>330</title>
<ellipse fill="none" stroke="black" cx="1252.5" cy="-318.27" rx="28.7" ry="18"/>
<text text-anchor="middle" x="1252.5" y="-314.57" font-family="Times,serif" font-size="14.00">330</text>
</g>
<!-- 330&#45;&gt;225 -->
<g id="edge123" class="edge">
<title>330&#45;&gt;225</title>
<path fill="none" stroke="black" d="M1226.6,-326.26C1217.7,-330.46 1208.5,-336.58 1203.1,-345.27 1176,-389.54 1206.2,-764.8 1185.1,-812.27 1184.3,-814.11 1183.3,-815.89 1182.2,-817.6"/>
<polygon fill="black" stroke="black" points="1179.33,-815.58 1175.6,-825.49 1184.7,-820.07 1179.33,-815.58"/>
</g>
<!-- 330&#45;&gt;235 -->
<g id="edge124" class="edge">
<title>330&#45;&gt;235</title>
<path fill="none" stroke="black" d="M1226.8,-326.38C1217.9,-330.58 1208.6,-336.69 1203.1,-345.27 1175.6,-388.24 1206.7,-528.03 1185.1,-574.27 1184.3,-576.09 1183.2,-577.86 1182.1,-579.56"/>
<polygon fill="black" stroke="black" points="1179.25,-577.52 1175.5,-587.42 1184.61,-582.02 1179.25,-577.52"/>
</g>
<!-- 333 -->
<g id="node72" class="node">
<title>333</title>
<ellipse fill="none" stroke="black" cx="1081.3" cy="-1134.24" rx="28.7" ry="18"/>
<text text-anchor="middle" x="1081.3" y="-1130.54" font-family="Times,serif" font-size="14.00">333</text>
</g>
<!-- 333&#45;&gt;183 -->
<g id="edge125" class="edge">
<title>333&#45;&gt;183</title>
<path fill="none" stroke="black" d="M1052.7,-1134.24C1050.1,-1134.24 1047.5,-1134.24 1044.9,-1134.24"/>
<polygon fill="black" stroke="black" points="1044.8,-1130.74 1034.8,-1134.24 1044.8,-1137.74 1044.8,-1130.74"/>
</g>
<!-- 350 -->
<g id="node73" class="node">
<title>350</title>
<ellipse fill="none" stroke="black" cx="1252.5" cy="-75.28" rx="28.7" ry="18"/>
<text text-anchor="middle" x="1252.5" y="-71.58" font-family="Times,serif" font-size="14.00">350</text>
</g>
<!-- 350&#45;&gt;250 -->
<g id="edge126" class="edge">
<title>350&#45;&gt;250</title>
<path fill="none" stroke="black" d="M1240,-91.6C1215.3,-124.62 1153.5,-196.27 1082.3,-196.27 1082.3,-196.27 1082.3,-196.27 854.74,-196.27 762.46,-196.27 723.97,-330.48 711.42,-390.2"/>
<polygon fill="black" stroke="black" points="707.97,-389.61 709.43,-400.1 714.83,-390.99 707.97,-389.61"/>
</g>
<!-- 353 -->
<g id="node74" class="node">
<title>353</title>
<ellipse fill="none" stroke="black" cx="1584.7" cy="-1000.27" rx="28.7" ry="18"/>
<text text-anchor="middle" x="1584.7" y="-996.57" font-family="Times,serif" font-size="14.00">353</text>
</g>
<!-- 353&#45;&gt;300 -->
<g id="edge127" class="edge">
<title>353&#45;&gt;300</title>
<path fill="none" stroke="black" d="M1565.7,-986.44C1561.9,-982.61 1558.3,-978.14 1556.1,-973.27 1543.4,-945.65 1560.3,-721.05 1538.1,-700.27 1508.1,-672.19 1457.6,-682.91 1424.7,-694.53"/>
<polygon fill="black" stroke="black" points="1423.16,-691.37 1415,-698.13 1425.59,-697.94 1423.16,-691.37"/>
</g>
<!-- 360 -->
<g id="node75" class="node">
<title>360</title>
<ellipse fill="none" stroke="black" cx="1391.4" cy="-102.28" rx="28.7" ry="18"/>
<text text-anchor="middle" x="1391.4" y="-98.58" font-family="Times,serif" font-size="14.00">360</text>
</g>
<!-- 360&#45;&gt;288 -->
<g id="edge128" class="edge">
<title>360&#45;&gt;288</title>
<path fill="none" stroke="black" d="M1364.5,-108.3C1350.3,-112.5 1333,-119.2 1319.9,-129.27 1249.6,-183.41 1232.3,-207.46 1203.1,-291.27 1174.5,-373.41 1198.5,-596.32 1185.1,-682.27 1181.1,-708.41 1172.9,-737.45 1166.6,-758.02"/>
<polygon fill="black" stroke="black" points="1163.23,-757.07 1163.5,-767.66 1169.89,-759.22 1163.23,-757.07"/>
</g>
<!-- 360&#45;&gt;299 -->
<g id="edge129" class="edge">
<title>360&#45;&gt;299</title>
<path fill="none" stroke="black" d="M1362.9,-105.53C1347.7,-108.86 1329.9,-115.61 1319.9,-129.27 1298.7,-158.4 1307.6,-417.68 1301.9,-453.27 1293.1,-508 1274.2,-570.08 1262.8,-604.87"/>
<polygon fill="black" stroke="black" points="1259.35,-604.17 1259.6,-614.76 1266.01,-606.33 1259.35,-604.17"/>
</g>
<!-- 360&#45;&gt;350 -->
<g id="edge130" class="edge">
<title>360&#45;&gt;350</title>
<path fill="none" stroke="black" d="M1364,-97.07C1343,-92.93 1313.4,-87.1 1290.2,-82.51"/>
<polygon fill="black" stroke="black" points="1290.79,-79.05 1280.3,-80.56 1289.44,-85.92 1290.79,-79.05"/>
</g>
<!-- 370 -->
<g id="node76" class="node">
<title>370</title>
<ellipse fill="none" stroke="black" cx="1156.5" cy="-1667.24" rx="28.7" ry="18"/>
<text text-anchor="middle" x="1156.5" y="-1663.54" font-family="Times,serif" font-size="14.00">370</text>
</g>
<!-- 370&#45;&gt;263 -->
<g id="edge131" class="edge">
<title>370&#45;&gt;263</title>
<path fill="none" stroke="black" d="M1139.5,-1652.74C1134.9,-1647.64 1130.5,-1641.64 1127.9,-1635.24 1101,-1568.64 1139.6,-1377.74 1109.9,-1312.24 1109.1,-1310.44 1108.1,-1308.64 1106.9,-1306.94"/>
<polygon fill="black" stroke="black" points="1109.46,-1304.54 1100.4,-1299.04 1104.05,-1308.99 1109.46,-1304.54"/>
</g>
<!-- 375 -->
<g id="node77" class="node">
<title>375</title>
<ellipse fill="none" stroke="black" cx="1391.4" cy="-372.27" rx="28.7" ry="18"/>
<text text-anchor="middle" x="1391.4" y="-368.57" font-family="Times,serif" font-size="14.00">375</text>
</g>
<!-- 375&#45;&gt;330 -->
<g id="edge132" class="edge">
<title>375&#45;&gt;330</title>
<path fill="none" stroke="black" d="M1366.5,-363.27C1352.9,-358.08 1335.4,-351.38 1319.9,-345.27 1308.9,-340.93 1297,-336.1 1286.2,-331.74"/>
<polygon fill="black" stroke="black" points="1287.38,-328.45 1276.8,-327.89 1284.73,-334.92 1287.38,-328.45"/>
</g>
<!-- external -->
<g id="node78" class="node">
<title>external</title>
<ellipse fill="none" stroke="black" cx="1252.5" cy="-426.27" rx="49.5" ry="18"/>
<text text-anchor="middle" x="1252.5" y="-422.57" font-family="Times,serif" font-size="14.00">external</text>
</g>
<!-- 375&#45;&gt;external -->
<g id="edge133" class="edge">
<title>375&#45;&gt;external</title>
<path fill="none" stroke="black" d="M1366.5,-381.27C1352.9,-386.47 1335.4,-393.16 1319.9,-399.27 1311.9,-402.43 1303.4,-405.84 1295.3,-409.15"/>
<polygon fill="black" stroke="black" points="1293.85,-405.96 1285.9,-412.96 1296.48,-412.45 1293.85,-405.96"/>
</g>
<!-- 382 -->
<g id="node79" class="node">
<title>382</title>
<ellipse fill="none" stroke="black" cx="1391.4" cy="-318.27" rx="28.7" ry="18"/>
<text text-anchor="middle" x="1391.4" y="-314.57" font-family="Times,serif" font-size="14.00">382</text>
</g>
<!-- 382&#45;&gt;217 -->
<g id="edge134" class="edge">
<title>382&#45;&gt;217</title>
<path fill="none" stroke="black" d="M1363.1,-321.34C1347.8,-324.6 1329.7,-331.35 1319.9,-345.27 1270.3,-415.67 1346.4,-1046.54 1301.9,-1120.24 1298.5,-1126.04 1293.3,-1130.64 1287.6,-1134.24"/>
<polygon fill="black" stroke="black" points="1285.51,-1131.4 1278.5,-1139.34 1288.94,-1137.51 1285.51,-1131.4"/>
</g>
<!-- 382&#45;&gt;282 -->
<g id="edge135" class="edge">
<title>382&#45;&gt;282</title>
<path fill="none" stroke="black" d="M1366.5,-327.27C1352.9,-332.47 1335.4,-339.16 1319.9,-345.27 1308.9,-349.61 1297,-354.44 1286.2,-358.81"/>
<polygon fill="black" stroke="black" points="1284.73,-355.64 1276.8,-362.66 1287.38,-362.11 1284.73,-355.64"/>
</g>
<!-- 382&#45;&gt;330 -->
<g id="edge136" class="edge">
<title>382&#45;&gt;330</title>
<path fill="none" stroke="black" d="M1362.7,-318.27C1342.2,-318.27 1314,-318.27 1291.4,-318.27"/>
<polygon fill="black" stroke="black" points="1291.2,-314.77 1281.2,-318.27 1291.2,-321.77 1291.2,-314.77"/>
</g>
<!-- 383 -->
<g id="node80" class="node">
<title>383</title>
<ellipse fill="none" stroke="black" cx="1252.5" cy="-1667.24" rx="28.7" ry="18"/>
<text text-anchor="middle" x="1252.5" y="-1663.54" font-family="Times,serif" font-size="14.00">383</text>
</g>
<!-- 383&#45;&gt;283 -->
<g id="edge137" class="edge">
<title>383&#45;&gt;283</title>
<path fill="none" stroke="black" d="M1227.1,-1658.94C1218.2,-1654.74 1208.9,-1648.64 1203.1,-1640.24 1173.5,-1597.74 1162.3,-1440.84 1158.8,-1375.84"/>
<polygon fill="black" stroke="black" points="1162.28,-1375.27 1158.3,-1365.44 1155.28,-1375.6 1162.28,-1375.27"/>
</g>
<!-- 383&#45;&gt;370 -->
<g id="edge138" class="edge">
<title>383&#45;&gt;370</title>
<path fill="none" stroke="black" d="M1223.8,-1667.24C1214.9,-1667.24 1204.9,-1667.24 1195.4,-1667.24"/>
<polygon fill="black" stroke="black" points="1195.3,-1663.74 1185.3,-1667.24 1195.3,-1670.74 1195.3,-1663.74"/>
</g>
<!-- 390 -->
<g id="node81" class="node">
<title>390</title>
<ellipse fill="none" stroke="black" cx="1391.4" cy="-264.27" rx="28.7" ry="18"/>
<text text-anchor="middle" x="1391.4" y="-260.57" font-family="Times,serif" font-size="14.00">390</text>
</g>
<!-- 390&#45;&gt;190 -->
<g id="edge139" class="edge">
<title>390&#45;&gt;190</title>
<path fill="none" stroke="black" d="M1363.1,-260.97C1324,-257.71 1251.3,-257.32 1203.1,-291.27 1094.8,-367.51 1132.6,-443.81 1109.9,-574.27 1104.1,-607.99 1095.3,-646.38 1089.2,-671.61"/>
<polygon fill="black" stroke="black" points="1085.74,-671.03 1086.8,-681.57 1092.55,-672.67 1085.74,-671.03"/>
</g>
<!-- 390&#45;&gt;217 -->
<g id="edge140" class="edge">
<title>390&#45;&gt;217</title>
<path fill="none" stroke="black" d="M1363.1,-267.33C1347.7,-270.6 1329.7,-277.34 1319.9,-291.27 1293.4,-328.94 1325.7,-1080.84 1301.9,-1120.24 1298.5,-1126.04 1293.3,-1130.64 1287.6,-1134.34"/>
<polygon fill="black" stroke="black" points="1285.58,-1131.46 1278.5,-1139.34 1288.95,-1137.6 1285.58,-1131.46"/>
</g>
<!-- 390&#45;&gt;282 -->
<g id="edge141" class="edge">
<title>390&#45;&gt;282</title>
<path fill="none" stroke="black" d="M1363.5,-268.77C1348.9,-272.51 1331.4,-279.25 1319.9,-291.27 1302.4,-309.55 1318,-325.79 1301.9,-345.27 1297.7,-350.33 1292.3,-354.61 1286.7,-358.17"/>
<polygon fill="black" stroke="black" points="1284.74,-355.26 1277.7,-363.17 1288.14,-361.38 1284.74,-355.26"/>
</g>
<!-- 400 -->
<g id="node82" class="node">
<title>400</title>
<ellipse fill="none" stroke="black" cx="1659.9" cy="-946.27" rx="28.7" ry="18"/>
<text text-anchor="middle" x="1659.9" y="-942.57" font-family="Times,serif" font-size="14.00">400</text>
</g>
<!-- 400&#45;&gt;304 -->
<g id="edge142" class="edge">
<title>400&#45;&gt;304</title>
<path fill="none" stroke="black" d="M1646.1,-930.25C1634.7,-915.87 1617.7,-894.57 1604.7,-878.18"/>
<polygon fill="black" stroke="black" points="1607.26,-875.78 1598.3,-870.11 1601.77,-880.12 1607.26,-875.78"/>
</g>
<!-- 402 -->
<g id="node83" class="node">
<title>402</title>
<ellipse fill="none" stroke="black" cx="1509.5" cy="-210.27" rx="28.7" ry="18"/>
<text text-anchor="middle" x="1509.5" y="-206.57" font-family="Times,serif" font-size="14.00">402</text>
</g>
<!-- 402&#45;&gt;302 -->
<g id="edge143" class="edge">
<title>402&#45;&gt;302</title>
<path fill="none" stroke="black" d="M1488.9,-197.7C1481,-192.87 1471.7,-187.52 1462.9,-183.27 1451.3,-177.66 1438.2,-172.37 1426.4,-167.99"/>
<polygon fill="black" stroke="black" points="1427.59,-164.7 1417,-164.53 1425.18,-171.27 1427.59,-164.7"/>
</g>
<!-- Solidity/EVM -->
<g id="node84" class="node">
<title>Solidity/EVM</title>
<ellipse fill="none" stroke="black" cx="1391.4" cy="-210.27" rx="71.5" ry="18"/>
<text text-anchor="middle" x="1391.4" y="-206.57" font-family="Times,serif" font-size="14.00">Solidity/EVM</text>
</g>
<!-- 402&#45;&gt;Solidity/EVM -->
<g id="edge144" class="edge">
<title>402&#45;&gt;Solidity/EVM</title>
<path fill="none" stroke="black" d="M1480.7,-210.27C1478.3,-210.27 1475.8,-210.27 1473.2,-210.27"/>
<polygon fill="black" stroke="black" points="1473,-206.77 1463,-210.27 1473,-213.77 1473,-206.77"/>
</g>
<!-- 405 -->
<g id="node85" class="node">
<title>405</title>
<ellipse fill="none" stroke="black" cx="1584.7" cy="-946.27" rx="28.7" ry="18"/>
<text text-anchor="middle" x="1584.7" y="-942.57" font-family="Times,serif" font-size="14.00">405</text>
</g>
<!-- 405&#45;&gt;255 -->
<g id="edge145" class="edge">
<title>405&#45;&gt;255</title>
<path fill="none" stroke="black" d="M1565.8,-960.17C1562,-964 1558.4,-968.45 1556.1,-973.27 1523.7,-1040.04 1564.3,-1069.84 1538.1,-1139.24 1517.6,-1193.64 1511.2,-1213.94 1462.9,-1246.24 1410.6,-1281.24 1336.1,-1290.54 1291.5,-1292.84"/>
<polygon fill="black" stroke="black" points="1291.25,-1289.35 1281.4,-1293.24 1291.53,-1296.35 1291.25,-1289.35"/>
</g>
<!-- 415 -->
<g id="node86" class="node">
<title>415</title>
<ellipse fill="none" stroke="black" cx="1659.9" cy="-854.27" rx="28.7" ry="18"/>
<text text-anchor="middle" x="1659.9" y="-850.57" font-family="Times,serif" font-size="14.00">415</text>
</g>
<!-- 415&#45;&gt;315 -->
<g id="edge146" class="edge">
<title>415&#45;&gt;315</title>
<path fill="none" stroke="black" d="M1638.8,-866.45C1609.7,-884.16 1558.9,-915.36 1556.1,-919.27 1537.3,-945.6 1521.5,-1037.24 1514.5,-1084.14"/>
<polygon fill="black" stroke="black" points="1511.01,-1083.84 1513,-1094.24 1517.93,-1084.87 1511.01,-1083.84"/>
</g>
<!-- 420 -->
<g id="node87" class="node">
<title>420</title>
<ellipse fill="none" stroke="black" cx="1509.5" cy="-426.27" rx="28.7" ry="18"/>
<text text-anchor="middle" x="1509.5" y="-422.57" font-family="Times,serif" font-size="14.00">420</text>
</g>
<!-- 420&#45;&gt;320 -->
<g id="edge147" class="edge">
<title>420&#45;&gt;320</title>
<path fill="none" stroke="black" d="M1480.7,-426.27C1465.7,-426.27 1447,-426.27 1430.7,-426.27"/>
<polygon fill="black" stroke="black" points="1430.4,-422.77 1420.4,-426.27 1430.4,-429.77 1430.4,-422.77"/>
</g>
<!-- 420&#45;&gt;375 -->
<g id="edge148" class="edge">
<title>420&#45;&gt;375</title>
<path fill="none" stroke="black" d="M1488.9,-413.7C1481,-408.87 1471.7,-403.52 1462.9,-399.27 1451.3,-393.66 1438.2,-388.37 1426.4,-383.99"/>
<polygon fill="black" stroke="black" points="1427.59,-380.7 1417,-380.53 1425.18,-387.27 1427.59,-380.7"/>
</g>
<!-- 430 -->
<g id="node88" class="node">
<title>430</title>
<ellipse fill="none" stroke="black" cx="1391.4" cy="-762.27" rx="28.7" ry="18"/>
<text text-anchor="middle" x="1391.4" y="-758.57" font-family="Times,serif" font-size="14.00">430</text>
</g>
<!-- 430&#45;&gt;280 -->
<g id="edge149" class="edge">
<title>430&#45;&gt;280</title>
<path fill="none" stroke="black" d="M1382.9,-779.58C1369.8,-807.92 1340.6,-864.75 1301.9,-901.27 1297.1,-905.78 1291.5,-909.8 1285.7,-913.28"/>
<polygon fill="black" stroke="black" points="1283.74,-910.37 1276.7,-918.28 1287.14,-916.49 1283.74,-910.37"/>
</g>
<!-- 430&#45;&gt;282 -->
<g id="edge150" class="edge">
<title>430&#45;&gt;282</title>
<path fill="none" stroke="black" d="M1362.9,-759.02C1347.7,-755.69 1329.9,-748.94 1319.9,-735.27 1275.9,-674.82 1341.5,-462.72 1301.9,-399.27 1298.4,-393.59 1293.2,-389.01 1287.5,-385.34"/>
<polygon fill="black" stroke="black" points="1288.75,-382.04 1278.3,-380.31 1285.4,-388.18 1288.75,-382.04"/>
</g>
<!-- 433 -->
<g id="node89" class="node">
<title>433</title>
<ellipse fill="none" stroke="black" cx="1509.5" cy="-102.28" rx="28.7" ry="18"/>
<text text-anchor="middle" x="1509.5" y="-98.58" font-family="Times,serif" font-size="14.00">433</text>
</g>
<!-- 433&#45;&gt;360 -->
<g id="edge151" class="edge">
<title>433&#45;&gt;360</title>
<path fill="none" stroke="black" d="M1480.7,-102.28C1465.7,-102.28 1447,-102.28 1430.7,-102.28"/>
<polygon fill="black" stroke="black" points="1430.4,-98.78 1420.4,-102.28 1430.4,-105.78 1430.4,-98.78"/>
</g>
<!-- 450 -->
<g id="node90" class="node">
<title>450</title>
<ellipse fill="none" stroke="black" cx="1659.9" cy="-118.27" rx="28.7" ry="18"/>
<text text-anchor="middle" x="1659.9" y="-114.57" font-family="Times,serif" font-size="14.00">450</text>
</g>
<!-- 450&#45;&gt;350 -->
<g id="edge152" class="edge">
<title>450&#45;&gt;350</title>
<path fill="none" stroke="black" d="M1640,-105.18C1606.3,-82.7 1532.8,-37.62 1462.9,-21.28 1401,-6.8 1379.8,0 1319.9,-21.28 1302.5,-27.48 1286.3,-40.45 1274.2,-52.12"/>
<polygon fill="black" stroke="black" points="1271.43,-49.95 1266.9,-59.53 1276.41,-54.86 1271.43,-49.95"/>
</g>
<!-- 453 -->
<g id="node91" class="node">
<title>453</title>
<ellipse fill="none" stroke="black" cx="1735.1" cy="-885.27" rx="28.7" ry="18"/>
<text text-anchor="middle" x="1735.1" y="-881.57" font-family="Times,serif" font-size="14.00">453</text>
</g>
<!-- 453&#45;&gt;353 -->
<g id="edge153" class="edge">
<title>453&#45;&gt;353</title>
<path fill="none" stroke="black" d="M1729.5,-903.28C1723.5,-923.34 1710.9,-955.32 1688.5,-973.27 1670,-988.03 1644.3,-994.78 1623.2,-997.84"/>
<polygon fill="black" stroke="black" points="1622.79,-994.37 1613.3,-999.07 1623.66,-1001.32 1622.79,-994.37"/>
</g>
<!-- 453&#45;&gt;400 -->
<g id="edge154" class="edge">
<title>453&#45;&gt;400</title>
<path fill="none" stroke="black" d="M1717.1,-899.42C1707.8,-907.2 1696,-916.99 1685.7,-925.6"/>
<polygon fill="black" stroke="black" points="1683.23,-923.11 1677.8,-932.2 1687.72,-928.48 1683.23,-923.11"/>
</g>
<!-- 453&#45;&gt;450 -->
<g id="edge155" class="edge">
<title>453&#45;&gt;450</title>
<path fill="none" stroke="black" d="M1727.2,-867.72C1720.7,-850.18 1711.2,-822.29 1706.5,-797.27 1694.4,-732.66 1668.9,-267.23 1662.4,-146.71"/>
<polygon fill="black" stroke="black" points="1665.88,-146.23 1661.8,-136.45 1658.89,-146.64 1665.88,-146.23"/>
</g>
<!-- 470 -->
<g id="node92" class="node">
<title>470</title>
<ellipse fill="none" stroke="black" cx="1252.5" cy="-1613.24" rx="28.7" ry="18"/>
<text text-anchor="middle" x="1252.5" y="-1609.54" font-family="Times,serif" font-size="14.00">470</text>
</g>
<!-- 470&#45;&gt;370 -->
<g id="edge156" class="edge">
<title>470&#45;&gt;370</title>
<path fill="none" stroke="black" d="M1230.2,-1624.94C1221.8,-1629.64 1212,-1635.14 1203.1,-1640.24 1197.8,-1643.34 1192.2,-1646.64 1186.7,-1649.84"/>
<polygon fill="black" stroke="black" points="1184.73,-1646.94 1177.9,-1655.04 1188.29,-1652.97 1184.73,-1646.94"/>
</g>
<!-- 480 -->
<g id="node93" class="node">
<title>480</title>
<ellipse fill="none" stroke="black" cx="1509.5" cy="-781.27" rx="28.7" ry="18"/>
<text text-anchor="middle" x="1509.5" y="-777.57" font-family="Times,serif" font-size="14.00">480</text>
</g>
<!-- 480&#45;&gt;430 -->
<g id="edge157" class="edge">
<title>480&#45;&gt;430</title>
<path fill="none" stroke="black" d="M1481.6,-776.87C1466,-774.32 1446.3,-771.09 1429.3,-768.31"/>
<polygon fill="black" stroke="black" points="1429.64,-764.82 1419.2,-766.65 1428.5,-771.73 1429.64,-764.82"/>
</g>
<!-- 482 -->
<g id="node94" class="node">
<title>482</title>
<ellipse fill="none" stroke="black" cx="1509.5" cy="-357.27" rx="28.7" ry="18"/>
<text text-anchor="middle" x="1509.5" y="-353.57" font-family="Times,serif" font-size="14.00">482</text>
</g>
<!-- 482&#45;&gt;375 -->
<g id="edge158" class="edge">
<title>482&#45;&gt;375</title>
<path fill="none" stroke="black" d="M1481.3,-360.79C1466,-362.77 1446.6,-365.27 1429.9,-367.43"/>
<polygon fill="black" stroke="black" points="1429.37,-363.97 1419.9,-368.73 1430.27,-370.92 1429.37,-363.97"/>
</g>
<!-- 482&#45;&gt;382 -->
<g id="edge159" class="edge">
<title>482&#45;&gt;382</title>
<path fill="none" stroke="black" d="M1483.9,-349C1467.2,-343.39 1444.9,-335.9 1426.5,-329.72"/>
<polygon fill="black" stroke="black" points="1427.59,-326.4 1417,-326.53 1425.37,-333.04 1427.59,-326.4"/>
</g>
<!-- 483 -->
<g id="node95" class="node">
<title>483</title>
<ellipse fill="none" stroke="black" cx="1391.4" cy="-48.28" rx="28.7" ry="18"/>
<text text-anchor="middle" x="1391.4" y="-44.58" font-family="Times,serif" font-size="14.00">483</text>
</g>
<!-- 483&#45;&gt;350 -->
<g id="edge160" class="edge">
<title>483&#45;&gt;350</title>
<path fill="none" stroke="black" d="M1364,-53.48C1343,-57.62 1313.4,-63.46 1290.2,-68.05"/>
<polygon fill="black" stroke="black" points="1289.44,-64.63 1280.3,-69.99 1290.79,-71.5 1289.44,-64.63"/>
</g>
<!-- 485 -->
<g id="node96" class="node">
<title>485</title>
<ellipse fill="none" stroke="black" cx="1659.9" cy="-647.27" rx="28.7" ry="18"/>
<text text-anchor="middle" x="1659.9" y="-643.57" font-family="Times,serif" font-size="14.00">485</text>
</g>
<!-- 485&#45;&gt;300 -->
<g id="edge161" class="edge">
<title>485&#45;&gt;300</title>
<path fill="none" stroke="black" d="M1631.8,-650.67C1596.6,-655.37 1533.6,-664.83 1480.9,-678.27 1462.4,-682.99 1442.2,-689.7 1425.8,-695.58"/>
<polygon fill="black" stroke="black" points="1424.3,-692.41 1416.1,-699.11 1426.69,-698.98 1424.3,-692.41"/>
</g>
<!-- 500 -->
<g id="node97" class="node">
<title>500</title>
<ellipse fill="none" stroke="black" cx="1735.1" cy="-770.27" rx="28.7" ry="18"/>
<text text-anchor="middle" x="1735.1" y="-766.57" font-family="Times,serif" font-size="14.00">500</text>
</g>
<!-- 500&#45;&gt;275 -->
<g id="edge162" class="edge">
<title>500&#45;&gt;275</title>
<path fill="none" stroke="black" d="M1708.3,-777.13C1661.7,-789.74 1567.2,-816.32 1556.1,-827.27 1538.1,-845.05 1555.5,-862.87 1538.1,-881.27 1471.2,-952.19 1352,-974.93 1291.3,-982.08"/>
<polygon fill="black" stroke="black" points="1290.56,-978.65 1281,-983.21 1291.32,-985.6 1290.56,-978.65"/>
</g>
<!-- 500&#45;&gt;301 -->
<g id="edge163" class="edge">
<title>500&#45;&gt;301</title>
<path fill="none" stroke="black" d="M1706.7,-767.75C1669.9,-765.66 1603.5,-766.65 1556.1,-794.27 1542.4,-802.22 1531.5,-816.01 1523.8,-828.37"/>
<polygon fill="black" stroke="black" points="1520.78,-826.61 1518.8,-837.01 1526.84,-830.11 1520.78,-826.61"/>
</g>
<!-- 500&#45;&gt;302 -->
<g id="edge164" class="edge">
<title>500&#45;&gt;302</title>
<path fill="none" stroke="black" d="M1734.4,-751.94C1734.7,-699.18 1731.6,-543.06 1688.5,-423.27 1645.9,-304.82 1642.2,-254.05 1538.1,-183.27 1506.2,-161.57 1461.6,-156.03 1430.2,-155.17"/>
<polygon fill="black" stroke="black" points="1430.15,-151.67 1420.1,-155.03 1430.05,-158.67 1430.15,-151.67"/>
</g>
<!-- 500&#45;&gt;390 -->
<g id="edge165" class="edge">
<title>500&#45;&gt;390</title>
<path fill="none" stroke="black" d="M1733.1,-752.2C1730.4,-712.36 1720.7,-614.61 1688.5,-540.27 1642.9,-434.92 1624.9,-405.44 1538.1,-330.27 1505.7,-302.22 1459.4,-284 1427.8,-273.96"/>
<polygon fill="black" stroke="black" points="1428.69,-270.58 1418.1,-270.99 1426.64,-277.27 1428.69,-270.58"/>
</g>
<!-- 500&#45;&gt;400 -->
<g id="edge166" class="edge">
<title>500&#45;&gt;400</title>
<path fill="none" stroke="black" d="M1728.5,-788.01C1716.5,-826.19 1689.3,-912.84 1688.5,-914.27 1686.7,-917.38 1684.7,-920.45 1682.5,-923.4"/>
<polygon fill="black" stroke="black" points="1679.66,-921.34 1676,-931.28 1685.06,-925.8 1679.66,-921.34"/>
</g>
<!-- 500&#45;&gt;405 -->
<g id="edge167" class="edge">
<title>500&#45;&gt;405</title>
<path fill="none" stroke="black" d="M1730.3,-788.19C1724.6,-811.73 1711.9,-853.35 1688.5,-881.27 1683,-887.8 1643.5,-911.97 1615.1,-928.91"/>
<polygon fill="black" stroke="black" points="1613.12,-926.02 1606.3,-934.13 1616.69,-932.04 1613.12,-926.02"/>
</g>
<!-- 500&#45;&gt;415 -->
<g id="edge168" class="edge">
<title>500&#45;&gt;415</title>
<path fill="none" stroke="black" d="M1720.3,-786.07C1709.4,-798.63 1693.9,-816.38 1681.5,-830.63"/>
<polygon fill="black" stroke="black" points="1678.54,-828.71 1674.6,-838.54 1683.81,-833.31 1678.54,-828.71"/>
</g>
<!-- 500&#45;&gt;420 -->
<g id="edge169" class="edge">
<title>500&#45;&gt;420</title>
<path fill="none" stroke="black" d="M1731.3,-752.15C1726.1,-722.86 1713.4,-664 1688.5,-620.27 1647.1,-547.76 1574.1,-479.94 1535.7,-447.05"/>
<polygon fill="black" stroke="black" points="1537.57,-444.05 1527.7,-440.2 1533.02,-449.37 1537.57,-444.05"/>
</g>
<!-- 500&#45;&gt;485 -->
<g id="edge170" class="edge">
<title>500&#45;&gt;485</title>
<path fill="none" stroke="black" d="M1724.1,-753.43C1711.6,-732.54 1690.3,-696.75 1675.9,-672.56"/>
<polygon fill="black" stroke="black" points="1678.89,-670.75 1670.8,-663.91 1672.86,-674.31 1678.89,-670.75"/>
</g>
<!-- 550 -->
<g id="node98" class="node">
<title>550</title>
<ellipse fill="none" stroke="black" cx="1810.3" cy="-770.27" rx="28.7" ry="18"/>
<text text-anchor="middle" x="1810.3" y="-766.57" font-family="Times,serif" font-size="14.00">550</text>
</g>
<!-- 550&#45;&gt;450 -->
<g id="edge171" class="edge">
<title>550&#45;&gt;450</title>
<path fill="none" stroke="black" d="M1809.1,-752.22C1807.6,-675.38 1794.9,-369.52 1688.5,-150.27 1686.9,-147.07 1685,-143.94 1682.8,-140.96"/>
<polygon fill="black" stroke="black" points="1685.41,-138.62 1676.4,-133.04 1679.96,-143.02 1685.41,-138.62"/>
</g>
<!-- 550&#45;&gt;453 -->
<g id="edge172" class="edge">
<title>550&#45;&gt;453</title>
<path fill="none" stroke="black" d="M1798.5,-787.24C1786.2,-806.46 1766.2,-837.97 1752.1,-860.07"/>
<polygon fill="black" stroke="black" points="1749.09,-858.29 1746.7,-868.61 1755,-862.03 1749.09,-858.29"/>
</g>
<!-- 550&#45;&gt;500 -->
<g id="edge173" class="edge">
<title>550&#45;&gt;500</title>
<path fill="none" stroke="black" d="M1781.6,-770.27C1779.1,-770.27 1776.4,-770.27 1773.8,-770.27"/>
<polygon fill="black" stroke="black" points="1773.8,-766.77 1763.8,-770.27 1773.8,-773.77 1773.8,-766.77"/>
</g>
</g>
</svg>
