<?xml version="1.0" encoding="UTF-8" standalone="no"?>
<!DOCTYPE svg PUBLIC "-//W3C//DTD SVG 1.1//EN"
 "http://www.w3.org/Graphics/SVG/1.1/DTD/svg11.dtd">
<!-- Generated by graphviz version 2.43.0 (0)
 -->
<!-- Pages: 1 -->
<svg width="1847pt" height="1693pt"
 viewBox="0.00 0.00 1846.90 1693.24" xmlns="http://www.w3.org/2000/svg" xmlns:xlink="http://www.w3.org/1999/xlink">
<g id="graph0" class="graph" transform="scale(1 1) rotate(0) translate(4 1689.24)">
<polygon fill="white" stroke="transparent" points="-4,4 -4,-1689.24 1842.9,-1689.24 1842.9,4 -4,4"/>
<!-- 110 -->
<g id="node1" class="node">
<title>110</title>
<ellipse fill="none" stroke="black" cx="103.79" cy="-1135.24" rx="28.7" ry="18"/>
<text text-anchor="middle" x="103.79" y="-1131.54" font-family="Times,serif" font-size="14.00">110</text>
</g>
<!-- 100 -->
<g id="node2" class="node">
<title>100</title>
<ellipse fill="none" stroke="black" cx="28.6" cy="-1162.24" rx="28.7" ry="18"/>
<text text-anchor="middle" x="28.6" y="-1158.54" font-family="Times,serif" font-size="14.00">100</text>
</g>
<!-- 110&#45;&gt;100 -->
<g id="edge1" class="edge">
<title>110&#45;&gt;100</title>
<path fill="none" stroke="black" d="M78.83,-1144.14C73.95,-1145.94 68.73,-1147.84 63.58,-1149.74"/>
<polygon fill="black" stroke="black" points="62.03,-1146.59 53.87,-1153.34 64.46,-1153.15 62.03,-1146.59"/>
</g>
<!-- 103 -->
<g id="node3" class="node">
<title>103</title>
<ellipse fill="none" stroke="black" cx="28.6" cy="-1108.24" rx="28.7" ry="18"/>
<text text-anchor="middle" x="28.6" y="-1104.54" font-family="Times,serif" font-size="14.00">103</text>
</g>
<!-- 110&#45;&gt;103 -->
<g id="edge2" class="edge">
<title>110&#45;&gt;103</title>
<path fill="none" stroke="black" d="M78.83,-1126.44C73.95,-1124.64 68.73,-1122.74 63.58,-1120.84"/>
<polygon fill="black" stroke="black" points="64.46,-1117.44 53.87,-1117.24 62.03,-1124 64.46,-1117.44"/>
</g>
<!-- 112 -->
<g id="node4" class="node">
<title>112</title>
<ellipse fill="none" stroke="black" cx="1081.3" cy="-547.27" rx="28.7" ry="18"/>
<text text-anchor="middle" x="1081.3" y="-543.57" font-family="Times,serif" font-size="14.00">112</text>
</g>
<!-- 112&#45;&gt;110 -->
<g id="edge3" class="edge">
<title>112&#45;&gt;110</title>
<path fill="none" stroke="black" d="M1077.6,-565.42C1061,-677.21 972.63,-1267.94 959.53,-1281.24 927.01,-1314.44 903.2,-1300.24 856.74,-1300.24 856.74,-1300.24 856.74,-1300.24 253.18,-1300.24 179.96,-1300.24 133.67,-1209.34 114.68,-1162.44"/>
<polygon fill="black" stroke="black" points="117.86,-1160.97 110.94,-1152.94 111.35,-1163.53 117.86,-1160.97"/>
</g>
<!-- 102 -->
<g id="node5" class="node">
<title>102</title>
<ellipse fill="none" stroke="black" cx="1006.1" cy="-306.27" rx="28.7" ry="18"/>
<text text-anchor="middle" x="1006.1" y="-302.57" font-family="Times,serif" font-size="14.00">102</text>
</g>
<!-- 112&#45;&gt;102 -->
<g id="edge4" class="edge">
<title>112&#45;&gt;102</title>
<path fill="none" stroke="black" d="M1074.9,-529.55C1062.3,-487.94 1030.7,-383.75 1015.5,-333.81"/>
<polygon fill="black" stroke="black" points="1018.78,-332.56 1012.5,-324.02 1012.08,-334.61 1018.78,-332.56"/>
</g>
<!-- 113 -->
<g id="node6" class="node">
<title>113</title>
<ellipse fill="none" stroke="black" cx="178.99" cy="-970.27" rx="28.7" ry="18"/>
<text text-anchor="middle" x="178.99" y="-966.57" font-family="Times,serif" font-size="14.00">113</text>
</g>
<!-- 113&#45;&gt;110 -->
<g id="edge5" class="edge">
<title>113&#45;&gt;110</title>
<path fill="none" stroke="black" d="M170.29,-987.62C157.5,-1016.44 131.76,-1074.44 116.64,-1108.54"/>
<polygon fill="black" stroke="black" points="113.33,-1107.38 112.49,-1117.94 119.73,-1110.21 113.33,-1107.38"/>
</g>
<!-- 115 -->
<g id="node7" class="node">
<title>115</title>
<ellipse fill="none" stroke="black" cx="254.18" cy="-970.27" rx="28.7" ry="18"/>
<text text-anchor="middle" x="254.18" y="-966.57" font-family="Times,serif" font-size="14.00">115</text>
</g>
<!-- 115&#45;&gt;113 -->
<g id="edge6" class="edge">
<title>115&#45;&gt;113</title>
<path fill="none" stroke="black" d="M225.51,-970.27C222.96,-970.27 220.35,-970.27 217.73,-970.27"/>
<polygon fill="black" stroke="black" points="217.7,-966.77 207.7,-970.27 217.7,-973.77 217.7,-966.77"/>
</g>
<!-- 120 -->
<g id="node8" class="node">
<title>120</title>
<ellipse fill="none" stroke="black" cx="329.38" cy="-1083.24" rx="28.7" ry="18"/>
<text text-anchor="middle" x="329.38" y="-1079.54" font-family="Times,serif" font-size="14.00">120</text>
</g>
<!-- 120&#45;&gt;115 -->
<g id="edge7" class="edge">
<title>120&#45;&gt;115</title>
<path fill="none" stroke="black" d="M317.58,-1066.64C305.41,-1047.84 285.52,-1017.14 271.47,-995.41"/>
<polygon fill="black" stroke="black" points="274.4,-993.51 266.03,-987.01 268.53,-997.31 274.4,-993.51"/>
</g>
<!-- 125 -->
<g id="node9" class="node">
<title>125</title>
<ellipse fill="none" stroke="black" cx="404.57" cy="-1100.24" rx="28.7" ry="18"/>
<text text-anchor="middle" x="404.57" y="-1096.54" font-family="Times,serif" font-size="14.00">125</text>
</g>
<!-- 125&#45;&gt;120 -->
<g id="edge8" class="edge">
<title>125&#45;&gt;120</title>
<path fill="none" stroke="black" d="M377.56,-1094.24C374.09,-1093.44 370.47,-1092.54 366.86,-1091.74"/>
<polygon fill="black" stroke="black" points="367.33,-1088.26 356.8,-1089.44 365.77,-1095.09 367.33,-1088.26"/>
</g>
<!-- 130 -->
<g id="node10" class="node">
<title>130</title>
<ellipse fill="none" stroke="black" cx="479.77" cy="-1154.24" rx="28.7" ry="18"/>
<text text-anchor="middle" x="479.77" y="-1150.54" font-family="Times,serif" font-size="14.00">130</text>
</g>
<!-- 130&#45;&gt;125 -->
<g id="edge9" class="edge">
<title>130&#45;&gt;125</title>
<path fill="none" stroke="black" d="M460.3,-1140.64C451.74,-1134.34 441.41,-1126.74 432.04,-1119.84"/>
<polygon fill="black" stroke="black" points="433.9,-1116.87 423.78,-1113.74 429.75,-1122.5 433.9,-1116.87"/>
</g>
<!-- 133 -->
<g id="node11" class="node">
<title>133</title>
<ellipse fill="none" stroke="black" cx="554.96" cy="-1154.24" rx="28.7" ry="18"/>
<text text-anchor="middle" x="554.96" y="-1150.54" font-family="Times,serif" font-size="14.00">133</text>
</g>
<!-- 133&#45;&gt;130 -->
<g id="edge10" class="edge">
<title>133&#45;&gt;130</title>
<path fill="none" stroke="black" d="M526.29,-1154.24C523.74,-1154.24 521.13,-1154.24 518.51,-1154.24"/>
<polygon fill="black" stroke="black" points="518.48,-1150.74 508.48,-1154.24 518.48,-1157.74 518.48,-1150.74"/>
</g>
<!-- 135 -->
<g id="node12" class="node">
<title>135</title>
<ellipse fill="none" stroke="black" cx="630.16" cy="-1200.24" rx="28.7" ry="18"/>
<text text-anchor="middle" x="630.16" y="-1196.54" font-family="Times,serif" font-size="14.00">135</text>
</g>
<!-- 135&#45;&gt;133 -->
<g id="edge11" class="edge">
<title>135&#45;&gt;133</title>
<path fill="none" stroke="black" d="M609.16,-1187.74C601.57,-1182.94 592.78,-1177.44 584.56,-1172.24"/>
<polygon fill="black" stroke="black" points="586.27,-1169.19 575.94,-1166.84 582.56,-1175.12 586.27,-1169.19"/>
</g>
<!-- 140 -->
<g id="node13" class="node">
<title>140</title>
<ellipse fill="none" stroke="black" cx="705.35" cy="-1200.24" rx="28.7" ry="18"/>
<text text-anchor="middle" x="705.35" y="-1196.54" font-family="Times,serif" font-size="14.00">140</text>
</g>
<!-- 140&#45;&gt;135 -->
<g id="edge12" class="edge">
<title>140&#45;&gt;135</title>
<path fill="none" stroke="black" d="M676.68,-1200.24C674.13,-1200.24 671.52,-1200.24 668.9,-1200.24"/>
<polygon fill="black" stroke="black" points="668.87,-1196.74 658.87,-1200.24 668.87,-1203.74 668.87,-1196.74"/>
</g>
<!-- 145 -->
<g id="node14" class="node">
<title>145</title>
<ellipse fill="none" stroke="black" cx="780.55" cy="-1227.24" rx="28.7" ry="18"/>
<text text-anchor="middle" x="780.55" y="-1223.54" font-family="Times,serif" font-size="14.00">145</text>
</g>
<!-- 145&#45;&gt;140 -->
<g id="edge13" class="edge">
<title>145&#45;&gt;140</title>
<path fill="none" stroke="black" d="M755.58,-1218.44C750.7,-1216.64 745.48,-1214.74 740.33,-1212.84"/>
<polygon fill="black" stroke="black" points="741.21,-1209.44 730.62,-1209.24 738.78,-1216 741.21,-1209.44"/>
</g>
<!-- 150 -->
<g id="node15" class="node">
<title>150</title>
<ellipse fill="none" stroke="black" cx="855.74" cy="-1346.24" rx="28.7" ry="18"/>
<text text-anchor="middle" x="855.74" y="-1342.54" font-family="Times,serif" font-size="14.00">150</text>
</g>
<!-- 150&#45;&gt;145 -->
<g id="edge14" class="edge">
<title>150&#45;&gt;145</title>
<path fill="none" stroke="black" d="M844.41,-1329.44C832.09,-1309.44 811.39,-1275.84 797.13,-1252.64"/>
<polygon fill="black" stroke="black" points="800.02,-1250.66 791.83,-1243.94 794.04,-1254.31 800.02,-1250.66"/>
</g>
<!-- 153 -->
<g id="node16" class="node">
<title>153</title>
<ellipse fill="none" stroke="black" cx="855.74" cy="-1241.24" rx="28.7" ry="18"/>
<text text-anchor="middle" x="855.74" y="-1237.54" font-family="Times,serif" font-size="14.00">153</text>
</g>
<!-- 153&#45;&gt;145 -->
<g id="edge15" class="edge">
<title>153&#45;&gt;145</title>
<path fill="none" stroke="black" d="M827.9,-1236.14C824.82,-1235.54 821.64,-1234.94 818.45,-1234.34"/>
<polygon fill="black" stroke="black" points="818.86,-1230.86 808.38,-1232.44 817.56,-1237.74 818.86,-1230.86"/>
</g>
<!-- 155 -->
<g id="node17" class="node">
<title>155</title>
<ellipse fill="none" stroke="black" cx="930.94" cy="-1422.24" rx="28.7" ry="18"/>
<text text-anchor="middle" x="930.94" y="-1418.54" font-family="Times,serif" font-size="14.00">155</text>
</g>
<!-- 155&#45;&gt;150 -->
<g id="edge16" class="edge">
<title>155&#45;&gt;150</title>
<path fill="none" stroke="black" d="M915.12,-1406.94C904.61,-1395.94 890.32,-1381.14 878.51,-1368.84"/>
<polygon fill="black" stroke="black" points="881,-1366.39 871.53,-1361.64 875.98,-1371.26 881,-1366.39"/>
</g>
<!-- 156 -->
<g id="node18" class="node">
<title>156</title>
<ellipse fill="none" stroke="black" cx="705.35" cy="-1254.24" rx="28.7" ry="18"/>
<text text-anchor="middle" x="705.35" y="-1250.54" font-family="Times,serif" font-size="14.00">156</text>
</g>
<!-- 156&#45;&gt;133 -->
<g id="edge17" class="edge">
<title>156&#45;&gt;133</title>
<path fill="none" stroke="black" d="M687.19,-1239.94C683.36,-1236.14 679.6,-1231.84 676.75,-1227.24 663.34,-1205.84 677.84,-1189.84 658.75,-1173.24 641.1,-1157.94 615.17,-1153.24 593.76,-1152.34"/>
<polygon fill="black" stroke="black" points="593.74,-1148.84 583.67,-1152.14 593.6,-1155.84 593.74,-1148.84"/>
</g>
<!-- 160 -->
<g id="node19" class="node">
<title>160</title>
<ellipse fill="none" stroke="black" cx="479.77" cy="-1100.24" rx="28.7" ry="18"/>
<text text-anchor="middle" x="479.77" y="-1096.54" font-family="Times,serif" font-size="14.00">160</text>
</g>
<!-- 160&#45;&gt;125 -->
<g id="edge18" class="edge">
<title>160&#45;&gt;125</title>
<path fill="none" stroke="black" d="M451.1,-1100.24C448.54,-1100.24 445.93,-1100.24 443.31,-1100.24"/>
<polygon fill="black" stroke="black" points="443.28,-1096.74 433.28,-1100.24 443.28,-1103.74 443.28,-1096.74"/>
</g>
<!-- 163 -->
<g id="node20" class="node">
<title>163</title>
<ellipse fill="none" stroke="black" cx="855.74" cy="-1187.24" rx="28.7" ry="18"/>
<text text-anchor="middle" x="855.74" y="-1183.54" font-family="Times,serif" font-size="14.00">163</text>
</g>
<!-- 163&#45;&gt;145 -->
<g id="edge19" class="edge">
<title>163&#45;&gt;145</title>
<path fill="none" stroke="black" d="M833.57,-1198.84C826.74,-1202.54 819.04,-1206.74 811.69,-1210.84"/>
<polygon fill="black" stroke="black" points="809.79,-1207.9 802.67,-1215.74 813.13,-1214.05 809.79,-1207.9"/>
</g>
<!-- 165 -->
<g id="node21" class="node">
<title>165</title>
<ellipse fill="none" stroke="black" cx="1006.1" cy="-1416.24" rx="28.7" ry="18"/>
<text text-anchor="middle" x="1006.1" y="-1412.54" font-family="Times,serif" font-size="14.00">165</text>
</g>
<!-- 165&#45;&gt;155 -->
<g id="edge20" class="edge">
<title>165&#45;&gt;155</title>
<path fill="none" stroke="black" d="M977.46,-1418.54C974.91,-1418.74 972.3,-1418.94 969.68,-1419.14"/>
<polygon fill="black" stroke="black" points="969.3,-1415.67 959.65,-1420.04 969.92,-1422.64 969.3,-1415.67"/>
</g>
<!-- 170 -->
<g id="node22" class="node">
<title>170</title>
<ellipse fill="none" stroke="black" cx="780.55" cy="-1016.24" rx="28.7" ry="18"/>
<text text-anchor="middle" x="780.55" y="-1012.54" font-family="Times,serif" font-size="14.00">170</text>
</g>
<!-- 170&#45;&gt;135 -->
<g id="edge21" class="edge">
<title>170&#45;&gt;135</title>
<path fill="none" stroke="black" d="M766.64,-1032.24C740.48,-1064.74 681.11,-1138.34 650.38,-1176.44"/>
<polygon fill="black" stroke="black" points="647.48,-1174.46 643.93,-1184.44 652.93,-1178.86 647.48,-1174.46"/>
</g>
<!-- 175 -->
<g id="node23" class="node">
<title>175</title>
<ellipse fill="none" stroke="black" cx="554.96" cy="-1043.24" rx="28.7" ry="18"/>
<text text-anchor="middle" x="554.96" y="-1039.54" font-family="Times,serif" font-size="14.00">175</text>
</g>
<!-- 175&#45;&gt;115 -->
<g id="edge22" class="edge">
<title>175&#45;&gt;115</title>
<path fill="none" stroke="black" d="M527.57,-1037.74C481.37,-1027.94 382.92,-1006.42 300.78,-984.27 297.21,-983.31 293.5,-982.26 289.81,-981.18"/>
<polygon fill="black" stroke="black" points="290.76,-977.82 280.18,-978.29 288.75,-984.52 290.76,-977.82"/>
</g>
<!-- 180 -->
<g id="node24" class="node">
<title>180</title>
<ellipse fill="none" stroke="black" cx="1081.3" cy="-1370.24" rx="28.7" ry="18"/>
<text text-anchor="middle" x="1081.3" y="-1366.54" font-family="Times,serif" font-size="14.00">180</text>
</g>
<!-- 180&#45;&gt;165 -->
<g id="edge23" class="edge">
<title>180&#45;&gt;165</title>
<path fill="none" stroke="black" d="M1060.3,-1382.84C1052.7,-1387.64 1043.9,-1393.14 1035.7,-1398.34"/>
<polygon fill="black" stroke="black" points="1033.71,-1395.46 1027.1,-1403.74 1037.43,-1401.39 1033.71,-1395.46"/>
</g>
<!-- 180&#45;&gt;175 -->
<g id="edge24" class="edge">
<title>180&#45;&gt;175</title>
<path fill="none" stroke="black" d="M1061.9,-1356.84C1053.7,-1350.94 1043.9,-1344.14 1034.7,-1338.24 1010,-1322.54 993.33,-1330.04 977.53,-1305.24 953.28,-1267.24 986.45,-1139.44 959.53,-1103.24 930.16,-1063.84 905.93,-1062.24 856.74,-1062.24 856.74,-1062.24 856.74,-1062.24 704.35,-1062.24 665.9,-1062.24 622.3,-1055.94 592.36,-1050.54"/>
<polygon fill="black" stroke="black" points="592.83,-1047.07 582.37,-1048.74 591.59,-1053.96 592.83,-1047.07"/>
</g>
<!-- 183 -->
<g id="node25" class="node">
<title>183</title>
<ellipse fill="none" stroke="black" cx="1006.1" cy="-1278.24" rx="28.7" ry="18"/>
<text text-anchor="middle" x="1006.1" y="-1274.54" font-family="Times,serif" font-size="14.00">183</text>
</g>
<!-- 183&#45;&gt;150 -->
<g id="edge25" class="edge">
<title>183&#45;&gt;150</title>
<path fill="none" stroke="black" d="M999.84,-1296.04C993.47,-1313.84 980.88,-1340.34 959.53,-1352.24 938.88,-1363.84 912.11,-1361.84 891.06,-1357.24"/>
<polygon fill="black" stroke="black" points="891.81,-1353.82 881.25,-1354.74 890.08,-1360.61 891.81,-1353.82"/>
</g>
<!-- 184 -->
<g id="node26" class="node">
<title>184</title>
<ellipse fill="none" stroke="black" cx="1006.1" cy="-1474.24" rx="28.7" ry="18"/>
<text text-anchor="middle" x="1006.1" y="-1470.54" font-family="Times,serif" font-size="14.00">184</text>
</g>
<!-- 184&#45;&gt;156 -->
<g id="edge26" class="edge">
<title>184&#45;&gt;156</title>
<path fill="none" stroke="black" d="M977.46,-1471.64C955.88,-1468.64 925.73,-1462.34 902.34,-1449.24 823.57,-1405.14 754.73,-1320.54 723.77,-1278.84"/>
<polygon fill="black" stroke="black" points="726.49,-1276.63 717.75,-1270.64 720.85,-1280.78 726.49,-1276.63"/>
</g>
<!-- 185 -->
<g id="node27" class="node">
<title>185</title>
<ellipse fill="none" stroke="black" cx="855.74" cy="-1016.24" rx="28.7" ry="18"/>
<text text-anchor="middle" x="855.74" y="-1012.54" font-family="Times,serif" font-size="14.00">185</text>
</g>
<!-- 185&#45;&gt;160 -->
<g id="edge27" class="edge">
<title>185&#45;&gt;160</title>
<path fill="none" stroke="black" d="M839.88,-1031.64C814.8,-1055.94 761.41,-1100.24 706.35,-1100.24 706.35,-1100.24 706.35,-1100.24 629.16,-1100.24 591.48,-1100.24 548.42,-1100.24 518.42,-1100.24"/>
<polygon fill="black" stroke="black" points="518.39,-1096.74 508.39,-1100.24 518.39,-1103.74 518.39,-1096.74"/>
</g>
<!-- 185&#45;&gt;170 -->
<g id="edge28" class="edge">
<title>185&#45;&gt;170</title>
<path fill="none" stroke="black" d="M827.07,-1016.24C824.52,-1016.24 821.91,-1016.24 819.29,-1016.24"/>
<polygon fill="black" stroke="black" points="819.26,-1012.74 809.26,-1016.24 819.26,-1019.74 819.26,-1012.74"/>
</g>
<!-- 188 -->
<g id="node28" class="node">
<title>188</title>
<ellipse fill="none" stroke="black" cx="930.94" cy="-1254.24" rx="28.7" ry="18"/>
<text text-anchor="middle" x="930.94" y="-1250.54" font-family="Times,serif" font-size="14.00">188</text>
</g>
<!-- 188&#45;&gt;163 -->
<g id="edge29" class="edge">
<title>188&#45;&gt;163</title>
<path fill="none" stroke="black" d="M914.05,-1239.74C904.24,-1230.74 891.47,-1219.04 880.47,-1209.04"/>
<polygon fill="black" stroke="black" points="882.58,-1206.23 872.85,-1202.04 877.85,-1211.39 882.58,-1206.23"/>
</g>
<!-- 188&#45;&gt;185 -->
<g id="edge30" class="edge">
<title>188&#45;&gt;185</title>
<path fill="none" stroke="black" d="M912.42,-1240.24C908.6,-1236.34 904.93,-1231.94 902.34,-1227.24 893.53,-1211.34 871.78,-1097.74 861.84,-1044.14"/>
<polygon fill="black" stroke="black" points="865.27,-1043.45 860.02,-1034.24 858.39,-1044.71 865.27,-1043.45"/>
</g>
<!-- 190 -->
<g id="node29" class="node">
<title>190</title>
<ellipse fill="none" stroke="black" cx="1081.3" cy="-363.27" rx="28.7" ry="18"/>
<text text-anchor="middle" x="1081.3" y="-359.57" font-family="Times,serif" font-size="14.00">190</text>
</g>
<!-- 190&#45;&gt;170 -->
<g id="edge31" class="edge">
<title>190&#45;&gt;170</title>
<path fill="none" stroke="black" d="M1055.3,-371.18C1032,-379.74 997.95,-395.59 977.53,-420.27 828.93,-599.92 791.81,-895.82 783.64,-987.98"/>
<polygon fill="black" stroke="black" points="780.13,-987.93 782.78,-998.18 787.11,-988.51 780.13,-987.93"/>
</g>
<!-- 192 -->
<g id="node30" class="node">
<title>192</title>
<ellipse fill="none" stroke="black" cx="1156.5" cy="-1093.24" rx="28.7" ry="18"/>
<text text-anchor="middle" x="1156.5" y="-1089.54" font-family="Times,serif" font-size="14.00">192</text>
</g>
<!-- 192&#45;&gt;190 -->
<g id="edge32" class="edge">
<title>192&#45;&gt;190</title>
<path fill="none" stroke="black" d="M1137.4,-1079.54C1133.6,-1075.64 1130.1,-1071.14 1127.9,-1066.24 1103.5,-1010.74 1116.2,-580.65 1109.9,-520.27 1105.2,-474.72 1095,-422.45 1088.5,-391.19"/>
<polygon fill="black" stroke="black" points="1091.84,-390.09 1086.3,-381.05 1085,-391.57 1091.84,-390.09"/>
</g>
<!-- 195 -->
<g id="node31" class="node">
<title>195</title>
<ellipse fill="none" stroke="black" cx="705.35" cy="-226.27" rx="28.7" ry="18"/>
<text text-anchor="middle" x="705.35" y="-222.57" font-family="Times,serif" font-size="14.00">195</text>
</g>
<!-- 195&#45;&gt;113 -->
<g id="edge33" class="edge">
<title>195&#45;&gt;113</title>
<path fill="none" stroke="black" d="M689.63,-241.51C685.16,-246.59 680.45,-252.45 676.75,-258.27 606.24,-369.22 687.42,-528.27 555.96,-528.27 555.96,-528.27 555.96,-528.27 328.38,-528.27 240.7,-528.27 195.15,-844.77 183.22,-942.13"/>
<polygon fill="black" stroke="black" points="179.74,-941.78 182.01,-952.12 186.69,-942.62 179.74,-941.78"/>
</g>
<!-- 201 -->
<g id="node32" class="node">
<title>201</title>
<ellipse fill="none" stroke="black" cx="1081.3" cy="-839.27" rx="28.7" ry="18"/>
<text text-anchor="middle" x="1081.3" y="-835.57" font-family="Times,serif" font-size="14.00">201</text>
</g>
<!-- 201&#45;&gt;115 -->
<g id="edge34" class="edge">
<title>201&#45;&gt;115</title>
<path fill="none" stroke="black" d="M1062.7,-853.29C1018.2,-887.09 897.09,-970.27 781.55,-970.27 781.55,-970.27 781.55,-970.27 403.57,-970.27 365.89,-970.27 322.83,-970.27 292.84,-970.27"/>
<polygon fill="black" stroke="black" points="292.8,-966.77 282.8,-970.27 292.8,-973.77 292.8,-966.77"/>
</g>
<!-- 200 -->
<g id="node33" class="node">
<title>200</title>
<ellipse fill="none" stroke="black" cx="1006.1" cy="-447.27" rx="28.7" ry="18"/>
<text text-anchor="middle" x="1006.1" y="-443.57" font-family="Times,serif" font-size="14.00">200</text>
</g>
<!-- 201&#45;&gt;200 -->
<g id="edge35" class="edge">
<title>201&#45;&gt;200</title>
<path fill="none" stroke="black" d="M1077,-821.41C1065.4,-759.17 1026.6,-551.49 1012.4,-475.47"/>
<polygon fill="black" stroke="black" points="1015.77,-474.44 1010.5,-465.24 1008.89,-475.72 1015.77,-474.44"/>
</g>
<!-- 205 -->
<g id="node34" class="node">
<title>205</title>
<ellipse fill="none" stroke="black" cx="1156.5" cy="-1255.24" rx="28.7" ry="18"/>
<text text-anchor="middle" x="1156.5" y="-1251.54" font-family="Times,serif" font-size="14.00">205</text>
</g>
<!-- 205&#45;&gt;201 -->
<g id="edge36" class="edge">
<title>205&#45;&gt;201</title>
<path fill="none" stroke="black" d="M1137.7,-1241.34C1133.9,-1237.54 1130.3,-1233.04 1127.9,-1228.24 1112.1,-1196.04 1091.3,-952.14 1084.6,-867.83"/>
<polygon fill="black" stroke="black" points="1088.08,-867.4 1083.8,-857.7 1081.1,-867.95 1088.08,-867.4"/>
</g>
<!-- 210 -->
<g id="node35" class="node">
<title>210</title>
<ellipse fill="none" stroke="black" cx="1156.5" cy="-1201.24" rx="28.7" ry="18"/>
<text text-anchor="middle" x="1156.5" y="-1197.54" font-family="Times,serif" font-size="14.00">210</text>
</g>
<!-- 210&#45;&gt;201 -->
<g id="edge37" class="edge">
<title>210&#45;&gt;201</title>
<path fill="none" stroke="black" d="M1137.7,-1187.34C1133.9,-1183.54 1130.3,-1179.04 1127.9,-1174.24 1101,-1120.64 1088,-938.82 1083.8,-867.92"/>
<polygon fill="black" stroke="black" points="1087.28,-867.36 1083.3,-857.53 1080.29,-867.69 1087.28,-867.36"/>
</g>
<!-- 215 -->
<g id="node36" class="node">
<title>215</title>
<ellipse fill="none" stroke="black" cx="1156.5" cy="-1147.24" rx="28.7" ry="18"/>
<text text-anchor="middle" x="1156.5" y="-1143.54" font-family="Times,serif" font-size="14.00">215</text>
</g>
<!-- 215&#45;&gt;115 -->
<g id="edge38" class="edge">
<title>215&#45;&gt;115</title>
<path fill="none" stroke="black" d="M1138.6,-1133.14C1115.8,-1114.54 1073.6,-1081.34 1034.7,-1057.24 979.69,-1023.24 801.72,-932.27 781.55,-932.27 781.55,-932.27 781.55,-932.27 403.57,-932.27 362.72,-932.27 317.45,-945.96 287.79,-956.9"/>
<polygon fill="black" stroke="black" points="286.46,-953.67 278.36,-960.49 288.95,-960.21 286.46,-953.67"/>
</g>
<!-- 215&#45;&gt;201 -->
<g id="edge39" class="edge">
<title>215&#45;&gt;201</title>
<path fill="none" stroke="black" d="M1137.6,-1133.34C1133.8,-1129.54 1130.3,-1125.14 1127.9,-1120.24 1094,-1049.84 1123.8,-1022.24 1109.9,-945.27 1105,-918.25 1096.9,-888 1090.7,-866.75"/>
<polygon fill="black" stroke="black" points="1094.05,-865.73 1087.9,-857.09 1087.32,-867.67 1094.05,-865.73"/>
</g>
<!-- 217 -->
<g id="node37" class="node">
<title>217</title>
<ellipse fill="none" stroke="black" cx="1252.5" cy="-1147.24" rx="28.7" ry="18"/>
<text text-anchor="middle" x="1252.5" y="-1143.54" font-family="Times,serif" font-size="14.00">217</text>
</g>
<!-- 217&#45;&gt;192 -->
<g id="edge40" class="edge">
<title>217&#45;&gt;192</title>
<path fill="none" stroke="black" d="M1230.2,-1135.54C1221.8,-1130.84 1212,-1125.34 1203.1,-1120.24 1197.8,-1117.24 1192.2,-1113.94 1186.7,-1110.74"/>
<polygon fill="black" stroke="black" points="1188.27,-1107.61 1177.9,-1105.44 1184.66,-1113.6 1188.27,-1107.61"/>
</g>
<!-- 217&#45;&gt;215 -->
<g id="edge41" class="edge">
<title>217&#45;&gt;215</title>
<path fill="none" stroke="black" d="M1223.8,-1147.24C1214.9,-1147.24 1204.9,-1147.24 1195.4,-1147.24"/>
<polygon fill="black" stroke="black" points="1195.3,-1143.74 1185.3,-1147.24 1195.3,-1150.74 1195.3,-1143.74"/>
</g>
<!-- 220 -->
<g id="node38" class="node">
<title>220</title>
<ellipse fill="none" stroke="black" cx="1156.5" cy="-1039.24" rx="28.7" ry="18"/>
<text text-anchor="middle" x="1156.5" y="-1035.54" font-family="Times,serif" font-size="14.00">220</text>
</g>
<!-- 220&#45;&gt;201 -->
<g id="edge42" class="edge">
<title>220&#45;&gt;201</title>
<path fill="none" stroke="black" d="M1138.1,-1025.14C1134.3,-1021.24 1130.6,-1016.94 1127.9,-1012.24 1127,-1010.64 1102.1,-915.17 1089.5,-866.77"/>
<polygon fill="black" stroke="black" points="1092.84,-865.71 1086.9,-856.93 1086.07,-867.5 1092.84,-865.71"/>
</g>
<!-- 222 -->
<g id="node39" class="node">
<title>222</title>
<ellipse fill="none" stroke="black" cx="1156.5" cy="-985.27" rx="28.7" ry="18"/>
<text text-anchor="middle" x="1156.5" y="-981.57" font-family="Times,serif" font-size="14.00">222</text>
</g>
<!-- 222&#45;&gt;150 -->
<g id="edge43" class="edge">
<title>222&#45;&gt;150</title>
<path fill="none" stroke="black" d="M1139,-999.54C1135.1,-1003.42 1131.1,-1007.84 1127.9,-1012.24 1071.9,-1090.74 1095.8,-1133.54 1034.7,-1208.24 1014.6,-1232.94 995.55,-1225.04 977.53,-1251.24 961.04,-1275.24 979.88,-1293.44 959.53,-1314.24 942.51,-1331.74 916.17,-1339.64 894.42,-1343.34"/>
<polygon fill="black" stroke="black" points="893.89,-1339.88 884.48,-1344.74 894.87,-1346.82 893.89,-1339.88"/>
</g>
<!-- 225 -->
<g id="node40" class="node">
<title>225</title>
<ellipse fill="none" stroke="black" cx="1156.5" cy="-839.27" rx="28.7" ry="18"/>
<text text-anchor="middle" x="1156.5" y="-835.57" font-family="Times,serif" font-size="14.00">225</text>
</g>
<!-- 225&#45;&gt;201 -->
<g id="edge44" class="edge">
<title>225&#45;&gt;201</title>
<path fill="none" stroke="black" d="M1127.8,-839.27C1125.3,-839.27 1122.7,-839.27 1120.1,-839.27"/>
<polygon fill="black" stroke="black" points="1120,-835.77 1110,-839.27 1120,-842.77 1120,-835.77"/>
</g>
<!-- 230 -->
<g id="node41" class="node">
<title>230</title>
<ellipse fill="none" stroke="black" cx="1156.5" cy="-655.27" rx="28.7" ry="18"/>
<text text-anchor="middle" x="1156.5" y="-651.57" font-family="Times,serif" font-size="14.00">230</text>
</g>
<!-- 230&#45;&gt;201 -->
<g id="edge45" class="edge">
<title>230&#45;&gt;201</title>
<path fill="none" stroke="black" d="M1140.3,-670.23C1135.8,-675.3 1131.2,-681.23 1127.9,-687.27 1105.9,-727.42 1093.3,-779.51 1087.1,-811.11"/>
<polygon fill="black" stroke="black" points="1083.65,-810.52 1085.2,-821 1090.52,-811.84 1083.65,-810.52"/>
</g>
<!-- 233 -->
<g id="node42" class="node">
<title>233</title>
<ellipse fill="none" stroke="black" cx="1081.3" cy="-1478.24" rx="28.7" ry="18"/>
<text text-anchor="middle" x="1081.3" y="-1474.54" font-family="Times,serif" font-size="14.00">233</text>
</g>
<!-- 233&#45;&gt;183 -->
<g id="edge46" class="edge">
<title>233&#45;&gt;183</title>
<path fill="none" stroke="black" d="M1063,-1464.14C1059.1,-1460.24 1055.4,-1455.94 1052.7,-1451.24 1049,-1444.94 1025.9,-1353.44 1014.1,-1306.14"/>
<polygon fill="black" stroke="black" points="1017.44,-1305.08 1011.6,-1296.24 1010.66,-1306.8 1017.44,-1305.08"/>
</g>
<!-- 233&#45;&gt;184 -->
<g id="edge47" class="edge">
<title>233&#45;&gt;184</title>
<path fill="none" stroke="black" d="M1052.7,-1476.74C1050.1,-1476.64 1047.5,-1476.44 1044.9,-1476.34"/>
<polygon fill="black" stroke="black" points="1044.99,-1472.84 1034.8,-1475.74 1044.58,-1479.83 1044.99,-1472.84"/>
</g>
<!-- 234 -->
<g id="node43" class="node">
<title>234</title>
<ellipse fill="none" stroke="black" cx="930.94" cy="-1200.24" rx="28.7" ry="18"/>
<text text-anchor="middle" x="930.94" y="-1196.54" font-family="Times,serif" font-size="14.00">234</text>
</g>
<!-- 234&#45;&gt;163 -->
<g id="edge48" class="edge">
<title>234&#45;&gt;163</title>
<path fill="none" stroke="black" d="M903.1,-1195.54C900.01,-1194.94 896.83,-1194.44 893.65,-1193.84"/>
<polygon fill="black" stroke="black" points="894.04,-1190.36 883.58,-1192.04 892.81,-1197.25 894.04,-1190.36"/>
</g>
<!-- 235 -->
<g id="node44" class="node">
<title>235</title>
<ellipse fill="none" stroke="black" cx="1156.5" cy="-601.27" rx="28.7" ry="18"/>
<text text-anchor="middle" x="1156.5" y="-597.57" font-family="Times,serif" font-size="14.00">235</text>
</g>
<!-- 235&#45;&gt;201 -->
<g id="edge49" class="edge">
<title>235&#45;&gt;201</title>
<path fill="none" stroke="black" d="M1138,-615.35C1134.2,-619.18 1130.5,-623.58 1127.9,-628.27 1095.1,-687.73 1085.9,-768.74 1083.3,-811"/>
<polygon fill="black" stroke="black" points="1079.8,-810.95 1082.8,-821.11 1086.79,-811.3 1079.8,-810.95"/>
</g>
<!-- 236 -->
<g id="node45" class="node">
<title>236</title>
<ellipse fill="none" stroke="black" cx="930.94" cy="-1146.24" rx="28.7" ry="18"/>
<text text-anchor="middle" x="930.94" y="-1142.54" font-family="Times,serif" font-size="14.00">236</text>
</g>
<!-- 236&#45;&gt;150 -->
<g id="edge50" class="edge">
<title>236&#45;&gt;150</title>
<path fill="none" stroke="black" d="M912.33,-1160.34C908.52,-1164.14 904.87,-1168.54 902.34,-1173.24 882.05,-1211.14 895.54,-1226.74 884.34,-1268.24 879.69,-1285.54 873.04,-1304.44 867.44,-1319.24"/>
<polygon fill="black" stroke="black" points="864.07,-1318.25 863.77,-1328.84 870.61,-1320.75 864.07,-1318.25"/>
</g>
<!-- 236&#45;&gt;163 -->
<g id="edge51" class="edge">
<title>236&#45;&gt;163</title>
<path fill="none" stroke="black" d="M908.77,-1158.14C901.88,-1161.94 894.1,-1166.34 886.69,-1170.54"/>
<polygon fill="black" stroke="black" points="884.68,-1167.66 877.61,-1175.54 888.06,-1173.79 884.68,-1167.66"/>
</g>
<!-- 240 -->
<g id="node46" class="node">
<title>240</title>
<ellipse fill="none" stroke="black" cx="1156.5" cy="-547.27" rx="28.7" ry="18"/>
<text text-anchor="middle" x="1156.5" y="-543.57" font-family="Times,serif" font-size="14.00">240</text>
</g>
<!-- 240&#45;&gt;112 -->
<g id="edge52" class="edge">
<title>240&#45;&gt;112</title>
<path fill="none" stroke="black" d="M1127.8,-547.27C1125.3,-547.27 1122.7,-547.27 1120.1,-547.27"/>
<polygon fill="black" stroke="black" points="1120,-543.77 1110,-547.27 1120,-550.77 1120,-543.77"/>
</g>
<!-- 240&#45;&gt;201 -->
<g id="edge53" class="edge">
<title>240&#45;&gt;201</title>
<path fill="none" stroke="black" d="M1137.9,-561.28C1134,-565.11 1130.4,-569.52 1127.9,-574.27 1086.8,-652.64 1081.6,-760.27 1081.6,-810.84"/>
<polygon fill="black" stroke="black" points="1078.1,-811.06 1081.7,-821.02 1085.1,-810.99 1078.1,-811.06"/>
</g>
<!-- 245 -->
<g id="node47" class="node">
<title>245</title>
<ellipse fill="none" stroke="black" cx="1156.5" cy="-493.27" rx="28.7" ry="18"/>
<text text-anchor="middle" x="1156.5" y="-489.57" font-family="Times,serif" font-size="14.00">245</text>
</g>
<!-- 245&#45;&gt;201 -->
<g id="edge54" class="edge">
<title>245&#45;&gt;201</title>
<path fill="none" stroke="black" d="M1137.8,-507.23C1134,-511.06 1130.3,-515.49 1127.9,-520.27 1102.2,-571.07 1088.5,-742.85 1084,-811.04"/>
<polygon fill="black" stroke="black" points="1080.5,-810.87 1083.4,-821.06 1087.49,-811.29 1080.5,-810.87"/>
</g>
<!-- 250 -->
<g id="node48" class="node">
<title>250</title>
<ellipse fill="none" stroke="black" cx="630.16" cy="-652.27" rx="28.7" ry="18"/>
<text text-anchor="middle" x="630.16" y="-648.57" font-family="Times,serif" font-size="14.00">250</text>
</g>
<!-- 250&#45;&gt;115 -->
<g id="edge55" class="edge">
<title>250&#45;&gt;115</title>
<path fill="none" stroke="black" d="M614.8,-667.83C590.05,-692.85 536.61,-739.27 480.77,-739.27 480.77,-739.27 480.77,-739.27 403.57,-739.27 308.24,-739.27 271.3,-880.25 259.69,-941.94"/>
<polygon fill="black" stroke="black" points="256.18,-941.7 257.87,-952.15 263.07,-942.92 256.18,-941.7"/>
</g>
<!-- 255 -->
<g id="node49" class="node">
<title>255</title>
<ellipse fill="none" stroke="black" cx="1252.5" cy="-1293.24" rx="28.7" ry="18"/>
<text text-anchor="middle" x="1252.5" y="-1289.54" font-family="Times,serif" font-size="14.00">255</text>
</g>
<!-- 255&#45;&gt;180 -->
<g id="edge56" class="edge">
<title>255&#45;&gt;180</title>
<path fill="none" stroke="black" d="M1250.4,-1311.34C1246.4,-1371.14 1230.4,-1560.84 1185.1,-1597.24 1165.3,-1613.24 1146.7,-1614.44 1127.9,-1597.24 1095,-1567.14 1129.1,-1437.54 1109.9,-1397.24 1109.1,-1395.44 1108,-1393.74 1106.9,-1392.04"/>
<polygon fill="black" stroke="black" points="1109.4,-1389.58 1100.3,-1384.14 1104.03,-1394.06 1109.4,-1389.58"/>
</g>
<!-- 255&#45;&gt;205 -->
<g id="edge57" class="edge">
<title>255&#45;&gt;205</title>
<path fill="none" stroke="black" d="M1227.8,-1283.64C1216.5,-1279.14 1202.7,-1273.54 1190.4,-1268.54"/>
<polygon fill="black" stroke="black" points="1191.49,-1265.21 1180.9,-1264.74 1188.89,-1271.71 1191.49,-1265.21"/>
</g>
<!-- 255&#45;&gt;222 -->
<g id="edge58" class="edge">
<title>255&#45;&gt;222</title>
<path fill="none" stroke="black" d="M1226.8,-1285.24C1217.8,-1280.94 1208.6,-1274.84 1203.1,-1266.24 1172.8,-1218.54 1208.9,-1063.64 1185.1,-1012.24 1184.3,-1010.44 1183.2,-1008.64 1182.1,-1006.98"/>
<polygon fill="black" stroke="black" points="1184.61,-1004.53 1175.5,-999.11 1179.24,-1009.03 1184.61,-1004.53"/>
</g>
<!-- 260 -->
<g id="node50" class="node">
<title>260</title>
<ellipse fill="none" stroke="black" cx="1252.5" cy="-1239.24" rx="28.7" ry="18"/>
<text text-anchor="middle" x="1252.5" y="-1235.54" font-family="Times,serif" font-size="14.00">260</text>
</g>
<!-- 260&#45;&gt;180 -->
<g id="edge59" class="edge">
<title>260&#45;&gt;180</title>
<path fill="none" stroke="black" d="M1226.7,-1247.34C1217.8,-1251.54 1208.6,-1257.64 1203.1,-1266.24 1185.7,-1293.84 1208.9,-1536.94 1185.1,-1559.24 1166.6,-1576.64 1146.9,-1576.24 1127.9,-1559.24 1100.9,-1535.14 1125.8,-1429.84 1109.9,-1397.24 1109,-1395.44 1108,-1393.74 1106.8,-1392.04"/>
<polygon fill="black" stroke="black" points="1109.3,-1389.58 1100.2,-1384.14 1103.93,-1394.06 1109.3,-1389.58"/>
</g>
<!-- 260&#45;&gt;210 -->
<g id="edge60" class="edge">
<title>260&#45;&gt;210</title>
<path fill="none" stroke="black" d="M1227.8,-1229.64C1216.5,-1225.14 1202.7,-1219.54 1190.4,-1214.54"/>
<polygon fill="black" stroke="black" points="1191.49,-1211.21 1180.9,-1210.74 1188.89,-1217.71 1191.49,-1211.21"/>
</g>
<!-- 260&#45;&gt;222 -->
<g id="edge61" class="edge">
<title>260&#45;&gt;222</title>
<path fill="none" stroke="black" d="M1236.6,-1224.14C1225.3,-1211.84 1210.6,-1193.34 1203.1,-1174.24 1176.6,-1106.84 1216.9,-1077.44 1185.1,-1012.24 1184.2,-1010.44 1183.2,-1008.74 1182,-1007.02"/>
<polygon fill="black" stroke="black" points="1184.51,-1004.58 1175.4,-999.17 1179.16,-1009.08 1184.51,-1004.58"/>
</g>
<!-- 263 -->
<g id="node51" class="node">
<title>263</title>
<ellipse fill="none" stroke="black" cx="1081.3" cy="-1424.24" rx="28.7" ry="18"/>
<text text-anchor="middle" x="1081.3" y="-1420.54" font-family="Times,serif" font-size="14.00">263</text>
</g>
<!-- 263&#45;&gt;163 -->
<g id="edge62" class="edge">
<title>263&#45;&gt;163</title>
<path fill="none" stroke="black" d="M1062.6,-1410.64C1034.5,-1388.94 982.51,-1347.84 977.53,-1338.24 955.07,-1294.94 995.45,-1152.34 959.53,-1119.24 940.84,-1102.04 924.77,-1107.34 902.34,-1119.24 886.08,-1127.94 874.6,-1145.24 867.22,-1160.24"/>
<polygon fill="black" stroke="black" points="863.9,-1159.09 862.96,-1169.64 870.28,-1161.98 863.9,-1159.09"/>
</g>
<!-- 263&#45;&gt;183 -->
<g id="edge63" class="edge">
<title>263&#45;&gt;183</title>
<path fill="none" stroke="black" d="M1063.3,-1409.94C1059.4,-1406.14 1055.6,-1401.74 1052.7,-1397.24 1040.1,-1377.84 1043,-1369.94 1034.7,-1348.24 1029.3,-1333.94 1023,-1318.14 1017.9,-1305.14"/>
<polygon fill="black" stroke="black" points="1021.12,-1303.77 1014.2,-1295.74 1014.61,-1306.33 1021.12,-1303.77"/>
</g>
<!-- 265 -->
<g id="node52" class="node">
<title>265</title>
<ellipse fill="none" stroke="black" cx="1252.5" cy="-1093.24" rx="28.7" ry="18"/>
<text text-anchor="middle" x="1252.5" y="-1089.54" font-family="Times,serif" font-size="14.00">265</text>
</g>
<!-- 265&#45;&gt;180 -->
<g id="edge64" class="edge">
<title>265&#45;&gt;180</title>
<path fill="none" stroke="black" d="M1226.7,-1101.24C1217.7,-1105.44 1208.5,-1111.64 1203.1,-1120.24 1179.7,-1158.24 1217.4,-1490.44 1185.1,-1521.24 1166.7,-1538.84 1147.1,-1537.94 1127.9,-1521.24 1085.8,-1484.84 1135.2,-1446.94 1109.9,-1397.24 1109,-1395.44 1107.9,-1393.74 1106.7,-1392.04"/>
<polygon fill="black" stroke="black" points="1109.23,-1389.62 1100.1,-1384.24 1103.89,-1394.14 1109.23,-1389.62"/>
</g>
<!-- 265&#45;&gt;215 -->
<g id="edge65" class="edge">
<title>265&#45;&gt;215</title>
<path fill="none" stroke="black" d="M1230.2,-1104.94C1221.8,-1109.64 1212,-1115.14 1203.1,-1120.24 1197.8,-1123.34 1192.2,-1126.64 1186.7,-1129.84"/>
<polygon fill="black" stroke="black" points="1184.73,-1126.94 1177.9,-1135.04 1188.29,-1132.97 1184.73,-1126.94"/>
</g>
<!-- 265&#45;&gt;222 -->
<g id="edge66" class="edge">
<title>265&#45;&gt;222</title>
<path fill="none" stroke="black" d="M1227.3,-1084.14C1218.7,-1079.84 1209.5,-1073.94 1203.1,-1066.24 1187,-1046.84 1198.5,-1033.74 1185.1,-1012.24 1184.1,-1010.54 1182.9,-1008.94 1181.6,-1007.26"/>
<polygon fill="black" stroke="black" points="1183.98,-1004.68 1174.7,-999.56 1178.77,-1009.35 1183.98,-1004.68"/>
</g>
<!-- 270 -->
<g id="node53" class="node">
<title>270</title>
<ellipse fill="none" stroke="black" cx="1252.5" cy="-1039.24" rx="28.7" ry="18"/>
<text text-anchor="middle" x="1252.5" y="-1035.54" font-family="Times,serif" font-size="14.00">270</text>
</g>
<!-- 270&#45;&gt;180 -->
<g id="edge67" class="edge">
<title>270&#45;&gt;180</title>
<path fill="none" stroke="black" d="M1226.7,-1047.24C1217.7,-1051.44 1208.5,-1057.64 1203.1,-1066.24 1178.8,-1105.74 1218.6,-1451.24 1185.1,-1483.24 1166.8,-1500.84 1147.7,-1499.34 1127.9,-1483.24 1097.6,-1458.64 1128.7,-1431.54 1109.9,-1397.24 1109,-1395.54 1107.8,-1393.74 1106.6,-1392.14"/>
<polygon fill="black" stroke="black" points="1109.07,-1389.65 1099.9,-1384.34 1103.76,-1394.21 1109.07,-1389.65"/>
</g>
<!-- 270&#45;&gt;220 -->
<g id="edge68" class="edge">
<title>270&#45;&gt;220</title>
<path fill="none" stroke="black" d="M1223.8,-1039.24C1214.9,-1039.24 1204.9,-1039.24 1195.4,-1039.24"/>
<polygon fill="black" stroke="black" points="1195.3,-1035.74 1185.3,-1039.24 1195.3,-1042.74 1195.3,-1035.74"/>
</g>
<!-- 270&#45;&gt;222 -->
<g id="edge69" class="edge">
<title>270&#45;&gt;222</title>
<path fill="none" stroke="black" d="M1230.2,-1027.54C1221.8,-1022.84 1212,-1017.34 1203.1,-1012.24 1197.8,-1009.24 1192.2,-1005.92 1186.7,-1002.72"/>
<polygon fill="black" stroke="black" points="1188.28,-999.59 1177.9,-997.48 1184.7,-1005.61 1188.28,-999.59"/>
</g>
<!-- 275 -->
<g id="node54" class="node">
<title>275</title>
<ellipse fill="none" stroke="black" cx="1252.5" cy="-985.27" rx="28.7" ry="18"/>
<text text-anchor="middle" x="1252.5" y="-981.57" font-family="Times,serif" font-size="14.00">275</text>
</g>
<!-- 275&#45;&gt;180 -->
<g id="edge70" class="edge">
<title>275&#45;&gt;180</title>
<path fill="none" stroke="black" d="M1226.6,-993.27C1217.7,-997.47 1208.5,-1003.59 1203.1,-1012.24 1177.9,-1053.24 1219.9,-1411.94 1185.1,-1445.24 1166.8,-1462.84 1148.8,-1459.74 1127.9,-1445.24 1109.2,-1432.34 1122.4,-1416.34 1109.9,-1397.24 1108.8,-1395.54 1107.6,-1393.94 1106.3,-1392.34"/>
<polygon fill="black" stroke="black" points="1108.68,-1389.76 1099.4,-1384.64 1103.47,-1394.43 1108.68,-1389.76"/>
</g>
<!-- 275&#45;&gt;222 -->
<g id="edge71" class="edge">
<title>275&#45;&gt;222</title>
<path fill="none" stroke="black" d="M1223.8,-985.27C1214.9,-985.27 1204.9,-985.27 1195.4,-985.27"/>
<polygon fill="black" stroke="black" points="1195.3,-981.77 1185.3,-985.27 1195.3,-988.77 1195.3,-981.77"/>
</g>
<!-- 275&#45;&gt;225 -->
<g id="edge72" class="edge">
<title>275&#45;&gt;225</title>
<path fill="none" stroke="black" d="M1228.4,-975.13C1219.5,-970.23 1209.8,-963.59 1203.1,-955.27 1188,-936.55 1193.8,-926.68 1185.1,-904.27 1180.2,-891.5 1174.3,-877.5 1169.2,-865.77"/>
<polygon fill="black" stroke="black" points="1172.39,-864.32 1165.2,-856.53 1165.96,-867.1 1172.39,-864.32"/>
</g>
<!-- 275&#45;&gt;235 -->
<g id="edge73" class="edge">
<title>275&#45;&gt;235</title>
<path fill="none" stroke="black" d="M1227.7,-976.25C1218.4,-971.48 1208.7,-964.62 1203.1,-955.27 1166,-892.68 1215.2,-694.55 1185.1,-628.27 1184.3,-626.44 1183.3,-624.67 1182.1,-622.96"/>
<polygon fill="black" stroke="black" points="1184.66,-620.57 1175.6,-615.08 1179.26,-625.03 1184.66,-620.57"/>
</g>
<!-- 280 -->
<g id="node55" class="node">
<title>280</title>
<ellipse fill="none" stroke="black" cx="1252.5" cy="-928.27" rx="28.7" ry="18"/>
<text text-anchor="middle" x="1252.5" y="-924.57" font-family="Times,serif" font-size="14.00">280</text>
</g>
<!-- 280&#45;&gt;180 -->
<g id="edge74" class="edge">
<title>280&#45;&gt;180</title>
<path fill="none" stroke="black" d="M1227.6,-937.25C1218.3,-942.02 1208.6,-948.88 1203.1,-958.27 1178,-1001.4 1221.1,-1372.64 1185.1,-1407.24 1166.8,-1424.84 1151.9,-1415.74 1127.9,-1407.24 1122.8,-1405.44 1114.2,-1398.84 1105.8,-1391.74"/>
<polygon fill="black" stroke="black" points="1108.05,-1389.06 1098.2,-1385.14 1103.46,-1394.34 1108.05,-1389.06"/>
</g>
<!-- 280&#45;&gt;222 -->
<g id="edge75" class="edge">
<title>280&#45;&gt;222</title>
<path fill="none" stroke="black" d="M1231.1,-940.64C1218.1,-948.56 1200.9,-958.95 1186.5,-967.72"/>
<polygon fill="black" stroke="black" points="1184.64,-964.76 1177.9,-972.93 1188.27,-970.75 1184.64,-964.76"/>
</g>
<!-- 280&#45;&gt;230 -->
<g id="edge76" class="edge">
<title>280&#45;&gt;230</title>
<path fill="none" stroke="black" d="M1227,-920.03C1218.1,-915.81 1208.8,-909.73 1203.1,-901.27 1185.2,-874.72 1191.3,-789.7 1185.1,-758.27 1180,-732.32 1172,-703.25 1165.9,-682.63"/>
<polygon fill="black" stroke="black" points="1169.24,-681.6 1163.1,-672.96 1162.52,-683.54 1169.24,-681.6"/>
</g>
<!-- 282 -->
<g id="node56" class="node">
<title>282</title>
<ellipse fill="none" stroke="black" cx="1252.5" cy="-372.27" rx="28.7" ry="18"/>
<text text-anchor="middle" x="1252.5" y="-368.57" font-family="Times,serif" font-size="14.00">282</text>
</g>
<!-- 282&#45;&gt;180 -->
<g id="edge77" class="edge">
<title>282&#45;&gt;180</title>
<path fill="none" stroke="black" d="M1226.5,-380.21C1217.6,-384.39 1208.4,-390.53 1203.1,-399.27 1175.3,-445.73 1223.8,-1336.34 1185.1,-1374.24 1167.2,-1391.84 1138.1,-1388.94 1115.4,-1382.74"/>
<polygon fill="black" stroke="black" points="1116.39,-1379.39 1105.8,-1379.84 1114.36,-1386.09 1116.39,-1379.39"/>
</g>
<!-- 282&#45;&gt;230 -->
<g id="edge78" class="edge">
<title>282&#45;&gt;230</title>
<path fill="none" stroke="black" d="M1226.8,-380.38C1217.9,-384.58 1208.6,-390.69 1203.1,-399.27 1175.6,-442.24 1206.7,-582.03 1185.1,-628.27 1184.3,-630.09 1183.2,-631.86 1182.1,-633.56"/>
<polygon fill="black" stroke="black" points="1179.25,-631.52 1175.5,-641.42 1184.61,-636.02 1179.25,-631.52"/>
</g>
<!-- 283 -->
<g id="node57" class="node">
<title>283</title>
<ellipse fill="none" stroke="black" cx="1156.5" cy="-1347.24" rx="28.7" ry="18"/>
<text text-anchor="middle" x="1156.5" y="-1343.54" font-family="Times,serif" font-size="14.00">283</text>
</g>
<!-- 283&#45;&gt;180 -->
<g id="edge79" class="edge">
<title>283&#45;&gt;180</title>
<path fill="none" stroke="black" d="M1130.3,-1355.14C1126,-1356.54 1121.5,-1357.94 1117,-1359.34"/>
<polygon fill="black" stroke="black" points="1115.76,-1356.07 1107.3,-1362.44 1117.89,-1362.73 1115.76,-1356.07"/>
</g>
<!-- 283&#45;&gt;183 -->
<g id="edge80" class="edge">
<title>283&#45;&gt;183</title>
<path fill="none" stroke="black" d="M1131.4,-1338.54C1110.3,-1330.64 1079,-1318.34 1052.7,-1305.24 1047.1,-1302.54 1041.3,-1299.24 1035.7,-1296.04"/>
<polygon fill="black" stroke="black" points="1037.18,-1292.85 1026.8,-1290.74 1033.6,-1298.87 1037.18,-1292.85"/>
</g>
<!-- 284 -->
<g id="node58" class="node">
<title>284</title>
<ellipse fill="none" stroke="black" cx="1156.5" cy="-931.27" rx="28.7" ry="18"/>
<text text-anchor="middle" x="1156.5" y="-927.57" font-family="Times,serif" font-size="14.00">284</text>
</g>
<!-- 284&#45;&gt;180 -->
<g id="edge81" class="edge">
<title>284&#45;&gt;180</title>
<path fill="none" stroke="black" d="M1137.5,-945.08C1133.7,-948.92 1130.1,-953.38 1127.9,-958.27 1096.2,-1028.64 1127.3,-1230.04 1109.9,-1305.24 1106.9,-1318.54 1101.3,-1332.54 1095.9,-1344.04"/>
<polygon fill="black" stroke="black" points="1092.7,-1342.62 1091.5,-1353.14 1099,-1345.67 1092.7,-1342.62"/>
</g>
<!-- 284&#45;&gt;183 -->
<g id="edge82" class="edge">
<title>284&#45;&gt;183</title>
<path fill="none" stroke="black" d="M1138.5,-945.64C1134.6,-949.45 1130.8,-953.78 1127.9,-958.27 1063.3,-1057.64 1077.2,-1097.54 1034.7,-1208.24 1029.2,-1222.54 1023,-1238.44 1017.8,-1251.44"/>
<polygon fill="black" stroke="black" points="1014.55,-1250.16 1014.1,-1260.74 1021.05,-1252.75 1014.55,-1250.16"/>
</g>
<!-- 285 -->
<g id="node59" class="node">
<title>285</title>
<ellipse fill="none" stroke="black" cx="1252.5" cy="-874.27" rx="28.7" ry="18"/>
<text text-anchor="middle" x="1252.5" y="-870.57" font-family="Times,serif" font-size="14.00">285</text>
</g>
<!-- 285&#45;&gt;180 -->
<g id="edge83" class="edge">
<title>285&#45;&gt;180</title>
<path fill="none" stroke="black" d="M1224,-872.28C1195.2,-871.87 1150.9,-876.32 1127.9,-904.27 1099.6,-938.71 1119.8,-1261.74 1109.9,-1305.24 1106.9,-1318.54 1101.3,-1332.54 1096,-1344.04"/>
<polygon fill="black" stroke="black" points="1092.8,-1342.62 1091.6,-1353.14 1099.1,-1345.67 1092.8,-1342.62"/>
</g>
<!-- 285&#45;&gt;222 -->
<g id="edge84" class="edge">
<title>285&#45;&gt;222</title>
<path fill="none" stroke="black" d="M1227.3,-883.32C1218.6,-887.61 1209.4,-893.52 1203.1,-901.27 1186.3,-921.86 1199,-935.64 1185.1,-958.27 1184.1,-959.99 1182.9,-961.67 1181.6,-963.3"/>
<polygon fill="black" stroke="black" points="1178.76,-961.23 1174.7,-971.01 1183.98,-965.9 1178.76,-961.23"/>
</g>
<!-- 285&#45;&gt;225 -->
<g id="edge85" class="edge">
<title>285&#45;&gt;225</title>
<path fill="none" stroke="black" d="M1227.3,-865.26C1216.3,-861.18 1203.2,-856.28 1191.3,-851.84"/>
<polygon fill="black" stroke="black" points="1192.19,-848.44 1181.6,-848.25 1189.76,-855.01 1192.19,-848.44"/>
</g>
<!-- 285&#45;&gt;235 -->
<g id="edge86" class="edge">
<title>285&#45;&gt;235</title>
<path fill="none" stroke="black" d="M1229.5,-863.42C1219.7,-857.41 1209.1,-848.97 1203.1,-838.27 1157.5,-756.44 1225.1,-712.99 1185.1,-628.27 1184.3,-626.45 1183.2,-624.69 1182.1,-622.99"/>
<polygon fill="black" stroke="black" points="1184.61,-620.54 1175.5,-615.13 1179.25,-625.04 1184.61,-620.54"/>
</g>
<!-- 288 -->
<g id="node60" class="node">
<title>288</title>
<ellipse fill="none" stroke="black" cx="1156.5" cy="-785.27" rx="28.7" ry="18"/>
<text text-anchor="middle" x="1156.5" y="-781.57" font-family="Times,serif" font-size="14.00">288</text>
</g>
<!-- 288&#45;&gt;180 -->
<g id="edge87" class="edge">
<title>288&#45;&gt;180</title>
<path fill="none" stroke="black" d="M1137.4,-799.06C1133.6,-802.89 1130.1,-807.37 1127.9,-812.27 1105.8,-862.4 1121.8,-1251.74 1109.9,-1305.24 1107,-1318.54 1101.4,-1332.54 1096,-1344.14"/>
<polygon fill="black" stroke="black" points="1092.8,-1342.72 1091.6,-1353.24 1099.1,-1345.77 1092.8,-1342.72"/>
</g>
<!-- 288&#45;&gt;233 -->
<g id="edge88" class="edge">
<title>288&#45;&gt;233</title>
<path fill="none" stroke="black" d="M1137.4,-799.04C1133.6,-802.88 1130.1,-807.36 1127.9,-812.27 1099.5,-877.35 1138.4,-1386.24 1109.9,-1451.24 1109.1,-1453.14 1108.1,-1454.94 1107,-1456.64"/>
<polygon fill="black" stroke="black" points="1104.15,-1454.6 1100.5,-1464.54 1109.56,-1459.05 1104.15,-1454.6"/>
</g>
<!-- 290 -->
<g id="node61" class="node">
<title>290</title>
<ellipse fill="none" stroke="black" cx="1252.5" cy="-811.27" rx="28.7" ry="18"/>
<text text-anchor="middle" x="1252.5" y="-807.57" font-family="Times,serif" font-size="14.00">290</text>
</g>
<!-- 290&#45;&gt;180 -->
<g id="edge89" class="edge">
<title>290&#45;&gt;180</title>
<path fill="none" stroke="black" d="M1235.5,-796.41C1219.7,-782.15 1196.3,-762.2 1185.1,-758.27 1161.1,-749.87 1146.2,-740.6 1127.9,-758.27 1106.1,-779.42 1116.5,-1275.54 1109.9,-1305.24 1107,-1318.54 1101.4,-1332.54 1096,-1344.14"/>
<polygon fill="black" stroke="black" points="1092.8,-1342.72 1091.6,-1353.24 1099.1,-1345.77 1092.8,-1342.72"/>
</g>
<!-- 290&#45;&gt;222 -->
<g id="edge90" class="edge">
<title>290&#45;&gt;222</title>
<path fill="none" stroke="black" d="M1229.6,-822.48C1220,-828.53 1209.4,-836.89 1203.1,-847.27 1177.2,-889.98 1208.1,-913.91 1185.1,-958.27 1184.2,-960.06 1183.1,-961.79 1181.9,-963.47"/>
<polygon fill="black" stroke="black" points="1179.06,-961.42 1175.2,-971.28 1184.37,-965.97 1179.06,-961.42"/>
</g>
<!-- 290&#45;&gt;240 -->
<g id="edge91" class="edge">
<title>290&#45;&gt;240</title>
<path fill="none" stroke="black" d="M1231.2,-799.08C1221,-791.78 1209.4,-781.55 1203.1,-769.27 1163.4,-691.83 1222.5,-652.86 1185.1,-574.27 1184.3,-572.46 1183.2,-570.7 1182.1,-569"/>
<polygon fill="black" stroke="black" points="1184.61,-566.55 1175.5,-561.14 1179.25,-571.05 1184.61,-566.55"/>
</g>
<!-- 290&#45;&gt;284 -->
<g id="edge92" class="edge">
<title>290&#45;&gt;284</title>
<path fill="none" stroke="black" d="M1231.1,-823.56C1221.8,-829.84 1211.1,-838.09 1203.1,-847.27 1188.4,-864.25 1176.5,-886.77 1168.5,-904.22"/>
<polygon fill="black" stroke="black" points="1165.1,-903.27 1164.3,-913.83 1171.51,-906.07 1165.1,-903.27"/>
</g>
<!-- 295 -->
<g id="node62" class="node">
<title>295</title>
<ellipse fill="none" stroke="black" cx="1252.5" cy="-742.27" rx="28.7" ry="18"/>
<text text-anchor="middle" x="1252.5" y="-738.57" font-family="Times,serif" font-size="14.00">295</text>
</g>
<!-- 295&#45;&gt;180 -->
<g id="edge93" class="edge">
<title>295&#45;&gt;180</title>
<path fill="none" stroke="black" d="M1226.9,-733.62C1198.9,-725.53 1153.7,-718.09 1127.9,-743.27 1105.6,-765.1 1116.6,-1274.74 1109.9,-1305.24 1107,-1318.54 1101.4,-1332.54 1096.1,-1344.14"/>
<polygon fill="black" stroke="black" points="1092.9,-1342.73 1091.6,-1353.24 1099.17,-1345.83 1092.9,-1342.73"/>
</g>
<!-- 295&#45;&gt;222 -->
<g id="edge94" class="edge">
<title>295&#45;&gt;222</title>
<path fill="none" stroke="black" d="M1231.3,-754.49C1221,-761.8 1209.5,-772.03 1203.1,-784.27 1167.2,-853.25 1218.9,-888.26 1185.1,-958.27 1184.2,-960.08 1183.2,-961.84 1182,-963.53"/>
<polygon fill="black" stroke="black" points="1179.16,-961.48 1175.4,-971.38 1184.51,-965.98 1179.16,-961.48"/>
</g>
<!-- 295&#45;&gt;245 -->
<g id="edge95" class="edge">
<title>295&#45;&gt;245</title>
<path fill="none" stroke="black" d="M1233.2,-728.61C1222.5,-719.56 1209.9,-706.72 1203.1,-692.27 1170.6,-622.62 1218.6,-589.47 1185.1,-520.27 1184.2,-518.46 1183.2,-516.7 1182,-515.01"/>
<polygon fill="black" stroke="black" points="1184.51,-512.57 1175.4,-507.16 1179.16,-517.07 1184.51,-512.57"/>
</g>
<!-- 299 -->
<g id="node63" class="node">
<title>299</title>
<ellipse fill="none" stroke="black" cx="1252.5" cy="-632.27" rx="28.7" ry="18"/>
<text text-anchor="middle" x="1252.5" y="-628.57" font-family="Times,serif" font-size="14.00">299</text>
</g>
<!-- 299&#45;&gt;222 -->
<g id="edge96" class="edge">
<title>299&#45;&gt;222</title>
<path fill="none" stroke="black" d="M1239.1,-648.38C1227.5,-664.38 1210.9,-690.1 1203.1,-715.27 1171,-818.7 1230.8,-860.07 1185.1,-958.27 1184.3,-960.1 1183.2,-961.86 1182.1,-963.56"/>
<polygon fill="black" stroke="black" points="1179.24,-961.52 1175.5,-971.43 1184.61,-966.02 1179.24,-961.52"/>
</g>
<!-- 299&#45;&gt;288 -->
<g id="edge97" class="edge">
<title>299&#45;&gt;288</title>
<path fill="none" stroke="black" d="M1241.3,-648.94C1224.8,-675.72 1192.4,-728.53 1173.1,-759.98"/>
<polygon fill="black" stroke="black" points="1170.03,-758.3 1167.7,-768.63 1175.97,-762.01 1170.03,-758.3"/>
</g>
<!-- 300 -->
<g id="node64" class="node">
<title>300</title>
<ellipse fill="none" stroke="black" cx="1391.4" cy="-708.27" rx="28.7" ry="18"/>
<text text-anchor="middle" x="1391.4" y="-704.57" font-family="Times,serif" font-size="14.00">300</text>
</g>
<!-- 300&#45;&gt;200 -->
<g id="edge98" class="edge">
<title>300&#45;&gt;200</title>
<path fill="none" stroke="black" d="M1362.8,-710.04C1321.1,-711.02 1242.8,-706.03 1203.1,-659.27 1175.2,-626.44 1215.4,-496.93 1185.1,-466.27 1148.6,-429.24 1083.7,-432.52 1043.2,-439.22"/>
<polygon fill="black" stroke="black" points="1042.42,-435.81 1033.2,-441.03 1043.66,-442.7 1042.42,-435.81"/>
</g>
<!-- 300&#45;&gt;299 -->
<g id="edge99" class="edge">
<title>300&#45;&gt;299</title>
<path fill="none" stroke="black" d="M1366.8,-698.68C1352.8,-692.75 1335.1,-684.69 1319.9,-676.27 1311.5,-671.6 1309.9,-669.59 1301.9,-664.27 1295.3,-659.91 1288.2,-655.21 1281.6,-650.8"/>
<polygon fill="black" stroke="black" points="1283.08,-647.59 1272.8,-645.02 1279.24,-653.44 1283.08,-647.59"/>
</g>
<!-- 301 -->
<g id="node65" class="node">
<title>301</title>
<ellipse fill="none" stroke="black" cx="1509.5" cy="-861.27" rx="28.7" ry="18"/>
<text text-anchor="middle" x="1509.5" y="-857.57" font-family="Times,serif" font-size="14.00">301</text>
</g>
<!-- 301&#45;&gt;195 -->
<g id="edge100" class="edge">
<title>301&#45;&gt;195</title>
<path fill="none" stroke="black" d="M1495.4,-845.54C1489.9,-838.06 1484.1,-828.7 1480.9,-819.27 1462.1,-763.54 1496.9,-603.23 1462.9,-555.27 1417.9,-491.78 1374.7,-513.96 1301.9,-486.27 1258.6,-469.81 1237.2,-484.63 1203.1,-453.27 1188.2,-439.52 1196.5,-428.08 1185.1,-411.27 1170.7,-389.95 1015.7,-234.27 1007.1,-234.27 1007.1,-234.27 1007.1,-234.27 854.74,-234.27 817.01,-234.27 773.96,-231.66 743.98,-229.42"/>
<polygon fill="black" stroke="black" points="744.19,-225.93 733.95,-228.65 743.65,-232.91 744.19,-225.93"/>
</g>
<!-- 301&#45;&gt;200 -->
<g id="edge101" class="edge">
<title>301&#45;&gt;200</title>
<path fill="none" stroke="black" d="M1495.5,-845.49C1490.1,-838 1484.2,-828.64 1480.9,-819.27 1454.6,-745.19 1505.3,-709.46 1462.9,-643.27 1390.6,-530.48 1286.8,-594.9 1203.1,-490.27 1186.8,-469.86 1205.8,-450.23 1185.1,-434.27 1143.3,-402.07 1078.4,-418.46 1039.6,-433.05"/>
<polygon fill="black" stroke="black" points="1037.84,-429.98 1029.8,-436.88 1040.39,-436.5 1037.84,-429.98"/>
</g>
<!-- 301&#45;&gt;255 -->
<g id="edge102" class="edge">
<title>301&#45;&gt;255</title>
<path fill="none" stroke="black" d="M1506.2,-879.27C1501.4,-917.29 1489.9,-1008.64 1480.9,-1085.24 1476.7,-1121.04 1486.9,-1219.44 1462.9,-1246.24 1419.7,-1294.54 1338.6,-1298.94 1291,-1296.74"/>
<polygon fill="black" stroke="black" points="1290.99,-1293.24 1280.8,-1296.14 1290.58,-1300.23 1290.99,-1293.24"/>
</g>
<!-- 301&#45;&gt;260 -->
<g id="edge103" class="edge">
<title>301&#45;&gt;260</title>
<path fill="none" stroke="black" d="M1506.3,-879.58C1497.6,-951.56 1465.9,-1211.24 1462.9,-1214.24 1417.4,-1259.34 1336.5,-1254.54 1289.6,-1246.94"/>
<polygon fill="black" stroke="black" points="1290.06,-1243.47 1279.6,-1245.14 1288.82,-1250.36 1290.06,-1243.47"/>
</g>
<!-- 301&#45;&gt;265 -->
<g id="edge104" class="edge">
<title>301&#45;&gt;265</title>
<path fill="none" stroke="black" d="M1506.3,-879.3C1498,-946.69 1468.8,-1180.14 1462.9,-1185.24 1414.9,-1226.94 1370.5,-1223.74 1319.9,-1185.24 1296.1,-1167.14 1320.4,-1143.84 1301.9,-1120.24 1297.9,-1115.14 1292.5,-1110.74 1286.9,-1107.24"/>
<polygon fill="black" stroke="black" points="1288.34,-1104.04 1277.9,-1102.24 1284.94,-1110.16 1288.34,-1104.04"/>
</g>
<!-- 301&#45;&gt;270 -->
<g id="edge105" class="edge">
<title>301&#45;&gt;270</title>
<path fill="none" stroke="black" d="M1504,-879.22C1498,-900.1 1485.3,-934.37 1462.9,-955.27 1413.6,-1001.23 1336,-1023.34 1290.4,-1032.94"/>
<polygon fill="black" stroke="black" points="1289.43,-1029.57 1280.3,-1034.94 1290.79,-1036.44 1289.43,-1029.57"/>
</g>
<!-- 301&#45;&gt;275 -->
<g id="edge106" class="edge">
<title>301&#45;&gt;275</title>
<path fill="none" stroke="black" d="M1497.1,-877.99C1488.7,-889.07 1476.5,-903.18 1462.9,-912.27 1408.5,-948.57 1334.1,-968.84 1290.2,-978.37"/>
<polygon fill="black" stroke="black" points="1289.27,-974.99 1280.2,-980.46 1290.71,-981.85 1289.27,-974.99"/>
</g>
<!-- 301&#45;&gt;280 -->
<g id="edge107" class="edge">
<title>301&#45;&gt;280</title>
<path fill="none" stroke="black" d="M1486.1,-872.12C1478.8,-875.37 1470.6,-878.74 1462.9,-881.27 1403.8,-900.65 1332.8,-914.74 1290.5,-922.2"/>
<polygon fill="black" stroke="black" points="1289.66,-918.8 1280.4,-923.95 1290.85,-925.7 1289.66,-918.8"/>
</g>
<!-- 301&#45;&gt;285 -->
<g id="edge108" class="edge">
<title>301&#45;&gt;285</title>
<path fill="none" stroke="black" d="M1480.7,-862.69C1434.8,-865.03 1343.1,-869.7 1291.4,-872.34"/>
<polygon fill="black" stroke="black" points="1291.11,-868.86 1281.3,-872.86 1291.47,-875.85 1291.11,-868.86"/>
</g>
<!-- 301&#45;&gt;290 -->
<g id="edge109" class="edge">
<title>301&#45;&gt;290</title>
<path fill="none" stroke="black" d="M1481.7,-856.02C1435.8,-847.01 1341.9,-828.61 1290.1,-818.44"/>
<polygon fill="black" stroke="black" points="1290.49,-814.95 1280,-816.46 1289.14,-821.82 1290.49,-814.95"/>
</g>
<!-- 301&#45;&gt;295 -->
<g id="edge110" class="edge">
<title>301&#45;&gt;295</title>
<path fill="none" stroke="black" d="M1494.2,-845.89C1485.8,-837.72 1474.6,-828.18 1462.9,-822.27 1404.7,-792.9 1379.4,-815.95 1319.9,-789.27 1305,-782.58 1290,-772.31 1278,-763.08"/>
<polygon fill="black" stroke="black" points="1279.9,-760.12 1269.9,-756.61 1275.53,-765.59 1279.9,-760.12"/>
</g>
<!-- 301&#45;&gt;299 -->
<g id="edge111" class="edge">
<title>301&#45;&gt;299</title>
<path fill="none" stroke="black" d="M1495.6,-845.45C1490.2,-837.95 1484.4,-828.6 1480.9,-819.27 1470.1,-790.28 1483.6,-704.21 1462.9,-681.27 1461.4,-679.64 1349.1,-653.95 1289.6,-640.44"/>
<polygon fill="black" stroke="black" points="1290.33,-637.02 1279.8,-638.22 1288.78,-643.85 1290.33,-637.02"/>
</g>
<!-- 301&#45;&gt;300 -->
<g id="edge112" class="edge">
<title>301&#45;&gt;300</title>
<path fill="none" stroke="black" d="M1496,-845.31C1490.6,-837.78 1484.7,-828.45 1480.9,-819.27 1466.2,-784.05 1487.7,-764.28 1462.9,-735.27 1454.3,-725.22 1441.5,-718.89 1429.2,-714.92"/>
<polygon fill="black" stroke="black" points="1430.07,-711.53 1419.5,-712.22 1428.2,-718.28 1430.07,-711.53"/>
</g>
<!-- 302 -->
<g id="node66" class="node">
<title>302</title>
<ellipse fill="none" stroke="black" cx="1391.4" cy="-156.27" rx="28.7" ry="18"/>
<text text-anchor="middle" x="1391.4" y="-152.57" font-family="Times,serif" font-size="14.00">302</text>
</g>
<!-- 302&#45;&gt;102 -->
<g id="edge113" class="edge">
<title>302&#45;&gt;102</title>
<path fill="none" stroke="black" d="M1366.6,-165.34C1352.9,-170.56 1335.4,-177.25 1319.9,-183.27 1217.8,-222.91 1097.2,-270.56 1040.2,-293.15"/>
<polygon fill="black" stroke="black" points="1038.62,-290.02 1030.6,-296.94 1041.19,-296.53 1038.62,-290.02"/>
</g>
<!-- 302&#45;&gt;290 -->
<g id="edge114" class="edge">
<title>302&#45;&gt;290</title>
<path fill="none" stroke="black" d="M1363.2,-159.36C1347.8,-162.64 1329.8,-169.38 1319.9,-183.27 1282.2,-236.37 1329.9,-710.43 1301.9,-769.27 1297.6,-778.42 1290.2,-786.38 1282.5,-792.83"/>
<polygon fill="black" stroke="black" points="1279.93,-790.39 1274.1,-799.23 1284.18,-795.96 1279.93,-790.39"/>
</g>
<!-- 303 -->
<g id="node67" class="node">
<title>303</title>
<ellipse fill="none" stroke="black" cx="1509.5" cy="-738.27" rx="28.7" ry="18"/>
<text text-anchor="middle" x="1509.5" y="-734.57" font-family="Times,serif" font-size="14.00">303</text>
</g>
<!-- 303&#45;&gt;185 -->
<g id="edge115" class="edge">
<title>303&#45;&gt;185</title>
<path fill="none" stroke="black" d="M1491.9,-752.47C1488,-756.36 1484,-760.75 1480.9,-765.27 1379.8,-911.4 1390,-967.97 1319.9,-1131.24 1311.7,-1150.34 1316.8,-1159.84 1301.9,-1174.24 1268.2,-1207.04 1234.4,-1177.14 1203.1,-1212.24 1181.8,-1236.24 1210.5,-1262.54 1185.1,-1282.24 1165,-1297.84 1150,-1294.94 1127.9,-1282.24 1114.1,-1274.34 1118.7,-1264.54 1109.9,-1251.24 1048.2,-1157.44 1051.1,-1113.24 959.53,-1048.24 940.24,-1034.54 914.89,-1026.64 894.19,-1022.04"/>
<polygon fill="black" stroke="black" points="894.64,-1018.57 884.15,-1020.04 893.27,-1025.43 894.64,-1018.57"/>
</g>
<!-- 303&#45;&gt;190 -->
<g id="edge116" class="edge">
<title>303&#45;&gt;190</title>
<path fill="none" stroke="black" d="M1509.3,-720.18C1509.8,-683.77 1505.9,-600.99 1462.9,-552.27 1381.1,-459.67 1287.7,-543.36 1203.1,-453.27 1184.6,-433.59 1204.2,-414.37 1185.1,-395.27 1167.9,-378.04 1141.6,-370.06 1119.9,-366.38"/>
<polygon fill="black" stroke="black" points="1120.4,-362.92 1110,-364.93 1119.39,-369.85 1120.4,-362.92"/>
</g>
<!-- 303&#45;&gt;288 -->
<g id="edge117" class="edge">
<title>303&#45;&gt;288</title>
<path fill="none" stroke="black" d="M1507.6,-720.03C1505.3,-692.3 1496.4,-640.13 1462.9,-615.27 1370.1,-546.37 1293.6,-533.47 1203.1,-605.27 1175.6,-627.11 1193.7,-648.18 1185.1,-682.27 1178.7,-707.93 1170.8,-737.02 1165.2,-757.73"/>
<polygon fill="black" stroke="black" points="1161.8,-756.88 1162.5,-767.45 1168.55,-758.76 1161.8,-756.88"/>
</g>
<!-- 303&#45;&gt;299 -->
<g id="edge118" class="edge">
<title>303&#45;&gt;299</title>
<path fill="none" stroke="black" d="M1504.9,-720.23C1499.6,-699.08 1487.7,-664.82 1462.9,-648.27 1411,-613.58 1334.8,-618.15 1290.1,-624.97"/>
<polygon fill="black" stroke="black" points="1289.3,-621.56 1280,-626.63 1290.44,-628.47 1289.3,-621.56"/>
</g>
<!-- 303&#45;&gt;300 -->
<g id="edge119" class="edge">
<title>303&#45;&gt;300</title>
<path fill="none" stroke="black" d="M1482.7,-731.61C1466.6,-727.46 1445.7,-722.05 1428.1,-717.49"/>
<polygon fill="black" stroke="black" points="1428.66,-714.02 1418.1,-714.91 1426.91,-720.8 1428.66,-714.02"/>
</g>
<!-- 304 -->
<g id="node68" class="node">
<title>304</title>
<ellipse fill="none" stroke="black" cx="1584.7" cy="-861.27" rx="28.7" ry="18"/>
<text text-anchor="middle" x="1584.7" y="-857.57" font-family="Times,serif" font-size="14.00">304</text>
</g>
<!-- 304&#45;&gt;301 -->
<g id="edge120" class="edge">
<title>304&#45;&gt;301</title>
<path fill="none" stroke="black" d="M1556,-861.27C1553.5,-861.27 1550.9,-861.27 1548.2,-861.27"/>
<polygon fill="black" stroke="black" points="1548.2,-857.77 1538.2,-861.27 1548.2,-864.77 1548.2,-857.77"/>
</g>
<!-- 314 -->
<g id="node69" class="node">
<title>314</title>
<ellipse fill="none" stroke="black" cx="1391.4" cy="-1158.24" rx="28.7" ry="18"/>
<text text-anchor="middle" x="1391.4" y="-1154.54" font-family="Times,serif" font-size="14.00">314</text>
</g>
<!-- 314&#45;&gt;265 -->
<g id="edge121" class="edge">
<title>314&#45;&gt;265</title>
<path fill="none" stroke="black" d="M1367.5,-1148.14C1353.6,-1141.94 1335.7,-1133.74 1319.9,-1126.24 1308.2,-1120.74 1295.4,-1114.44 1284.2,-1108.84"/>
<polygon fill="black" stroke="black" points="1285.8,-1105.73 1275.3,-1104.34 1282.65,-1111.98 1285.8,-1105.73"/>
</g>
<!-- 315 -->
<g id="node70" class="node">
<title>315</title>
<ellipse fill="none" stroke="black" cx="1509.5" cy="-1112.24" rx="28.7" ry="18"/>
<text text-anchor="middle" x="1509.5" y="-1108.54" font-family="Times,serif" font-size="14.00">315</text>
</g>
<!-- 315&#45;&gt;265 -->
<g id="edge122" class="edge">
<title>315&#45;&gt;265</title>
<path fill="none" stroke="black" d="M1480.7,-1110.24C1434.8,-1106.74 1343.1,-1099.94 1291.4,-1096.14"/>
<polygon fill="black" stroke="black" points="1291.55,-1092.65 1281.3,-1095.34 1290.99,-1099.62 1291.55,-1092.65"/>
</g>
<!-- 315&#45;&gt;314 -->
<g id="edge123" class="edge">
<title>315&#45;&gt;314</title>
<path fill="none" stroke="black" d="M1485,-1121.54C1468,-1128.34 1444.7,-1137.54 1425.7,-1145.04"/>
<polygon fill="black" stroke="black" points="1424.26,-1141.85 1416.3,-1148.84 1426.88,-1148.34 1424.26,-1141.85"/>
</g>
<!-- 320 -->
<g id="node71" class="node">
<title>320</title>
<ellipse fill="none" stroke="black" cx="1391.4" cy="-426.27" rx="28.7" ry="18"/>
<text text-anchor="middle" x="1391.4" y="-422.57" font-family="Times,serif" font-size="14.00">320</text>
</g>
<!-- 320&#45;&gt;270 -->
<g id="edge124" class="edge">
<title>320&#45;&gt;270</title>
<path fill="none" stroke="black" d="M1384.1,-443.91C1369.8,-484.92 1334.8,-590.16 1319.9,-681.27 1314,-717.62 1321.4,-981.03 1301.9,-1012.24 1298.4,-1017.94 1293.2,-1022.54 1287.5,-1026.24"/>
<polygon fill="black" stroke="black" points="1285.42,-1023.39 1278.3,-1031.24 1288.76,-1029.54 1285.42,-1023.39"/>
</g>
<!-- 330 -->
<g id="node72" class="node">
<title>330</title>
<ellipse fill="none" stroke="black" cx="1252.5" cy="-318.27" rx="28.7" ry="18"/>
<text text-anchor="middle" x="1252.5" y="-314.57" font-family="Times,serif" font-size="14.00">330</text>
</g>
<!-- 330&#45;&gt;225 -->
<g id="edge125" class="edge">
<title>330&#45;&gt;225</title>
<path fill="none" stroke="black" d="M1226.6,-326.26C1217.7,-330.46 1208.5,-336.58 1203.1,-345.27 1176,-389.54 1206.2,-764.8 1185.1,-812.27 1184.3,-814.11 1183.3,-815.89 1182.2,-817.6"/>
<polygon fill="black" stroke="black" points="1179.33,-815.58 1175.6,-825.49 1184.7,-820.07 1179.33,-815.58"/>
</g>
<!-- 330&#45;&gt;235 -->
<g id="edge126" class="edge">
<title>330&#45;&gt;235</title>
<path fill="none" stroke="black" d="M1226.8,-326.38C1217.9,-330.58 1208.6,-336.69 1203.1,-345.27 1175.6,-388.24 1206.7,-528.03 1185.1,-574.27 1184.3,-576.09 1183.2,-577.86 1182.1,-579.56"/>
<polygon fill="black" stroke="black" points="1179.25,-577.52 1175.5,-587.42 1184.61,-582.02 1179.25,-577.52"/>
</g>
<!-- 333 -->
<g id="node73" class="node">
<title>333</title>
<ellipse fill="none" stroke="black" cx="1081.3" cy="-1278.24" rx="28.7" ry="18"/>
<text text-anchor="middle" x="1081.3" y="-1274.54" font-family="Times,serif" font-size="14.00">333</text>
</g>
<!-- 333&#45;&gt;183 -->
<g id="edge127" class="edge">
<title>333&#45;&gt;183</title>
<path fill="none" stroke="black" d="M1052.7,-1278.24C1050.1,-1278.24 1047.5,-1278.24 1044.9,-1278.24"/>
<polygon fill="black" stroke="black" points="1044.8,-1274.74 1034.8,-1278.24 1044.8,-1281.74 1044.8,-1274.74"/>
</g>
<!-- 350 -->
<g id="node74" class="node">
<title>350</title>
<ellipse fill="none" stroke="black" cx="1252.5" cy="-75.28" rx="28.7" ry="18"/>
<text text-anchor="middle" x="1252.5" y="-71.58" font-family="Times,serif" font-size="14.00">350</text>
</g>
<!-- 350&#45;&gt;250 -->
<g id="edge128" class="edge">
<title>350&#45;&gt;250</title>
<path fill="none" stroke="black" d="M1240,-91.6C1215.3,-124.62 1153.5,-196.27 1082.3,-196.27 1082.3,-196.27 1082.3,-196.27 929.94,-196.27 724.22,-196.27 652.45,-524.98 635.46,-624.23"/>
<polygon fill="black" stroke="black" points="631.96,-623.97 633.78,-634.4 638.86,-625.11 631.96,-623.97"/>
</g>
<!-- 353 -->
<g id="node75" class="node">
<title>353</title>
<ellipse fill="none" stroke="black" cx="1584.7" cy="-1007.27" rx="28.7" ry="18"/>
<text text-anchor="middle" x="1584.7" y="-1003.57" font-family="Times,serif" font-size="14.00">353</text>
</g>
<!-- 353&#45;&gt;300 -->
<g id="edge129" class="edge">
<title>353&#45;&gt;300</title>
<path fill="none" stroke="black" d="M1565.7,-993.44C1561.9,-989.61 1558.3,-985.14 1556.1,-980.27 1543.6,-953.06 1559.8,-731.96 1538.1,-711.27 1509,-683.49 1459.8,-689.07 1426.7,-697.28"/>
<polygon fill="black" stroke="black" points="1425.75,-693.92 1417,-699.88 1427.57,-700.68 1425.75,-693.92"/>
</g>
<!-- 360 -->
<g id="node76" class="node">
<title>360</title>
<ellipse fill="none" stroke="black" cx="1391.4" cy="-102.28" rx="28.7" ry="18"/>
<text text-anchor="middle" x="1391.4" y="-98.58" font-family="Times,serif" font-size="14.00">360</text>
</g>
<!-- 360&#45;&gt;288 -->
<g id="edge130" class="edge">
<title>360&#45;&gt;288</title>
<path fill="none" stroke="black" d="M1364.5,-108.3C1350.3,-112.5 1333,-119.2 1319.9,-129.27 1249.6,-183.41 1232.3,-207.46 1203.1,-291.27 1174.5,-373.41 1198.5,-596.32 1185.1,-682.27 1181.1,-708.41 1172.9,-737.45 1166.6,-758.02"/>
<polygon fill="black" stroke="black" points="1163.23,-757.07 1163.5,-767.66 1169.89,-759.22 1163.23,-757.07"/>
</g>
<!-- 360&#45;&gt;299 -->
<g id="edge131" class="edge">
<title>360&#45;&gt;299</title>
<path fill="none" stroke="black" d="M1362.9,-105.53C1347.7,-108.86 1329.9,-115.61 1319.9,-129.27 1298.7,-158.4 1307.6,-417.68 1301.9,-453.27 1293.1,-508 1274.2,-570.08 1262.8,-604.87"/>
<polygon fill="black" stroke="black" points="1259.35,-604.17 1259.6,-614.76 1266.01,-606.33 1259.35,-604.17"/>
</g>
<!-- 360&#45;&gt;350 -->
<g id="edge132" class="edge">
<title>360&#45;&gt;350</title>
<path fill="none" stroke="black" d="M1364,-97.07C1343,-92.93 1313.4,-87.1 1290.2,-82.51"/>
<polygon fill="black" stroke="black" points="1290.79,-79.05 1280.3,-80.56 1289.44,-85.92 1290.79,-79.05"/>
</g>
<!-- 370 -->
<g id="node77" class="node">
<title>370</title>
<ellipse fill="none" stroke="black" cx="1156.5" cy="-1667.24" rx="28.7" ry="18"/>
<text text-anchor="middle" x="1156.5" y="-1663.54" font-family="Times,serif" font-size="14.00">370</text>
</g>
<!-- 370&#45;&gt;263 -->
<g id="edge133" class="edge">
<title>370&#45;&gt;263</title>
<path fill="none" stroke="black" d="M1139.6,-1652.64C1135.1,-1647.64 1130.6,-1641.64 1127.9,-1635.24 1095.6,-1559.74 1145.4,-1525.34 1109.9,-1451.24 1109.1,-1449.44 1108,-1447.74 1106.8,-1446.04"/>
<polygon fill="black" stroke="black" points="1109.3,-1443.58 1100.2,-1438.14 1103.93,-1448.06 1109.3,-1443.58"/>
</g>
<!-- 375 -->
<g id="node78" class="node">
<title>375</title>
<ellipse fill="none" stroke="black" cx="1391.4" cy="-372.27" rx="28.7" ry="18"/>
<text text-anchor="middle" x="1391.4" y="-368.57" font-family="Times,serif" font-size="14.00">375</text>
</g>
<!-- 375&#45;&gt;330 -->
<g id="edge134" class="edge">
<title>375&#45;&gt;330</title>
<path fill="none" stroke="black" d="M1366.5,-363.27C1352.9,-358.08 1335.4,-351.38 1319.9,-345.27 1308.9,-340.93 1297,-336.1 1286.2,-331.74"/>
<polygon fill="black" stroke="black" points="1287.38,-328.45 1276.8,-327.89 1284.73,-334.92 1287.38,-328.45"/>
</g>
<!-- external -->
<g id="node79" class="node">
<title>external</title>
<ellipse fill="none" stroke="black" cx="1252.5" cy="-426.27" rx="49.5" ry="18"/>
<text text-anchor="middle" x="1252.5" y="-422.57" font-family="Times,serif" font-size="14.00">external</text>
</g>
<!-- 375&#45;&gt;external -->
<g id="edge135" class="edge">
<title>375&#45;&gt;external</title>
<path fill="none" stroke="black" d="M1366.5,-381.27C1352.9,-386.47 1335.4,-393.16 1319.9,-399.27 1311.9,-402.43 1303.4,-405.84 1295.3,-409.15"/>
<polygon fill="black" stroke="black" points="1293.85,-405.96 1285.9,-412.96 1296.48,-412.45 1293.85,-405.96"/>
</g>
<!-- 382 -->
<g id="node80" class="node">
<title>382</title>
<ellipse fill="none" stroke="black" cx="1391.4" cy="-318.27" rx="28.7" ry="18"/>
<text text-anchor="middle" x="1391.4" y="-314.57" font-family="Times,serif" font-size="14.00">382</text>
</g>
<!-- 382&#45;&gt;217 -->
<g id="edge136" class="edge">
<title>382&#45;&gt;217</title>
<path fill="none" stroke="black" d="M1363.1,-321.34C1347.8,-324.6 1329.7,-331.35 1319.9,-345.27 1270.3,-415.67 1346.4,-1046.54 1301.9,-1120.24 1298.5,-1126.04 1293.3,-1130.64 1287.6,-1134.24"/>
<polygon fill="black" stroke="black" points="1285.51,-1131.4 1278.5,-1139.34 1288.94,-1137.51 1285.51,-1131.4"/>
</g>
<!-- 382&#45;&gt;282 -->
<g id="edge137" class="edge">
<title>382&#45;&gt;282</title>
<path fill="none" stroke="black" d="M1366.5,-327.27C1352.9,-332.47 1335.4,-339.16 1319.9,-345.27 1308.9,-349.61 1297,-354.44 1286.2,-358.81"/>
<polygon fill="black" stroke="black" points="1284.73,-355.64 1276.8,-362.66 1287.38,-362.11 1284.73,-355.64"/>
</g>
<!-- 382&#45;&gt;330 -->
<g id="edge138" class="edge">
<title>382&#45;&gt;330</title>
<path fill="none" stroke="black" d="M1362.7,-318.27C1342.2,-318.27 1314,-318.27 1291.4,-318.27"/>
<polygon fill="black" stroke="black" points="1291.2,-314.77 1281.2,-318.27 1291.2,-321.77 1291.2,-314.77"/>
</g>
<!-- 383 -->
<g id="node81" class="node">
<title>383</title>
<ellipse fill="none" stroke="black" cx="1252.5" cy="-1667.24" rx="28.7" ry="18"/>
<text text-anchor="middle" x="1252.5" y="-1663.54" font-family="Times,serif" font-size="14.00">383</text>
</g>
<!-- 383&#45;&gt;283 -->
<g id="edge139" class="edge">
<title>383&#45;&gt;283</title>
<path fill="none" stroke="black" d="M1227.1,-1658.94C1218.2,-1654.74 1208.9,-1648.64 1203.1,-1640.24 1173.5,-1597.74 1162.3,-1440.84 1158.8,-1375.84"/>
<polygon fill="black" stroke="black" points="1162.28,-1375.27 1158.3,-1365.44 1155.28,-1375.6 1162.28,-1375.27"/>
</g>
<!-- 383&#45;&gt;370 -->
<g id="edge140" class="edge">
<title>383&#45;&gt;370</title>
<path fill="none" stroke="black" d="M1223.8,-1667.24C1214.9,-1667.24 1204.9,-1667.24 1195.4,-1667.24"/>
<polygon fill="black" stroke="black" points="1195.3,-1663.74 1185.3,-1667.24 1195.3,-1670.74 1195.3,-1663.74"/>
</g>
<!-- 390 -->
<g id="node82" class="node">
<title>390</title>
<ellipse fill="none" stroke="black" cx="1391.4" cy="-264.27" rx="28.7" ry="18"/>
<text text-anchor="middle" x="1391.4" y="-260.57" font-family="Times,serif" font-size="14.00">390</text>
</g>
<!-- 390&#45;&gt;190 -->
<g id="edge141" class="edge">
<title>390&#45;&gt;190</title>
<path fill="none" stroke="black" d="M1362.6,-264.89C1325.3,-266.48 1257.5,-272.03 1203.1,-291.27 1168,-303.7 1131.9,-326.88 1108.4,-343.58"/>
<polygon fill="black" stroke="black" points="1106.07,-340.95 1100,-349.63 1110.16,-346.63 1106.07,-340.95"/>
</g>
<!-- 390&#45;&gt;217 -->
<g id="edge142" class="edge">
<title>390&#45;&gt;217</title>
<path fill="none" stroke="black" d="M1363.1,-267.33C1347.7,-270.6 1329.7,-277.34 1319.9,-291.27 1293.4,-328.94 1325.7,-1080.84 1301.9,-1120.24 1298.5,-1126.04 1293.3,-1130.64 1287.6,-1134.34"/>
<polygon fill="black" stroke="black" points="1285.58,-1131.46 1278.5,-1139.34 1288.95,-1137.6 1285.58,-1131.46"/>
</g>
<!-- 390&#45;&gt;282 -->
<g id="edge143" class="edge">
<title>390&#45;&gt;282</title>
<path fill="none" stroke="black" d="M1363.5,-268.77C1348.9,-272.51 1331.4,-279.25 1319.9,-291.27 1302.4,-309.55 1318,-325.79 1301.9,-345.27 1297.7,-350.33 1292.3,-354.61 1286.7,-358.17"/>
<polygon fill="black" stroke="black" points="1284.74,-355.26 1277.7,-363.17 1288.14,-361.38 1284.74,-355.26"/>
</g>
<!-- 400 -->
<g id="node83" class="node">
<title>400</title>
<ellipse fill="none" stroke="black" cx="1659.9" cy="-953.27" rx="28.7" ry="18"/>
<text text-anchor="middle" x="1659.9" y="-949.57" font-family="Times,serif" font-size="14.00">400</text>
</g>
<!-- 400&#45;&gt;304 -->
<g id="edge144" class="edge">
<title>400&#45;&gt;304</title>
<path fill="none" stroke="black" d="M1646.1,-937.25C1634.7,-922.87 1617.7,-901.57 1604.7,-885.18"/>
<polygon fill="black" stroke="black" points="1607.26,-882.78 1598.3,-877.11 1601.77,-887.12 1607.26,-882.78"/>
</g>
<!-- 402 -->
<g id="node84" class="node">
<title>402</title>
<ellipse fill="none" stroke="black" cx="1509.5" cy="-210.27" rx="28.7" ry="18"/>
<text text-anchor="middle" x="1509.5" y="-206.57" font-family="Times,serif" font-size="14.00">402</text>
</g>
<!-- 402&#45;&gt;302 -->
<g id="edge145" class="edge">
<title>402&#45;&gt;302</title>
<path fill="none" stroke="black" d="M1488.9,-197.7C1481,-192.87 1471.7,-187.52 1462.9,-183.27 1451.3,-177.66 1438.2,-172.37 1426.4,-167.99"/>
<polygon fill="black" stroke="black" points="1427.59,-164.7 1417,-164.53 1425.18,-171.27 1427.59,-164.7"/>
</g>
<!-- Solidity/EVM -->
<g id="node85" class="node">
<title>Solidity/EVM</title>
<ellipse fill="none" stroke="black" cx="1391.4" cy="-210.27" rx="71.5" ry="18"/>
<text text-anchor="middle" x="1391.4" y="-206.57" font-family="Times,serif" font-size="14.00">Solidity/EVM</text>
</g>
<!-- 402&#45;&gt;Solidity/EVM -->
<g id="edge146" class="edge">
<title>402&#45;&gt;Solidity/EVM</title>
<path fill="none" stroke="black" d="M1480.7,-210.27C1478.3,-210.27 1475.8,-210.27 1473.2,-210.27"/>
<polygon fill="black" stroke="black" points="1473,-206.77 1463,-210.27 1473,-213.77 1473,-206.77"/>
</g>
<!-- 405 -->
<g id="node86" class="node">
<title>405</title>
<ellipse fill="none" stroke="black" cx="1584.7" cy="-953.27" rx="28.7" ry="18"/>
<text text-anchor="middle" x="1584.7" y="-949.57" font-family="Times,serif" font-size="14.00">405</text>
</g>
<!-- 405&#45;&gt;255 -->
<g id="edge147" class="edge">
<title>405&#45;&gt;255</title>
<path fill="none" stroke="black" d="M1565.8,-967.18C1562,-971.01 1558.4,-975.45 1556.1,-980.27 1524.9,-1044.14 1563.3,-1072.74 1538.1,-1139.24 1517.5,-1193.64 1511.2,-1213.94 1462.9,-1246.24 1410.6,-1281.24 1336.1,-1290.54 1291.5,-1292.84"/>
<polygon fill="black" stroke="black" points="1291.25,-1289.35 1281.4,-1293.24 1291.53,-1296.35 1291.25,-1289.35"/>
</g>
<!-- 415 -->
<g id="node87" class="node">
<title>415</title>
<ellipse fill="none" stroke="black" cx="1659.9" cy="-861.27" rx="28.7" ry="18"/>
<text text-anchor="middle" x="1659.9" y="-857.57" font-family="Times,serif" font-size="14.00">415</text>
</g>
<!-- 415&#45;&gt;315 -->
<g id="edge148" class="edge">
<title>415&#45;&gt;315</title>
<path fill="none" stroke="black" d="M1638.8,-873.45C1609.7,-891.16 1558.9,-922.37 1556.1,-926.27 1538,-951.45 1522.1,-1038.74 1514.7,-1084.14"/>
<polygon fill="black" stroke="black" points="1511.21,-1083.84 1513.2,-1094.24 1518.13,-1084.87 1511.21,-1083.84"/>
</g>
<!-- 420 -->
<g id="node88" class="node">
<title>420</title>
<ellipse fill="none" stroke="black" cx="1509.5" cy="-426.27" rx="28.7" ry="18"/>
<text text-anchor="middle" x="1509.5" y="-422.57" font-family="Times,serif" font-size="14.00">420</text>
</g>
<!-- 420&#45;&gt;320 -->
<g id="edge149" class="edge">
<title>420&#45;&gt;320</title>
<path fill="none" stroke="black" d="M1480.7,-426.27C1465.7,-426.27 1447,-426.27 1430.7,-426.27"/>
<polygon fill="black" stroke="black" points="1430.4,-422.77 1420.4,-426.27 1430.4,-429.77 1430.4,-422.77"/>
</g>
<!-- 420&#45;&gt;375 -->
<g id="edge150" class="edge">
<title>420&#45;&gt;375</title>
<path fill="none" stroke="black" d="M1488.9,-413.7C1481,-408.87 1471.7,-403.52 1462.9,-399.27 1451.3,-393.66 1438.2,-388.37 1426.4,-383.99"/>
<polygon fill="black" stroke="black" points="1427.59,-380.7 1417,-380.53 1425.18,-387.27 1427.59,-380.7"/>
</g>
<!-- 430 -->
<g id="node89" class="node">
<title>430</title>
<ellipse fill="none" stroke="black" cx="1391.4" cy="-762.27" rx="28.7" ry="18"/>
<text text-anchor="middle" x="1391.4" y="-758.57" font-family="Times,serif" font-size="14.00">430</text>
</g>
<!-- 430&#45;&gt;280 -->
<g id="edge151" class="edge">
<title>430&#45;&gt;280</title>
<path fill="none" stroke="black" d="M1382.9,-779.58C1369.8,-807.92 1340.6,-864.75 1301.9,-901.27 1297.1,-905.78 1291.5,-909.8 1285.7,-913.28"/>
<polygon fill="black" stroke="black" points="1283.74,-910.37 1276.7,-918.28 1287.14,-916.49 1283.74,-910.37"/>
</g>
<!-- 430&#45;&gt;282 -->
<g id="edge152" class="edge">
<title>430&#45;&gt;282</title>
<path fill="none" stroke="black" d="M1362.9,-759.02C1347.7,-755.69 1329.9,-748.94 1319.9,-735.27 1275.9,-674.82 1341.5,-462.72 1301.9,-399.27 1298.4,-393.59 1293.2,-389.01 1287.5,-385.34"/>
<polygon fill="black" stroke="black" points="1288.75,-382.04 1278.3,-380.31 1285.4,-388.18 1288.75,-382.04"/>
</g>
<!-- 433 -->
<g id="node90" class="node">
<title>433</title>
<ellipse fill="none" stroke="black" cx="1509.5" cy="-102.28" rx="28.7" ry="18"/>
<text text-anchor="middle" x="1509.5" y="-98.58" font-family="Times,serif" font-size="14.00">433</text>
</g>
<!-- 433&#45;&gt;360 -->
<g id="edge153" class="edge">
<title>433&#45;&gt;360</title>
<path fill="none" stroke="black" d="M1480.7,-102.28C1465.7,-102.28 1447,-102.28 1430.7,-102.28"/>
<polygon fill="black" stroke="black" points="1430.4,-98.78 1420.4,-102.28 1430.4,-105.78 1430.4,-98.78"/>
</g>
<!-- 450 -->
<g id="node91" class="node">
<title>450</title>
<ellipse fill="none" stroke="black" cx="1659.9" cy="-118.27" rx="28.7" ry="18"/>
<text text-anchor="middle" x="1659.9" y="-114.57" font-family="Times,serif" font-size="14.00">450</text>
</g>
<!-- 450&#45;&gt;350 -->
<g id="edge154" class="edge">
<title>450&#45;&gt;350</title>
<path fill="none" stroke="black" d="M1640,-105.18C1606.3,-82.7 1532.8,-37.62 1462.9,-21.28 1401,-6.8 1379.8,0 1319.9,-21.28 1302.5,-27.48 1286.3,-40.45 1274.2,-52.12"/>
<polygon fill="black" stroke="black" points="1271.43,-49.95 1266.9,-59.53 1276.41,-54.86 1271.43,-49.95"/>
</g>
<!-- 453 -->
<g id="node92" class="node">
<title>453</title>
<ellipse fill="none" stroke="black" cx="1735.1" cy="-892.27" rx="28.7" ry="18"/>
<text text-anchor="middle" x="1735.1" y="-888.57" font-family="Times,serif" font-size="14.00">453</text>
</g>
<!-- 453&#45;&gt;353 -->
<g id="edge155" class="edge">
<title>453&#45;&gt;353</title>
<path fill="none" stroke="black" d="M1729.5,-910.28C1723.5,-930.34 1710.9,-962.32 1688.5,-980.27 1670,-995.03 1644.3,-1001.78 1623.2,-1004.84"/>
<polygon fill="black" stroke="black" points="1622.79,-1001.37 1613.3,-1006.07 1623.66,-1008.32 1622.79,-1001.37"/>
</g>
<!-- 453&#45;&gt;400 -->
<g id="edge156" class="edge">
<title>453&#45;&gt;400</title>
<path fill="none" stroke="black" d="M1717.1,-906.42C1707.8,-914.2 1696,-923.99 1685.7,-932.6"/>
<polygon fill="black" stroke="black" points="1683.23,-930.11 1677.8,-939.2 1687.72,-935.48 1683.23,-930.11"/>
</g>
<!-- 453&#45;&gt;450 -->
<g id="edge157" class="edge">
<title>453&#45;&gt;450</title>
<path fill="none" stroke="black" d="M1727.2,-874.72C1720.7,-857.18 1711.2,-829.3 1706.5,-804.27 1682.2,-674.84 1665.9,-258.89 1661.9,-146.49"/>
<polygon fill="black" stroke="black" points="1665.39,-146.16 1661.5,-136.3 1658.4,-146.43 1665.39,-146.16"/>
</g>
<!-- 470 -->
<g id="node93" class="node">
<title>470</title>
<ellipse fill="none" stroke="black" cx="1252.5" cy="-1613.24" rx="28.7" ry="18"/>
<text text-anchor="middle" x="1252.5" y="-1609.54" font-family="Times,serif" font-size="14.00">470</text>
</g>
<!-- 470&#45;&gt;370 -->
<g id="edge158" class="edge">
<title>470&#45;&gt;370</title>
<path fill="none" stroke="black" d="M1230.2,-1624.94C1221.8,-1629.64 1212,-1635.14 1203.1,-1640.24 1197.8,-1643.34 1192.2,-1646.64 1186.7,-1649.84"/>
<polygon fill="black" stroke="black" points="1184.73,-1646.94 1177.9,-1655.04 1188.29,-1652.97 1184.73,-1646.94"/>
</g>
<!-- 480 -->
<g id="node94" class="node">
<title>480</title>
<ellipse fill="none" stroke="black" cx="1509.5" cy="-792.27" rx="28.7" ry="18"/>
<text text-anchor="middle" x="1509.5" y="-788.57" font-family="Times,serif" font-size="14.00">480</text>
</g>
<!-- 480&#45;&gt;430 -->
<g id="edge159" class="edge">
<title>480&#45;&gt;430</title>
<path fill="none" stroke="black" d="M1482.7,-785.61C1466.6,-781.46 1445.7,-776.05 1428.1,-771.49"/>
<polygon fill="black" stroke="black" points="1428.66,-768.02 1418.1,-768.91 1426.91,-774.8 1428.66,-768.02"/>
</g>
<!-- 482 -->
<g id="node95" class="node">
<title>482</title>
<ellipse fill="none" stroke="black" cx="1509.5" cy="-357.27" rx="28.7" ry="18"/>
<text text-anchor="middle" x="1509.5" y="-353.57" font-family="Times,serif" font-size="14.00">482</text>
</g>
<!-- 482&#45;&gt;375 -->
<g id="edge160" class="edge">
<title>482&#45;&gt;375</title>
<path fill="none" stroke="black" d="M1481.3,-360.79C1466,-362.77 1446.6,-365.27 1429.9,-367.43"/>
<polygon fill="black" stroke="black" points="1429.37,-363.97 1419.9,-368.73 1430.27,-370.92 1429.37,-363.97"/>
</g>
<!-- 482&#45;&gt;382 -->
<g id="edge161" class="edge">
<title>482&#45;&gt;382</title>
<path fill="none" stroke="black" d="M1483.9,-349C1467.2,-343.39 1444.9,-335.9 1426.5,-329.72"/>
<polygon fill="black" stroke="black" points="1427.59,-326.4 1417,-326.53 1425.37,-333.04 1427.59,-326.4"/>
</g>
<!-- 483 -->
<g id="node96" class="node">
<title>483</title>
<ellipse fill="none" stroke="black" cx="1391.4" cy="-48.28" rx="28.7" ry="18"/>
<text text-anchor="middle" x="1391.4" y="-44.58" font-family="Times,serif" font-size="14.00">483</text>
</g>
<!-- 483&#45;&gt;350 -->
<g id="edge162" class="edge">
<title>483&#45;&gt;350</title>
<path fill="none" stroke="black" d="M1364,-53.48C1343,-57.62 1313.4,-63.46 1290.2,-68.05"/>
<polygon fill="black" stroke="black" points="1289.44,-64.63 1280.3,-69.99 1290.79,-71.5 1289.44,-64.63"/>
</g>
<!-- 485 -->
<g id="node97" class="node">
<title>485</title>
<ellipse fill="none" stroke="black" cx="1659.9" cy="-700.27" rx="28.7" ry="18"/>
<text text-anchor="middle" x="1659.9" y="-696.57" font-family="Times,serif" font-size="14.00">485</text>
</g>
<!-- 485&#45;&gt;300 -->
<g id="edge163" class="edge">
<title>485&#45;&gt;300</title>
<path fill="none" stroke="black" d="M1632.6,-694.92C1597.8,-688.59 1534.6,-679.7 1480.9,-686.27 1463,-688.47 1443.5,-693.07 1427.3,-697.5"/>
<polygon fill="black" stroke="black" points="1425.95,-694.25 1417.3,-700.36 1427.88,-700.98 1425.95,-694.25"/>
</g>
<!-- 500 -->
<g id="node98" class="node">
<title>500</title>
<ellipse fill="none" stroke="black" cx="1735.1" cy="-777.27" rx="28.7" ry="18"/>
<text text-anchor="middle" x="1735.1" y="-773.57" font-family="Times,serif" font-size="14.00">500</text>
</g>
<!-- 500&#45;&gt;275 -->
<g id="edge164" class="edge">
<title>500&#45;&gt;275</title>
<path fill="none" stroke="black" d="M1708.3,-784.13C1661.7,-796.74 1567.2,-823.32 1556.1,-834.27 1538.1,-852.05 1555.9,-870.32 1538.1,-888.27 1470.1,-956.75 1351.9,-976.91 1291.4,-982.83"/>
<polygon fill="black" stroke="black" points="1290.85,-979.37 1281.2,-983.75 1291.47,-986.34 1290.85,-979.37"/>
</g>
<!-- 500&#45;&gt;301 -->
<g id="edge165" class="edge">
<title>500&#45;&gt;301</title>
<path fill="none" stroke="black" d="M1706.7,-774.75C1669.9,-772.66 1603.5,-773.65 1556.1,-801.27 1548.6,-805.64 1536.7,-821.56 1526.9,-835.9"/>
<polygon fill="black" stroke="black" points="1523.78,-834.27 1521.1,-844.51 1529.59,-838.18 1523.78,-834.27"/>
</g>
<!-- 500&#45;&gt;302 -->
<g id="edge166" class="edge">
<title>500&#45;&gt;302</title>
<path fill="none" stroke="black" d="M1734,-758.97C1733.4,-707.66 1728,-558.71 1688.5,-443.27 1645.2,-316.98 1647.1,-260.27 1538.1,-183.27 1506.5,-160.94 1461.7,-155.54 1430.1,-154.87"/>
<polygon fill="black" stroke="black" points="1430.02,-151.37 1420,-154.81 1429.98,-158.37 1430.02,-151.37"/>
</g>
<!-- 500&#45;&gt;390 -->
<g id="edge167" class="edge">
<title>500&#45;&gt;390</title>
<path fill="none" stroke="black" d="M1731.7,-759.33C1726.8,-724.42 1713.5,-645.35 1688.5,-583.27 1639.5,-461.97 1633.2,-420.06 1538.1,-330.27 1506.9,-300.86 1460.4,-282.93 1428.4,-273.32"/>
<polygon fill="black" stroke="black" points="1429.08,-269.88 1418.5,-270.49 1427.15,-276.61 1429.08,-269.88"/>
</g>
<!-- 500&#45;&gt;400 -->
<g id="edge168" class="edge">
<title>500&#45;&gt;400</title>
<path fill="none" stroke="black" d="M1728.5,-795.01C1716.5,-833.19 1689.3,-919.84 1688.5,-921.27 1686.7,-924.38 1684.7,-927.45 1682.5,-930.4"/>
<polygon fill="black" stroke="black" points="1679.66,-928.34 1676,-938.28 1685.06,-932.8 1679.66,-928.34"/>
</g>
<!-- 500&#45;&gt;405 -->
<g id="edge169" class="edge">
<title>500&#45;&gt;405</title>
<path fill="none" stroke="black" d="M1730.3,-795.19C1724.6,-818.73 1711.9,-860.35 1688.5,-888.27 1683,-894.8 1643.5,-918.97 1615.1,-935.91"/>
<polygon fill="black" stroke="black" points="1613.12,-933.02 1606.3,-941.13 1616.69,-939.04 1613.12,-933.02"/>
</g>
<!-- 500&#45;&gt;415 -->
<g id="edge170" class="edge">
<title>500&#45;&gt;415</title>
<path fill="none" stroke="black" d="M1720.3,-793.07C1709.4,-805.63 1693.9,-823.38 1681.5,-837.63"/>
<polygon fill="black" stroke="black" points="1678.54,-835.71 1674.6,-845.54 1683.81,-840.31 1678.54,-835.71"/>
</g>
<!-- 500&#45;&gt;420 -->
<g id="edge171" class="edge">
<title>500&#45;&gt;420</title>
<path fill="none" stroke="black" d="M1727.7,-759.8C1719.8,-738.69 1705.1,-702.38 1688.5,-673.27 1638.7,-586.13 1564.9,-492.4 1530,-449.77"/>
<polygon fill="black" stroke="black" points="1532.64,-447.48 1523.6,-441.95 1527.23,-451.91 1532.64,-447.48"/>
</g>
<!-- 500&#45;&gt;485 -->
<g id="edge172" class="edge">
<title>500&#45;&gt;485</title>
<path fill="none" stroke="black" d="M1719.6,-762.06C1709,-750.88 1694.4,-735.51 1682.4,-722.89"/>
<polygon fill="black" stroke="black" points="1684.74,-720.27 1675.3,-715.45 1679.67,-725.11 1684.74,-720.27"/>
</g>
<!-- 550 -->
<g id="node99" class="node">
<title>550</title>
<ellipse fill="none" stroke="black" cx="1810.3" cy="-777.27" rx="28.7" ry="18"/>
<text text-anchor="middle" x="1810.3" y="-773.57" font-family="Times,serif" font-size="14.00">550</text>
</g>
<!-- 550&#45;&gt;450 -->
<g id="edge173" class="edge">
<title>550&#45;&gt;450</title>
<path fill="none" stroke="black" d="M1809.1,-759.28C1807.9,-682.01 1796,-372.26 1688.5,-150.27 1686.9,-147.07 1685,-143.94 1682.8,-140.96"/>
<polygon fill="black" stroke="black" points="1685.41,-138.62 1676.4,-133.04 1679.96,-143.02 1685.41,-138.62"/>
</g>
<!-- 550&#45;&gt;453 -->
<g id="edge174" class="edge">
<title>550&#45;&gt;453</title>
<path fill="none" stroke="black" d="M1798.5,-794.24C1786.2,-813.46 1766.2,-844.97 1752.1,-867.07"/>
<polygon fill="black" stroke="black" points="1749.09,-865.29 1746.7,-875.61 1755,-869.03 1749.09,-865.29"/>
</g>
<!-- 550&#45;&gt;500 -->
<g id="edge175" class="edge">
<title>550&#45;&gt;500</title>
<path fill="none" stroke="black" d="M1781.6,-777.27C1779.1,-777.27 1776.4,-777.27 1773.8,-777.27"/>
<polygon fill="black" stroke="black" points="1773.8,-773.77 1763.8,-777.27 1773.8,-780.77 1773.8,-773.77"/>
</g>
</g>
</svg>
