<svg width="408" height="230" viewBox="0 0 408 230" fill="none" xmlns="http://www.w3.org/2000/svg">
<rect width="408" height="230" rx="10" fill="#8ECEAF"/>
<path d="M227.672 116.937C229.104 116.661 230.36 116.13 231.396 115.364C232.5 114.547 233.334 113.479 233.865 112.187C234.407 110.885 234.573 109.526 234.36 108.151C234.162 106.864 233.636 105.594 232.797 104.375C231.578 102.604 229.698 100.979 227.391 99.6771C229.714 98.3698 231.599 96.7344 232.818 94.9479C233.646 93.7343 234.167 92.4687 234.365 91.1875C234.573 89.8177 234.407 88.4687 233.87 87.1667C233.328 85.8646 232.49 84.7864 231.37 83.9688C230.323 83.198 229.052 82.6719 227.599 82.4063C225.48 82.0156 223 82.1927 220.443 82.9063C221.157 80.3489 221.339 77.8647 220.943 75.7448C220.672 74.2917 220.146 73.026 219.375 71.9792C218.552 70.8594 217.479 70.0208 216.177 69.4792C214.875 68.9375 213.516 68.7709 212.141 68.9844C210.855 69.1823 209.584 69.7084 208.365 70.5522C206.594 71.7709 204.969 73.6511 203.672 75.9584C202.37 73.6459 200.74 71.7606 198.964 70.5418C197.745 69.7084 196.48 69.1824 195.193 68.9844C193.824 68.7761 192.464 68.9428 191.162 69.4792C189.86 70.0209 188.782 70.8595 187.959 71.9792C187.188 73.0261 186.662 74.2969 186.396 75.75C186.006 77.8697 186.183 80.3489 186.896 82.9011C184.344 82.1875 181.87 82.0104 179.751 82.3959C178.298 82.6667 177.027 83.1927 175.975 83.9584C174.855 84.7813 174.011 85.8595 173.469 87.1615C172.933 88.4583 172.766 89.8125 172.975 91.1823C173.173 92.4635 173.693 93.7292 174.522 94.9479C175.74 96.7291 177.626 98.3645 179.949 99.6719C177.62 100.984 175.73 102.625 174.511 104.417C173.683 105.63 173.167 106.891 172.975 108.172C172.766 109.536 172.938 110.885 173.475 112.182C174.011 113.484 174.855 114.557 175.97 115.38C177.016 116.151 178.282 116.677 179.73 116.948C180.47 117.083 181.251 117.151 182.063 117.151C183.589 117.151 185.225 116.911 186.897 116.448C186.178 119.031 186.001 121.536 186.407 123.667C186.683 125.104 187.209 126.359 187.98 127.396C188.798 128.505 189.871 129.333 191.162 129.87C192.1 130.255 193.063 130.453 194.042 130.453C194.423 130.453 194.803 130.422 195.183 130.365C196.464 130.167 197.735 129.646 198.949 128.813C200.251 127.917 201.48 126.667 202.553 125.151V155.656C199.386 151.24 195.98 147.839 192.391 145.531C186.996 142.063 181.199 141.052 175.167 142.542C175.157 142.542 175.152 142.547 175.141 142.547C175.121 142.552 175.1 142.557 175.074 142.568C175.058 142.573 175.042 142.578 175.032 142.583C175.011 142.589 174.996 142.599 174.975 142.609C174.959 142.615 174.943 142.625 174.928 142.63C174.912 142.641 174.897 142.646 174.881 142.656C174.865 142.667 174.85 142.677 174.834 142.688C174.818 142.698 174.808 142.703 174.792 142.714C174.777 142.724 174.761 142.74 174.746 142.75C174.735 142.76 174.725 142.771 174.709 142.781C174.693 142.797 174.678 142.807 174.662 142.823C174.652 142.833 174.641 142.844 174.631 142.854C174.615 142.87 174.605 142.88 174.594 142.896C174.584 142.912 174.574 142.922 174.563 142.938C174.553 142.953 174.542 142.964 174.532 142.979C174.522 142.995 174.511 143.01 174.501 143.026C174.49 143.042 174.485 143.052 174.475 143.068C174.464 143.083 174.454 143.104 174.443 143.12C174.438 143.135 174.428 143.146 174.423 143.162C174.412 143.182 174.407 143.198 174.397 143.219C174.391 143.234 174.386 143.25 174.381 143.266C174.376 143.281 174.371 143.302 174.365 143.318C174.36 143.333 174.355 143.354 174.35 143.37C174.344 143.385 174.344 143.401 174.339 143.422C174.334 143.443 174.334 143.464 174.329 143.484C174.329 143.5 174.324 143.516 174.324 143.531C174.324 143.552 174.318 143.578 174.318 143.599V143.625C174.318 147.984 175.688 151.563 178.381 154.25C179.865 155.729 181.766 156.953 184.048 157.896C185.959 158.682 188.183 159.292 190.673 159.703C194.709 160.375 198.704 160.432 201.829 160.432H202.834H203.662H203.668H203.673H204.501H205.506C208.626 160.432 212.626 160.375 216.662 159.703C219.147 159.292 221.376 158.682 223.287 157.896C225.563 156.958 227.47 155.729 228.954 154.25C231.652 151.557 233.017 147.985 233.017 143.625V143.599C233.017 143.578 233.017 143.552 233.011 143.531C233.011 143.516 233.006 143.5 233.006 143.49C233.001 143.469 233.001 143.448 232.996 143.427C232.991 143.412 232.991 143.396 232.985 143.375C232.98 143.359 232.975 143.339 232.97 143.323C232.964 143.302 232.959 143.287 232.954 143.271C232.949 143.255 232.944 143.24 232.938 143.224C232.933 143.203 232.923 143.188 232.912 143.167C232.907 143.151 232.902 143.141 232.892 143.125C232.881 143.109 232.871 143.089 232.86 143.073C232.85 143.057 232.845 143.047 232.834 143.031C232.824 143.016 232.813 143 232.803 142.984C232.793 142.969 232.782 142.958 232.772 142.943C232.761 142.927 232.751 142.917 232.741 142.901C232.73 142.885 232.714 142.87 232.704 142.859C232.694 142.849 232.683 142.839 232.673 142.828C232.657 142.813 232.642 142.802 232.626 142.787C232.616 142.776 232.605 142.766 232.589 142.755C232.574 142.745 232.558 142.729 232.543 142.719C232.532 142.708 232.517 142.703 232.501 142.693C232.485 142.682 232.47 142.672 232.454 142.662C232.438 142.651 232.423 142.646 232.407 142.635C232.392 142.625 232.376 142.62 232.36 142.615C232.339 142.604 232.324 142.599 232.303 142.589C232.287 142.583 232.277 142.578 232.261 142.573C232.241 142.568 232.22 142.557 232.194 142.552C232.183 142.552 232.178 142.547 232.168 142.547C226.136 141.063 220.339 142.068 214.944 145.537C211.355 147.844 207.949 151.24 204.782 155.662V125.172C205.876 126.719 207.126 127.974 208.485 128.886C209.688 129.693 210.944 130.198 212.209 130.381C212.574 130.433 212.933 130.459 213.298 130.459C214.277 130.459 215.246 130.261 216.178 129.875C217.48 129.334 218.553 128.495 219.376 127.375C220.147 126.329 220.673 125.063 220.938 123.61C221.334 121.49 221.152 119.006 220.438 116.448C222.105 116.912 223.746 117.152 225.267 117.152C226.11 117.157 226.912 117.083 227.672 116.937ZM179.959 152.683C177.844 150.573 176.735 147.896 176.568 144.516C185.537 142.688 193.735 146.98 200.975 157.282C196.438 155.729 192.371 153.953 188.615 151.886C188.079 151.589 187.402 151.787 187.105 152.323C186.808 152.86 187.006 153.537 187.542 153.834C190.407 155.412 193.444 156.823 196.72 158.094C190.897 157.792 183.964 156.677 179.959 152.683ZM230.765 144.516C230.604 147.896 229.489 150.573 227.375 152.683C223.37 156.677 216.437 157.792 210.609 158.099C213.885 156.829 216.922 155.417 219.786 153.839C220.323 153.542 220.521 152.865 220.224 152.329C219.927 151.792 219.25 151.594 218.714 151.891C214.958 153.959 210.891 155.735 206.354 157.287C213.599 146.98 221.796 142.688 230.765 144.516ZM219.239 113.709C219.208 113.699 219.177 113.689 219.151 113.678C218.885 113.553 218.568 113.532 218.271 113.647C217.698 113.871 217.416 114.517 217.64 115.09C218.786 118.006 219.182 120.886 218.755 123.199C218.463 124.777 217.63 126.86 215.328 127.813C213.062 128.751 211.031 127.907 209.724 127.032C207.818 125.751 206.073 123.511 204.807 120.714C204.776 120.647 204.739 120.584 204.698 120.527C204.594 120.256 204.39 120.027 204.104 119.902C203.542 119.657 202.885 119.912 202.64 120.475C201.385 123.345 199.63 125.652 197.698 126.98C196.375 127.886 194.317 128.766 192.015 127.813C189.734 126.865 188.896 124.808 188.599 123.246C188.161 120.964 188.536 118.11 189.651 115.22C189.672 115.168 189.687 115.115 189.698 115.058C189.786 114.813 189.786 114.537 189.687 114.277C189.463 113.704 188.818 113.423 188.245 113.647C185.328 114.793 182.453 115.183 180.146 114.751C178.568 114.459 176.49 113.626 175.536 111.324C174.589 109.032 175.458 106.985 176.359 105.662C177.672 103.735 179.963 101.98 182.812 100.725C182.958 100.662 183.083 100.569 183.187 100.454C183.292 100.355 183.38 100.235 183.443 100.095C183.687 99.5322 183.432 98.8759 182.87 98.6311C180.005 97.3758 177.698 95.6207 176.375 93.6884C175.469 92.3655 174.589 90.3081 175.542 88.0113C176.495 85.704 178.583 84.8759 180.172 84.5791C182.448 84.1572 185.276 84.5374 188.146 85.6468C188.307 85.7353 188.495 85.7874 188.682 85.7874H188.714C189.156 85.7874 189.573 85.5218 189.745 85.0843C189.88 84.7353 189.833 84.3603 189.641 84.0686C188.552 81.2145 188.182 78.4124 188.599 76.152C188.891 74.5686 189.724 72.4853 192.026 71.5322C194.328 70.5791 196.391 71.4645 197.714 72.3708C199.604 73.6677 201.328 75.9072 202.573 78.6885C202.635 79.0427 202.87 79.3552 203.224 79.5062C203.37 79.5687 203.521 79.6 203.667 79.6C204.099 79.6 204.505 79.35 204.687 78.9281C205.937 76.0426 207.698 73.7145 209.64 72.376C210.969 71.4593 213.036 70.5738 215.338 71.527C217.64 72.4801 218.474 74.5634 218.765 76.1415C219.192 78.4333 218.807 81.2874 217.682 84.1831C217.552 84.454 217.531 84.7717 217.651 85.0686C217.875 85.6415 218.521 85.9227 219.093 85.6988C222.015 84.5477 224.896 84.1518 227.208 84.5842C228.786 84.8758 230.875 85.7092 231.828 88.0112C232.781 90.3082 231.901 92.3602 231 93.6831C229.698 95.5842 227.442 97.3186 224.64 98.5686C224.302 98.6415 224.005 98.8707 223.859 99.2092C223.614 99.7717 223.875 100.428 224.437 100.673C227.323 101.923 229.645 103.683 230.979 105.626C231.89 106.954 232.781 109.017 231.828 111.324C230.885 113.605 228.828 114.438 227.27 114.74C224.973 115.188 222.125 114.819 219.239 113.709Z" fill="white"/>
<path d="M219.203 102.36C218.859 102.23 218.499 102.162 218.135 102.162C217.322 102.162 216.557 102.501 216.005 103.058L211.906 101.495C212.218 100.089 212.176 98.5943 211.718 97.1517L215.687 95.3757C216.239 95.9486 217.015 96.2871 217.838 96.2871C218.26 96.2871 218.671 96.1986 219.057 96.0267C219.786 95.6986 220.348 95.11 220.63 94.36C220.916 93.6153 220.89 92.7975 220.567 92.0683C220.088 90.9902 219.015 90.2975 217.833 90.2975C217.411 90.2975 216.999 90.3861 216.614 90.5579C215.885 90.8861 215.322 91.4746 215.041 92.2246C214.906 92.5788 214.838 92.9486 214.843 93.3183L210.781 95.1361C210.005 93.9173 208.942 92.933 207.702 92.2558L209.296 88.0839C210.505 88.0631 211.604 87.2975 212.036 86.1673C212.624 84.6309 211.848 82.9017 210.312 82.3183C209.968 82.1881 209.614 82.1204 209.249 82.1204C208.02 82.1204 206.9 82.8912 206.463 84.0371C206.176 84.7819 206.202 85.5892 206.525 86.3183C206.692 86.6881 206.926 87.0162 207.218 87.287L205.624 91.4589C204.989 91.3079 204.333 91.2297 203.661 91.2297C202.874 91.2297 202.098 91.3391 201.343 91.5578L199.515 87.4745C199.791 87.1881 200.01 86.8443 200.161 86.4641C200.447 85.7193 200.421 84.912 200.098 84.1829C199.619 83.11 198.551 82.4173 197.374 82.4173C196.952 82.4173 196.546 82.5058 196.156 82.6777C194.656 83.3496 193.978 85.1152 194.65 86.6204C195.129 87.6933 196.197 88.386 197.374 88.386C197.411 88.386 197.447 88.386 197.478 88.3808L199.296 92.4485C198.041 93.2037 197.015 94.261 196.296 95.5422L192.161 93.9641C192.14 92.7818 191.416 91.6724 190.244 91.2245C189.9 91.0943 189.546 91.0266 189.182 91.0266C187.952 91.0266 186.833 91.7974 186.395 92.9433C185.807 94.4797 186.583 96.2089 188.119 96.7922C188.463 96.9224 188.817 96.9901 189.182 96.9901C190.02 96.9901 190.807 96.6307 191.364 96.037L195.473 97.6047C195.103 99.037 195.124 100.532 195.525 101.959L191.546 103.74C190.999 103.209 190.26 102.896 189.468 102.896C189.046 102.896 188.64 102.985 188.249 103.157C187.52 103.48 186.963 104.068 186.682 104.813C186.395 105.558 186.421 106.365 186.744 107.094C187.223 108.167 188.291 108.86 189.468 108.86C189.89 108.86 190.296 108.771 190.687 108.599C191.827 108.089 192.489 106.948 192.447 105.771L196.4 104C197.192 105.329 198.317 106.396 199.64 107.115L198.129 111.063H198.083C196.848 111.063 195.723 111.839 195.286 112.99C194.697 114.532 195.473 116.266 197.015 116.854C197.359 116.985 197.718 117.052 198.083 117.052C199.317 117.052 200.442 116.276 200.879 115.125C201.166 114.381 201.14 113.563 200.817 112.834C200.661 112.49 200.447 112.183 200.187 111.922L201.723 107.901C202.348 108.047 202.999 108.125 203.661 108.125C204.504 108.125 205.338 108 206.145 107.75L207.869 111.604C207.557 111.906 207.317 112.271 207.155 112.688C206.869 113.433 206.895 114.25 207.218 114.979C207.697 116.058 208.77 116.75 209.952 116.75C210.374 116.75 210.786 116.662 211.171 116.49C211.9 116.162 212.463 115.573 212.744 114.823C213.031 114.078 213.004 113.261 212.682 112.531C212.202 111.453 211.129 110.761 209.947 110.761H209.926L208.161 106.818C209.447 106.005 210.463 104.881 211.14 103.584L215.135 105.11C215.119 106.334 215.853 107.495 217.062 107.953C217.406 108.084 217.765 108.151 218.13 108.151C219.364 108.151 220.489 107.375 220.926 106.224C221.52 104.683 220.744 102.949 219.203 102.36ZM208.536 84.8294C208.645 84.5377 208.932 84.3398 209.244 84.3398C209.338 84.3398 209.426 84.3554 209.515 84.3919C209.906 84.5429 210.104 84.9804 209.952 85.371C209.843 85.6627 209.557 85.8606 209.244 85.8606C209.15 85.8606 209.062 85.845 208.973 85.8085C208.786 85.7356 208.635 85.595 208.551 85.4127C208.473 85.2252 208.468 85.0221 208.536 84.8294ZM198.801 114.329C198.687 114.626 198.4 114.824 198.083 114.824C197.989 114.824 197.895 114.809 197.807 114.772C197.411 114.621 197.213 114.178 197.364 113.782C197.479 113.486 197.765 113.288 198.083 113.288C198.176 113.288 198.27 113.303 198.359 113.34C198.551 113.413 198.702 113.559 198.786 113.746C198.869 113.928 198.874 114.137 198.801 114.329ZM217.119 93.0174C217.192 92.8247 217.338 92.6736 217.525 92.5903C217.624 92.5434 217.728 92.5226 217.838 92.5226C218.14 92.5226 218.416 92.6997 218.541 92.9757C218.624 93.1632 218.629 93.3715 218.556 93.5642C218.483 93.7569 218.338 93.908 218.15 93.9913C218.051 94.0382 217.947 94.059 217.838 94.059C217.535 94.059 217.259 93.8819 217.134 93.6059C217.051 93.4184 217.041 93.2101 217.119 93.0174ZM196.676 85.7048C196.504 85.3246 196.676 84.8767 197.056 84.7048C197.155 84.6632 197.259 84.6371 197.364 84.6371C197.66 84.6371 197.931 84.8142 198.056 85.085C198.14 85.2673 198.145 85.4757 198.072 85.6632C197.999 85.8506 197.858 86.0017 197.676 86.085C197.577 86.1267 197.473 86.1527 197.369 86.1527C197.072 86.1527 196.796 85.9757 196.676 85.7048ZM189.884 94.2674C189.775 94.559 189.489 94.7569 189.176 94.7569C189.082 94.7569 188.994 94.7413 188.905 94.7049C188.515 94.5538 188.317 94.1163 188.468 93.7257C188.577 93.434 188.864 93.2361 189.176 93.2361C189.27 93.2361 189.358 93.2517 189.447 93.2882C189.838 93.4392 190.03 93.8819 189.884 94.2674ZM189.775 106.569C189.676 106.611 189.572 106.637 189.468 106.637C189.171 106.637 188.9 106.46 188.775 106.189C188.692 106.007 188.686 105.799 188.759 105.611C188.832 105.424 188.973 105.273 189.155 105.189C189.254 105.148 189.358 105.122 189.463 105.122C189.759 105.122 190.03 105.299 190.155 105.569C190.327 105.95 190.155 106.398 189.775 106.569ZM197.91 102.059C197.322 100.637 197.28 99.0851 197.78 97.6424C197.848 97.5539 197.905 97.4601 197.947 97.3508C197.983 97.257 198.004 97.1633 198.015 97.0695C198.671 95.6424 199.822 94.5331 201.28 93.9288C202.041 93.6111 202.843 93.4549 203.661 93.4549C204.437 93.4549 205.187 93.5955 205.885 93.8611C205.89 93.8611 205.895 93.8663 205.9 93.8663C205.911 93.8715 205.916 93.8715 205.926 93.8768C207.478 94.4809 208.749 95.6945 209.416 97.2986C210.728 100.47 209.218 104.116 206.046 105.429C205.286 105.747 204.484 105.903 203.666 105.903C201.135 105.903 198.874 104.392 197.91 102.059ZM210.65 113.445C210.733 113.632 210.739 113.84 210.666 114.033C210.593 114.226 210.447 114.377 210.259 114.46C210.16 114.507 210.056 114.528 209.947 114.528C209.645 114.528 209.369 114.351 209.244 114.075C209.16 113.887 209.155 113.679 209.228 113.486C209.301 113.294 209.447 113.142 209.634 113.059C209.733 113.012 209.838 112.991 209.947 112.991C210.254 112.991 210.53 113.169 210.65 113.445ZM218.848 105.434C218.733 105.731 218.447 105.929 218.129 105.929C218.035 105.929 217.942 105.913 217.853 105.877C217.457 105.726 217.259 105.283 217.41 104.887C217.525 104.59 217.811 104.392 218.129 104.392C218.223 104.392 218.317 104.408 218.405 104.445C218.801 104.596 218.999 105.038 218.848 105.434Z" fill="white"/>
</svg>
