<svg width="408" height="230" viewBox="0 0 408 230" fill="none" xmlns="http://www.w3.org/2000/svg">
<rect width="408" height="230" rx="10" fill="#8ECEAF"/>
<path fill-rule="evenodd" clip-rule="evenodd" d="M248 54.5H159C157.619 54.5 156.5 55.6193 156.5 57V173C156.5 174.381 157.619 175.5 159 175.5H248C249.381 175.5 250.5 174.381 250.5 173V57C250.5 55.6193 249.381 54.5 248 54.5ZM159 53C156.791 53 155 54.7909 155 57V173C155 175.209 156.791 177 159 177H248C250.209 177 252 175.209 252 173V57C252 54.7909 250.209 53 248 53H159Z" fill="white"/>
<path fill-rule="evenodd" clip-rule="evenodd" d="M255 58.9683C255.414 58.9683 255.75 59.304 255.75 59.7183V176C255.75 178.623 253.623 180.75 251 180.75H158C157.586 180.75 157.25 180.414 157.25 180C157.25 179.586 157.586 179.25 158 179.25H251C252.795 179.25 254.25 177.795 254.25 176V59.7183C254.25 59.304 254.586 58.9683 255 58.9683Z" fill="white"/>
<path d="M219.124 116.431C220.026 116.257 220.817 115.922 221.47 115.44C222.165 114.924 222.69 114.252 223.025 113.438C223.366 112.618 223.471 111.761 223.337 110.895C223.212 110.085 222.881 109.284 222.352 108.516C221.585 107.401 220.4 106.377 218.946 105.557C220.41 104.733 221.598 103.703 222.365 102.577C222.887 101.813 223.215 101.015 223.34 100.208C223.471 99.3452 223.366 98.4953 223.028 97.675C222.687 96.8547 222.159 96.1754 221.453 95.6604C220.794 95.1747 219.993 94.8433 219.078 94.676C217.742 94.4299 216.18 94.5414 214.569 94.991C215.019 93.3798 215.134 91.8148 214.884 90.4792C214.714 89.5638 214.382 88.7664 213.897 88.1069C213.378 87.4014 212.702 86.8731 211.882 86.5319C211.062 86.1907 210.205 86.0857 209.339 86.2202C208.528 86.3449 207.728 86.6763 206.96 87.2079C205.844 87.9757 204.821 89.1602 204.004 90.6138C203.183 89.1569 202.156 87.9692 201.037 87.2013C200.27 86.6763 199.472 86.3449 198.662 86.2202C197.799 86.0889 196.942 86.1939 196.122 86.5319C195.302 86.8732 194.623 87.4015 194.104 88.1069C193.619 88.7664 193.287 89.5671 193.12 90.4825C192.874 91.8179 192.985 93.3798 193.435 94.9877C191.827 94.5382 190.269 94.4266 188.933 94.6694C188.018 94.84 187.217 95.1714 186.554 95.6538C185.849 96.1722 185.317 96.8515 184.976 97.6717C184.638 98.4888 184.533 99.3419 184.664 100.205C184.789 101.012 185.117 101.809 185.639 102.577C186.407 103.699 187.594 104.73 189.058 105.553C187.591 106.38 186.4 107.414 185.632 108.543C185.11 109.307 184.786 110.101 184.664 110.908C184.533 111.768 184.641 112.618 184.979 113.435C185.317 114.255 185.849 114.931 186.551 115.449C187.21 115.935 188.008 116.267 188.92 116.437C189.386 116.522 189.878 116.565 190.39 116.565C191.351 116.565 192.382 116.414 193.435 116.122C192.982 117.75 192.871 119.328 193.127 120.67C193.3 121.576 193.632 122.366 194.118 123.019C194.633 123.718 195.309 124.24 196.122 124.578C196.713 124.821 197.32 124.946 197.937 124.946C198.176 124.946 198.416 124.926 198.655 124.89C199.463 124.765 200.263 124.437 201.028 123.912C201.848 123.348 202.622 122.56 203.298 121.605V140.824C201.303 138.041 199.157 135.898 196.897 134.445C193.497 132.259 189.845 131.623 186.046 132.561C186.039 132.561 186.036 132.565 186.029 132.565C186.016 132.568 186.003 132.571 185.987 132.578C185.977 132.581 185.967 132.584 185.96 132.588C185.947 132.591 185.937 132.597 185.924 132.604C185.914 132.607 185.904 132.614 185.895 132.617C185.885 132.624 185.875 132.627 185.865 132.633C185.855 132.64 185.845 132.647 185.836 132.653C185.826 132.66 185.819 132.663 185.809 132.67C185.799 132.676 185.79 132.686 185.78 132.693C185.773 132.699 185.767 132.706 185.757 132.712C185.747 132.722 185.737 132.729 185.727 132.738C185.721 132.745 185.714 132.752 185.708 132.758C185.698 132.768 185.691 132.775 185.685 132.784C185.678 132.794 185.672 132.801 185.665 132.811C185.658 132.821 185.652 132.827 185.645 132.837C185.639 132.847 185.632 132.857 185.626 132.866C185.619 132.876 185.616 132.883 185.609 132.893C185.603 132.903 185.596 132.916 185.589 132.926C185.586 132.935 185.58 132.942 185.576 132.952C185.57 132.965 185.567 132.975 185.56 132.988C185.557 132.998 185.553 133.008 185.55 133.017C185.547 133.027 185.544 133.04 185.54 133.05C185.537 133.06 185.534 133.073 185.53 133.083C185.527 133.093 185.527 133.103 185.524 133.116C185.521 133.129 185.521 133.142 185.517 133.155C185.517 133.165 185.514 133.175 185.514 133.185C185.514 133.198 185.511 133.214 185.511 133.227V133.244C185.511 135.99 186.374 138.244 188.07 139.938C189.005 140.869 190.203 141.641 191.64 142.234C192.844 142.73 194.245 143.114 195.814 143.373C198.357 143.796 200.874 143.832 202.842 143.832H203.476H203.997H204.001H204.004H204.526H205.159C207.124 143.832 209.644 143.796 212.187 143.373C213.753 143.114 215.157 142.73 216.361 142.234C217.795 141.644 218.996 140.869 219.931 139.938C221.631 138.241 222.491 135.99 222.491 133.244V133.227C222.491 133.214 222.491 133.198 222.487 133.185C222.487 133.175 222.484 133.165 222.484 133.158C222.481 133.145 222.481 133.132 222.477 133.119C222.474 133.109 222.474 133.099 222.471 133.086C222.468 133.076 222.464 133.063 222.461 133.053C222.458 133.04 222.454 133.031 222.451 133.021C222.448 133.011 222.445 133.001 222.441 132.991C222.438 132.978 222.432 132.968 222.425 132.955C222.422 132.945 222.418 132.939 222.412 132.929C222.405 132.919 222.399 132.906 222.392 132.896C222.386 132.886 222.382 132.88 222.376 132.87C222.369 132.86 222.363 132.85 222.356 132.84C222.349 132.83 222.343 132.824 222.336 132.814C222.33 132.804 222.323 132.798 222.317 132.788C222.31 132.778 222.3 132.768 222.294 132.761C222.287 132.755 222.281 132.748 222.274 132.742C222.264 132.732 222.254 132.725 222.244 132.716C222.238 132.709 222.231 132.702 222.222 132.696C222.212 132.689 222.202 132.679 222.192 132.673C222.185 132.666 222.176 132.663 222.166 132.656C222.156 132.65 222.146 132.643 222.136 132.637C222.126 132.63 222.117 132.627 222.107 132.62C222.097 132.614 222.087 132.611 222.077 132.607C222.064 132.601 222.054 132.597 222.041 132.591C222.031 132.588 222.025 132.584 222.015 132.581C222.002 132.578 221.989 132.571 221.972 132.568C221.966 132.568 221.962 132.565 221.956 132.565C218.156 131.629 214.504 132.263 211.105 134.448C208.844 135.902 206.698 138.041 204.703 140.827V121.619C205.392 122.593 206.179 123.384 207.036 123.958C207.794 124.467 208.585 124.785 209.382 124.9C209.612 124.933 209.838 124.949 210.068 124.949C210.685 124.949 211.295 124.824 211.882 124.582C212.703 124.24 213.378 123.712 213.897 123.007C214.383 122.347 214.714 121.55 214.881 120.634C215.131 119.299 215.016 117.734 214.566 116.122C215.616 116.415 216.65 116.565 217.608 116.565C218.14 116.569 218.644 116.522 219.124 116.431ZM189.064 138.95C187.732 137.621 187.033 135.935 186.928 133.805C192.578 132.653 197.743 135.357 202.304 141.847C199.446 140.87 196.884 139.751 194.518 138.448C194.18 138.261 193.753 138.386 193.566 138.724C193.379 139.062 193.504 139.488 193.842 139.675C195.647 140.669 197.56 141.559 199.623 142.359C195.955 142.169 191.587 141.467 189.064 138.95ZM221.072 133.805C220.971 135.935 220.268 137.621 218.936 138.95C216.413 141.467 212.046 142.169 208.374 142.363C210.438 141.562 212.351 140.673 214.156 139.679C214.494 139.492 214.618 139.065 214.431 138.727C214.244 138.389 213.818 138.264 213.48 138.451C211.114 139.754 208.551 140.873 205.693 141.851C210.258 135.357 215.422 132.654 221.072 133.805ZM213.811 114.397C213.791 114.39 213.772 114.384 213.755 114.377C213.588 114.298 213.388 114.285 213.201 114.358C212.84 114.499 212.663 114.905 212.804 115.266C213.525 117.104 213.775 118.918 213.506 120.375C213.322 121.37 212.797 122.682 211.347 123.282C209.919 123.873 208.64 123.342 207.816 122.79C206.615 121.983 205.516 120.572 204.719 118.81C204.699 118.767 204.676 118.728 204.65 118.692C204.584 118.521 204.456 118.377 204.276 118.298C203.921 118.144 203.508 118.305 203.354 118.659C202.563 120.467 201.457 121.921 200.24 122.757C199.406 123.328 198.11 123.883 196.66 123.282C195.223 122.685 194.694 121.389 194.507 120.405C194.232 118.968 194.468 117.169 195.17 115.348C195.183 115.316 195.193 115.283 195.2 115.247C195.256 115.092 195.256 114.919 195.193 114.754C195.052 114.394 194.645 114.216 194.284 114.357C192.447 115.079 190.635 115.325 189.182 115.053C188.188 114.869 186.879 114.344 186.278 112.894C185.681 111.45 186.229 110.161 186.797 109.327C187.623 108.113 189.067 107.007 190.862 106.217C190.954 106.177 191.033 106.118 191.098 106.046C191.164 105.984 191.22 105.908 191.259 105.82C191.413 105.465 191.252 105.052 190.898 104.898C189.093 104.107 187.64 103.001 186.806 101.784C186.235 100.95 185.681 99.6541 186.281 98.2071C186.882 96.7535 188.198 96.2318 189.198 96.0448C190.632 95.779 192.414 96.0186 194.222 96.7175C194.324 96.7733 194.442 96.8061 194.56 96.8061H194.58C194.859 96.8061 195.121 96.6387 195.229 96.3631C195.315 96.1433 195.285 95.907 195.164 95.7233C194.478 93.9252 194.245 92.1598 194.507 90.7358C194.691 89.7383 195.216 88.4258 196.667 87.8253C198.117 87.2249 199.416 87.7827 200.25 88.3536C201.441 89.1706 202.527 90.5815 203.311 92.3338C203.35 92.5569 203.498 92.7538 203.721 92.8489C203.813 92.8883 203.908 92.908 204 92.908C204.272 92.908 204.528 92.7505 204.643 92.4847C205.431 90.6669 206.54 89.2001 207.764 88.3569C208.6 87.7794 209.903 87.2215 211.353 87.822C212.804 88.4225 213.329 89.735 213.512 90.7292C213.781 92.173 213.539 93.9711 212.83 95.7954C212.748 95.966 212.735 96.1662 212.81 96.3532C212.951 96.7141 213.358 96.8913 213.719 96.7502C215.56 96.0251 217.374 95.7757 218.831 96.048C219.825 96.2318 221.141 96.7568 221.742 98.2071C222.342 99.6542 221.788 100.947 221.22 101.78C220.4 102.978 218.979 104.071 217.214 104.858C217 104.904 216.813 105.049 216.721 105.262C216.567 105.616 216.731 106.03 217.086 106.184C218.903 106.971 220.367 108.08 221.207 109.304C221.781 110.141 222.342 111.44 221.742 112.894C221.148 114.331 219.852 114.856 218.87 115.046C217.423 115.329 215.629 115.096 213.811 114.397Z" fill="white"/>
<path d="M213.788 107.247C213.571 107.165 213.345 107.122 213.115 107.122C212.603 107.122 212.121 107.335 211.773 107.686L209.191 106.702C209.388 105.816 209.361 104.874 209.073 103.966L211.573 102.847C211.921 103.208 212.41 103.421 212.928 103.421C213.194 103.421 213.453 103.365 213.696 103.257C214.155 103.05 214.51 102.679 214.687 102.207C214.867 101.738 214.851 101.222 214.648 100.763C214.346 100.084 213.67 99.6474 212.925 99.6474C212.659 99.6474 212.4 99.7032 212.157 99.8115C211.698 100.018 211.343 100.389 211.166 100.861C211.081 101.085 211.038 101.318 211.041 101.551L208.482 102.696C207.993 101.928 207.324 101.308 206.543 100.881L207.547 98.2529C208.308 98.2397 209 97.7574 209.273 97.0454C209.644 96.0774 209.155 94.988 208.187 94.6205C207.97 94.5385 207.747 94.4958 207.517 94.4958C206.743 94.4958 206.037 94.9815 205.762 95.7033C205.581 96.1726 205.598 96.6812 205.801 97.1405C205.906 97.3735 206.054 97.5802 206.238 97.7508L205.234 100.379C204.833 100.284 204.42 100.235 203.997 100.235C203.501 100.235 203.012 100.304 202.536 100.441L201.385 97.8689C201.559 97.6885 201.696 97.4719 201.791 97.2324C201.972 96.7632 201.956 96.2545 201.752 95.7952C201.45 95.1193 200.778 94.6829 200.036 94.6829C199.77 94.6829 199.514 94.7387 199.268 94.8469C198.323 95.2702 197.897 96.3825 198.32 97.3308C198.622 98.0068 199.294 98.4432 200.036 98.4432C200.059 98.4432 200.082 98.4432 200.102 98.4399L201.247 101.003C200.456 101.478 199.81 102.144 199.357 102.952L196.751 101.957C196.738 101.213 196.282 100.514 195.544 100.231C195.327 100.149 195.104 100.107 194.875 100.107C194.1 100.107 193.395 100.592 193.119 101.314C192.748 102.282 193.237 103.372 194.205 103.739C194.422 103.821 194.645 103.864 194.875 103.864C195.403 103.864 195.898 103.637 196.25 103.263L198.838 104.251C198.605 105.153 198.619 106.095 198.871 106.994L196.364 108.116C196.02 107.782 195.554 107.585 195.055 107.585C194.789 107.585 194.533 107.64 194.287 107.749C193.828 107.952 193.477 108.323 193.3 108.792C193.119 109.261 193.136 109.77 193.339 110.229C193.641 110.905 194.314 111.342 195.055 111.342C195.321 111.342 195.577 111.286 195.823 111.178C196.541 110.856 196.958 110.137 196.932 109.396L199.422 108.28C199.921 109.117 200.63 109.79 201.463 110.242L200.512 112.73H200.482C199.705 112.73 198.996 113.218 198.72 113.944C198.349 114.915 198.838 116.008 199.81 116.378C200.026 116.46 200.253 116.503 200.482 116.503C201.26 116.503 201.969 116.014 202.244 115.289C202.425 114.82 202.408 114.305 202.205 113.845C202.106 113.629 201.972 113.435 201.808 113.271L202.776 110.738C203.17 110.83 203.58 110.879 203.996 110.879C204.528 110.879 205.053 110.8 205.562 110.643L206.648 113.071C206.451 113.261 206.3 113.491 206.198 113.753C206.018 114.222 206.034 114.738 206.238 115.197C206.539 115.876 207.215 116.313 207.96 116.313C208.226 116.313 208.485 116.257 208.728 116.149C209.187 115.942 209.542 115.571 209.719 115.099C209.899 114.629 209.883 114.114 209.68 113.655C209.378 112.976 208.702 112.539 207.957 112.539H207.944L206.831 110.055C207.642 109.543 208.282 108.835 208.708 108.018L211.225 108.979C211.215 109.75 211.678 110.482 212.439 110.771C212.656 110.853 212.882 110.895 213.112 110.895C213.889 110.895 214.598 110.406 214.874 109.681C215.248 108.71 214.759 107.618 213.788 107.247ZM207.068 96.2025C207.137 96.0187 207.317 95.894 207.514 95.894C207.573 95.894 207.629 95.9039 207.685 95.9269C207.931 96.022 208.055 96.2976 207.96 96.5437C207.891 96.7275 207.711 96.8522 207.514 96.8522C207.455 96.8522 207.399 96.8423 207.343 96.8194C207.225 96.7734 207.13 96.6848 207.078 96.57C207.028 96.4519 207.025 96.3239 207.068 96.2025ZM200.935 114.787C200.863 114.975 200.682 115.099 200.482 115.099C200.423 115.099 200.364 115.089 200.308 115.066C200.059 114.971 199.934 114.692 200.03 114.443C200.102 114.256 200.282 114.131 200.482 114.131C200.541 114.131 200.6 114.141 200.656 114.164C200.778 114.21 200.873 114.302 200.925 114.42C200.978 114.535 200.981 114.666 200.935 114.787ZM212.475 101.361C212.521 101.24 212.613 101.144 212.731 101.092C212.793 101.062 212.859 101.049 212.928 101.049C213.118 101.049 213.292 101.161 213.371 101.335C213.423 101.453 213.427 101.584 213.381 101.705C213.335 101.827 213.243 101.922 213.125 101.975C213.062 102.004 212.997 102.017 212.928 102.017C212.738 102.017 212.564 101.906 212.485 101.732C212.432 101.614 212.426 101.482 212.475 101.361ZM199.596 96.754C199.488 96.5145 199.596 96.2323 199.836 96.124C199.898 96.0978 199.964 96.0814 200.029 96.0814C200.216 96.0814 200.387 96.1929 200.466 96.3636C200.518 96.4784 200.521 96.6097 200.476 96.7278C200.43 96.8459 200.341 96.9411 200.226 96.9936C200.164 97.0198 200.098 97.0362 200.033 97.0362C199.846 97.0362 199.672 96.9247 199.596 96.754ZM195.317 102.148C195.248 102.332 195.068 102.457 194.871 102.457C194.812 102.457 194.756 102.447 194.701 102.424C194.454 102.329 194.33 102.053 194.425 101.807C194.494 101.623 194.674 101.499 194.871 101.499C194.93 101.499 194.986 101.509 195.042 101.532C195.288 101.627 195.409 101.906 195.317 102.148ZM195.248 109.899C195.186 109.925 195.121 109.941 195.055 109.941C194.868 109.941 194.697 109.83 194.618 109.659C194.566 109.544 194.563 109.413 194.609 109.295C194.655 109.177 194.743 109.082 194.858 109.029C194.92 109.003 194.986 108.987 195.052 108.987C195.239 108.987 195.409 109.098 195.488 109.269C195.596 109.508 195.488 109.79 195.248 109.899ZM200.374 107.057C200.003 106.161 199.977 105.184 200.292 104.275C200.334 104.219 200.371 104.16 200.397 104.091C200.42 104.032 200.433 103.973 200.439 103.914C200.853 103.015 201.578 102.316 202.497 101.935C202.976 101.735 203.481 101.637 203.996 101.637C204.485 101.637 204.958 101.725 205.397 101.892C205.401 101.892 205.404 101.896 205.407 101.896C205.414 101.899 205.417 101.899 205.424 101.902C206.402 102.283 207.202 103.048 207.622 104.058C208.449 106.056 207.497 108.353 205.499 109.18C205.02 109.38 204.515 109.479 204 109.479C202.405 109.479 200.981 108.527 200.374 107.057ZM208.4 114.23C208.452 114.348 208.456 114.479 208.41 114.601C208.364 114.722 208.272 114.817 208.154 114.87C208.091 114.899 208.026 114.913 207.957 114.913C207.766 114.913 207.593 114.801 207.514 114.627C207.461 114.509 207.458 114.378 207.504 114.256C207.55 114.135 207.642 114.04 207.76 113.987C207.822 113.958 207.888 113.945 207.957 113.945C208.15 113.945 208.324 114.056 208.4 114.23ZM213.564 109.184C213.492 109.371 213.312 109.495 213.112 109.495C213.053 109.495 212.993 109.485 212.938 109.462C212.688 109.367 212.564 109.088 212.659 108.839C212.731 108.652 212.911 108.527 213.112 108.527C213.171 108.527 213.23 108.537 213.286 108.56C213.535 108.655 213.66 108.934 213.564 109.184Z" fill="white"/>
</svg>
