<svg width="408" height="230" viewBox="0 0 408 230" fill="none" xmlns="http://www.w3.org/2000/svg">
<rect width="408" height="230" rx="10" fill="#764E9D"/>
<path d="M197.38 137.208C197.039 137.208 196.698 137.086 196.421 136.844C193.954 134.669 191.45 132.297 188.975 129.793C183.853 124.867 179.469 119.854 175.975 114.917C175.843 114.818 175.714 114.689 175.623 114.56C172.581 110.142 170.068 105.69 168.166 101.318C163.813 91.2843 163.851 83.9569 168.276 79.5347C172.58 75.0902 179.89 74.9461 189.988 79.1217C191.966 79.9326 194.053 80.8381 196.19 81.8081C196.255 81.8384 196.319 81.8725 196.376 81.9104C196.736 82.1416 197.043 82.331 197.293 82.475C197.452 82.5394 197.592 82.6266 197.71 82.7061C197.755 82.7364 197.801 82.7705 197.842 82.8084L198.521 83.3919C199.131 83.9148 199.199 84.8318 198.676 85.4418C198.153 86.0519 197.236 86.1201 196.626 85.5972L196.08 85.1311C196.054 85.116 196.024 85.1046 195.993 85.0857C195.698 84.9227 195.33 84.6992 194.887 84.415C192.81 83.4753 190.791 82.6 188.874 81.8119C179.984 78.1365 173.747 78.0569 170.345 81.5732C166.832 85.0819 167.003 91.3304 170.826 100.158C172.626 104.292 175.001 108.513 177.877 112.708C178.067 112.86 178.268 113.064 178.415 113.33C181.795 118.085 186.035 122.924 191.018 127.721C193.469 130.206 195.928 132.533 198.346 134.658C198.948 135.193 199.005 136.11 198.474 136.712C198.187 137.042 197.785 137.208 197.38 137.208Z" fill="white"/>
<path d="M180.647 110.829C180.355 110.829 180.064 110.741 179.813 110.563C179.154 110.101 178.999 109.195 179.461 108.536L180.723 106.74C180.746 106.71 180.768 106.68 180.791 106.653C182.921 104.061 185.327 101.492 187.945 99.0029C192.89 94.1908 197.834 90.1024 202.635 86.8701C202.707 86.8209 202.783 86.7792 202.867 86.7413C207.592 83.46 212.362 80.891 217.041 79.1026C227.075 74.9383 234.354 75.0824 238.639 79.5535C243.072 83.9526 243.114 91.2846 238.73 101.318C237.859 103.577 236.737 105.941 235.415 108.29C235.377 108.362 235.328 108.43 235.275 108.495L234.646 109.272C234.138 109.897 233.221 109.988 232.599 109.484C231.974 108.98 231.883 108.059 232.387 107.438L232.937 106.759C234.164 104.569 235.206 102.368 236.036 100.219C239.916 91.3379 240.087 85.0933 236.563 81.6003C233.164 78.0614 226.965 78.1409 218.113 81.8163C213.551 83.5631 208.921 86.0676 204.325 89.2769C204.238 89.3376 204.151 89.383 204.056 89.4247C199.463 92.5393 194.72 96.4686 189.957 101.106C187.43 103.509 185.114 105.979 183.068 108.465L181.837 110.215C181.56 110.613 181.106 110.829 180.647 110.829Z" fill="white"/>
<path d="M230.637 152.91C227.094 152.91 222.915 151.925 218.126 149.955C215.447 148.909 212.726 147.605 210.055 146.09L208.99 145.43C208.308 145.006 208.092 144.112 208.517 143.43C208.941 142.748 209.835 142.536 210.521 142.96L211.54 143.589C214.041 145.01 216.637 146.249 219.206 147.253C228.034 150.879 234.29 150.921 237.825 147.385C241.193 143.903 241.011 137.648 237.272 128.808C235.203 124.136 232.369 119.351 228.856 114.602C225.59 110.192 221.604 105.645 217.023 101.09C214.124 98.3546 211.294 95.7515 208.638 93.3833C208.039 92.8491 207.982 91.9321 208.52 91.3297C209.055 90.731 209.972 90.6742 210.574 91.2122C213.253 93.5993 216.099 96.2176 219.043 98.9987C223.756 103.678 227.833 108.339 231.19 112.867C234.831 117.789 237.772 122.76 239.935 127.644C244.186 137.685 244.164 145.005 239.893 149.419C237.575 151.746 234.479 152.909 230.637 152.909L230.637 152.91Z" fill="white"/>
<path d="M176.336 152.914C172.501 152.914 169.428 151.755 167.147 149.436C162.797 145.014 162.797 137.686 167.14 127.66C168.178 125.224 169.394 122.776 170.751 120.381C170.978 119.832 171.304 119.351 171.728 118.949L172.297 118.252C172.804 117.627 173.721 117.536 174.343 118.04C174.968 118.544 175.059 119.464 174.555 120.086L173.926 120.863C173.877 120.923 173.824 120.976 173.77 121.029C173.619 121.166 173.509 121.329 173.429 121.533C173.403 121.601 173.373 121.67 173.335 121.73C172.012 124.057 170.83 126.44 169.815 128.808C165.984 137.648 165.787 143.9 169.224 147.393C172.694 150.925 178.935 150.876 187.763 147.261C192.697 145.332 197.694 142.566 202.651 139.031C202.753 138.963 202.867 138.895 202.984 138.834C207.285 135.78 211.661 132.048 216.004 127.739C218.868 124.969 221.517 122.196 223.885 119.479L225.249 117.55C225.715 116.895 226.62 116.739 227.276 117.202C227.931 117.668 228.091 118.573 227.625 119.233L226.219 121.222C226.192 121.26 226.158 121.302 226.128 121.336C223.688 124.132 220.971 126.985 218.038 129.816C213.552 134.268 209.005 138.136 204.526 141.304C204.443 141.365 204.352 141.414 204.257 141.456C199.153 145.089 193.959 147.958 188.839 149.962C184.046 151.929 179.871 152.914 176.336 152.914Z" fill="white"/>
<path d="M203.689 122.469C201.192 122.469 199.096 121.62 197.456 119.941C195.83 118.278 195.008 116.205 195.008 113.784C195.008 111.427 195.834 109.389 197.456 107.725C199.081 106.02 201.184 105.152 203.689 105.152C206.087 105.152 208.114 106.016 209.713 107.714C211.475 109.377 212.369 111.42 212.369 113.788C212.369 116.235 211.464 118.323 209.679 119.99C208.129 121.612 206.098 122.469 203.689 122.469ZM203.689 108.062C201.983 108.062 200.635 108.611 199.551 109.744C198.448 110.874 197.918 112.188 197.918 113.784C197.918 115.443 198.448 116.792 199.54 117.91C200.623 119.02 201.98 119.558 203.689 119.558C205.291 119.558 206.58 119.024 207.629 117.921C208.876 116.75 209.459 115.417 209.459 113.784C209.459 112.219 208.88 110.915 207.69 109.801C207.667 109.779 207.641 109.756 207.622 109.729C206.572 108.608 205.288 108.062 203.689 108.062Z" fill="white"/>
</svg>